{
 "cells": [
  {
   "cell_type": "code",
   "execution_count": 2,
   "metadata": {
    "collapsed": true
   },
   "outputs": [],
   "source": [
    "import numpy as np\n",
    "import mido"
   ]
  },
  {
   "cell_type": "code",
   "execution_count": 3,
   "metadata": {
    "collapsed": true
   },
   "outputs": [],
   "source": [
    "mid = mido.MidiFile('1.mid')"
   ]
  },
  {
   "cell_type": "code",
   "execution_count": 18,
   "metadata": {
    "collapsed": true
   },
   "outputs": [],
   "source": [
    "# all track transfer into one matrix\n",
    "def to_piano_roll(midi):\n",
    "    \"\"\"\n",
    "    Convert MIDI file to a 2D NumPy ndarray (notes, timesteps).\n",
    "    Put all the track into one ndarray\n",
    "    \"\"\"\n",
    "    notes = 127\n",
    "    tempo = 500000  # Assume same default tempo and 4/4 for all MIDI files.\n",
    "    seconds_per_beat = tempo / 1000000.0\n",
    "    seconds_per_tick = seconds_per_beat / midi.ticks_per_beat\n",
    "    # we use this part to store every notes\n",
    "    velocities = np.zeros(notes)\n",
    "    # and this store everything together\n",
    "    sequence = []\n",
    "    for m in midi:\n",
    "        ticks = int(np.round(m.time / seconds_per_tick))\n",
    "        print(m.time,ticks, seconds_per_tick)\n",
    "        ls = [velocities.copy()] * ticks\n",
    "        sequence.extend(ls)\n",
    "        if m.type == 'note_on':\n",
    "            # in the note place some thing happen\n",
    "            velocities[m.note] = m.velocity\n",
    "        elif m.type == 'note_off':\n",
    "            velocities[m.note] = 0\n",
    "        else:\n",
    "            continue\n",
    "    piano_roll = np.array(sequence).T\n",
    "    return piano_roll"
   ]
  },
  {
   "cell_type": "code",
   "execution_count": 5,
   "metadata": {
    "collapsed": true
   },
   "outputs": [],
   "source": [
    "def track_to_ndarray(mid, ticks_per_beat):\n",
    "    notes = 127\n",
    "    tempo = 500000\n",
    "    seconds_per_beat = tempo / 1000000.0\n",
    "    seconds_per_tick = seconds_per_beat / ticks_per_beat\n",
    "    velocities = np.zeros(notes)\n",
    "    sequence = []\n",
    "    for m in mid:\n",
    "        \"\"\"\n",
    "        Some parts of Mido use the attribute for special purposes. In MIDI file tracks, it is used as delta time (in ticks).\n",
    "        \"\"\"\n",
    "        print(m)"
   ]
  },
  {
   "cell_type": "code",
   "execution_count": 7,
   "metadata": {
    "collapsed": false
   },
   "outputs": [
    {
     "name": "stdout",
     "output_type": "stream",
     "text": [
      "Track 0: 20th Century Fox\n",
      "<meta message track_name name='20th Century Fox' time=0>\n",
      "<meta message time_signature numerator=2 denominator=4 clocks_per_click=24 notated_32nd_notes_per_beat=8 time=0>\n",
      "<meta message set_tempo tempo=480000 time=0>\n",
      "<meta message time_signature numerator=4 denominator=4 clocks_per_click=24 notated_32nd_notes_per_beat=8 time=1920>\n",
      "<meta message set_tempo tempo=483870 time=9112>\n",
      "<meta message set_tempo tempo=487804 time=16>\n",
      "<meta message set_tempo tempo=495867 time=8>\n",
      "<meta message set_tempo tempo=504201 time=8>\n",
      "<meta message set_tempo tempo=508474 time=8>\n",
      "<meta message set_tempo tempo=512820 time=16>\n",
      "<meta message set_tempo tempo=550458 time=3784>\n",
      "<meta message set_tempo tempo=555555 time=8>\n",
      "<meta message set_tempo tempo=566037 time=8>\n",
      "<meta message set_tempo tempo=571428 time=16>\n",
      "<meta message set_tempo tempo=576923 time=16>\n",
      "<meta message set_tempo tempo=582524 time=8>\n",
      "<meta message set_tempo tempo=588235 time=16>\n",
      "<meta message set_tempo tempo=594059 time=32>\n",
      "<meta message set_tempo tempo=600000 time=16>\n",
      "<meta message set_tempo tempo=606060 time=40>\n",
      "<meta message set_tempo tempo=612244 time=16>\n",
      "<meta message set_tempo tempo=618556 time=8>\n",
      "<meta message set_tempo tempo=625000 time=48>\n",
      "<meta message set_tempo tempo=631578 time=56>\n",
      "<meta message set_tempo tempo=625000 time=264>\n",
      "<meta message set_tempo tempo=666666 time=416>\n",
      "<meta message set_tempo tempo=714285 time=480>\n",
      "<meta message set_tempo tempo=769230 time=480>\n",
      "<meta message set_tempo tempo=983606 time=480>\n",
      "<meta message end_of_track time=1920>\n",
      "Track 1: Trumpet\n",
      "<meta message track_name name='Trumpet' time=0>\n",
      "<meta message channel_prefix channel=0 time=0>\n",
      "<meta message instrument_name name='Trumpet' time=0>\n",
      "<meta message key_signature key='C' time=0>\n",
      "program_change channel=0 program=56 time=10\n",
      "control_change channel=0 control=7 value=100 time=5\n",
      "note_on channel=0 note=74 velocity=121 time=5745\n",
      "note_on channel=0 note=70 velocity=121 time=0\n",
      "note_on channel=0 note=77 velocity=121 time=0\n",
      "note_off channel=0 note=74 velocity=121 time=176\n",
      "note_off channel=0 note=70 velocity=121 time=0\n",
      "note_off channel=0 note=77 velocity=121 time=0\n",
      "note_on channel=0 note=70 velocity=90 time=144\n",
      "note_on channel=0 note=74 velocity=90 time=0\n",
      "note_on channel=0 note=77 velocity=90 time=0\n",
      "note_off channel=0 note=70 velocity=90 time=56\n",
      "note_off channel=0 note=74 velocity=90 time=0\n",
      "note_off channel=0 note=77 velocity=90 time=0\n",
      "note_on channel=0 note=74 velocity=91 time=24\n",
      "note_on channel=0 note=70 velocity=91 time=0\n",
      "note_on channel=0 note=77 velocity=91 time=0\n",
      "note_off channel=0 note=74 velocity=91 time=56\n",
      "note_off channel=0 note=70 velocity=91 time=0\n",
      "note_off channel=0 note=77 velocity=91 time=0\n",
      "note_on channel=0 note=74 velocity=110 time=24\n",
      "note_on channel=0 note=70 velocity=110 time=0\n",
      "note_on channel=0 note=77 velocity=110 time=0\n",
      "note_off channel=0 note=74 velocity=110 time=596\n",
      "note_off channel=0 note=70 velocity=110 time=0\n",
      "note_off channel=0 note=77 velocity=110 time=0\n",
      "note_on channel=0 note=71 velocity=110 time=44\n",
      "note_on channel=0 note=75 velocity=110 time=0\n",
      "note_on channel=0 note=78 velocity=110 time=0\n",
      "note_off channel=0 note=71 velocity=110 time=116\n",
      "note_off channel=0 note=75 velocity=110 time=0\n",
      "note_off channel=0 note=78 velocity=110 time=0\n",
      "note_on channel=0 note=70 velocity=110 time=44\n",
      "note_on channel=0 note=74 velocity=110 time=0\n",
      "note_on channel=0 note=77 velocity=110 time=0\n",
      "note_off channel=0 note=70 velocity=110 time=116\n",
      "note_off channel=0 note=74 velocity=110 time=0\n",
      "note_off channel=0 note=77 velocity=110 time=0\n",
      "note_on channel=0 note=71 velocity=110 time=44\n",
      "note_on channel=0 note=75 velocity=110 time=0\n",
      "note_on channel=0 note=78 velocity=110 time=0\n",
      "note_off channel=0 note=71 velocity=110 time=116\n",
      "note_off channel=0 note=75 velocity=110 time=0\n",
      "note_off channel=0 note=78 velocity=110 time=0\n",
      "note_on channel=0 note=70 velocity=110 time=44\n",
      "note_on channel=0 note=74 velocity=110 time=0\n",
      "note_on channel=0 note=77 velocity=110 time=0\n",
      "note_off channel=0 note=70 velocity=110 time=116\n",
      "note_off channel=0 note=74 velocity=110 time=0\n",
      "note_off channel=0 note=77 velocity=110 time=0\n",
      "note_on channel=0 note=71 velocity=110 time=44\n",
      "note_on channel=0 note=75 velocity=110 time=0\n",
      "note_on channel=0 note=78 velocity=110 time=0\n",
      "note_off channel=0 note=71 velocity=110 time=116\n",
      "note_off channel=0 note=75 velocity=110 time=0\n",
      "note_off channel=0 note=78 velocity=110 time=0\n",
      "note_on channel=0 note=74 velocity=123 time=44\n",
      "note_on channel=0 note=70 velocity=123 time=0\n",
      "note_on channel=0 note=77 velocity=123 time=0\n",
      "note_off channel=0 note=74 velocity=123 time=156\n",
      "note_off channel=0 note=70 velocity=123 time=0\n",
      "note_off channel=0 note=77 velocity=123 time=0\n",
      "note_on channel=0 note=70 velocity=91 time=164\n",
      "note_on channel=0 note=74 velocity=91 time=0\n",
      "note_on channel=0 note=77 velocity=91 time=0\n",
      "note_off channel=0 note=70 velocity=91 time=56\n",
      "note_off channel=0 note=74 velocity=91 time=0\n",
      "note_off channel=0 note=77 velocity=91 time=0\n",
      "note_on channel=0 note=70 velocity=91 time=24\n",
      "note_on channel=0 note=74 velocity=91 time=0\n",
      "note_on channel=0 note=77 velocity=91 time=0\n",
      "note_off channel=0 note=70 velocity=91 time=56\n",
      "note_off channel=0 note=74 velocity=91 time=0\n",
      "note_off channel=0 note=77 velocity=91 time=0\n",
      "note_on channel=0 note=70 velocity=110 time=24\n",
      "note_on channel=0 note=74 velocity=110 time=0\n",
      "note_on channel=0 note=77 velocity=110 time=0\n",
      "note_off channel=0 note=70 velocity=110 time=116\n",
      "note_off channel=0 note=74 velocity=110 time=0\n",
      "note_off channel=0 note=77 velocity=110 time=0\n",
      "note_on channel=0 note=70 velocity=110 time=44\n",
      "note_on channel=0 note=74 velocity=110 time=0\n",
      "note_on channel=0 note=77 velocity=110 time=0\n",
      "note_off channel=0 note=70 velocity=110 time=116\n",
      "note_off channel=0 note=74 velocity=110 time=0\n",
      "note_off channel=0 note=77 velocity=110 time=0\n",
      "note_on channel=0 note=70 velocity=110 time=44\n",
      "note_on channel=0 note=74 velocity=110 time=0\n",
      "note_on channel=0 note=77 velocity=110 time=0\n",
      "note_off channel=0 note=70 velocity=110 time=116\n",
      "note_off channel=0 note=74 velocity=110 time=0\n",
      "note_off channel=0 note=77 velocity=110 time=0\n",
      "note_on channel=0 note=70 velocity=110 time=44\n",
      "note_on channel=0 note=74 velocity=110 time=0\n",
      "note_on channel=0 note=77 velocity=110 time=0\n",
      "note_off channel=0 note=70 velocity=110 time=116\n",
      "note_off channel=0 note=74 velocity=110 time=0\n",
      "note_off channel=0 note=77 velocity=110 time=0\n",
      "note_on channel=0 note=70 velocity=110 time=44\n",
      "note_on channel=0 note=74 velocity=110 time=0\n",
      "note_on channel=0 note=77 velocity=110 time=0\n",
      "note_off channel=0 note=70 velocity=110 time=116\n",
      "note_off channel=0 note=74 velocity=110 time=0\n",
      "note_off channel=0 note=77 velocity=110 time=0\n",
      "note_on channel=0 note=70 velocity=110 time=44\n",
      "note_on channel=0 note=74 velocity=110 time=0\n",
      "note_on channel=0 note=77 velocity=110 time=0\n",
      "note_off channel=0 note=70 velocity=110 time=116\n",
      "note_off channel=0 note=74 velocity=110 time=0\n",
      "note_off channel=0 note=77 velocity=110 time=0\n",
      "note_on channel=0 note=70 velocity=110 time=44\n",
      "note_on channel=0 note=74 velocity=110 time=0\n",
      "note_on channel=0 note=77 velocity=110 time=0\n",
      "note_off channel=0 note=70 velocity=110 time=116\n",
      "note_off channel=0 note=74 velocity=110 time=0\n",
      "note_off channel=0 note=77 velocity=110 time=0\n",
      "note_on channel=0 note=70 velocity=110 time=44\n",
      "note_on channel=0 note=74 velocity=110 time=0\n",
      "note_off channel=0 note=70 velocity=110 time=116\n",
      "note_off channel=0 note=74 velocity=110 time=0\n",
      "note_on channel=0 note=70 velocity=110 time=44\n",
      "note_on channel=0 note=75 velocity=110 time=0\n",
      "note_off channel=0 note=70 velocity=110 time=116\n",
      "note_off channel=0 note=75 velocity=110 time=0\n",
      "note_on channel=0 note=70 velocity=120 time=44\n",
      "note_on channel=0 note=74 velocity=120 time=0\n",
      "note_on channel=0 note=77 velocity=120 time=0\n",
      "note_off channel=0 note=70 velocity=120 time=156\n",
      "note_off channel=0 note=74 velocity=120 time=0\n",
      "note_off channel=0 note=77 velocity=120 time=0\n",
      "note_on channel=0 note=70 velocity=91 time=164\n",
      "note_on channel=0 note=74 velocity=91 time=0\n",
      "note_on channel=0 note=77 velocity=91 time=0\n",
      "note_off channel=0 note=70 velocity=91 time=56\n",
      "note_off channel=0 note=74 velocity=91 time=0\n",
      "note_off channel=0 note=77 velocity=91 time=0\n",
      "note_on channel=0 note=77 velocity=91 time=24\n",
      "note_on channel=0 note=70 velocity=91 time=0\n",
      "note_on channel=0 note=74 velocity=91 time=0\n",
      "note_off channel=0 note=77 velocity=91 time=56\n",
      "note_off channel=0 note=70 velocity=91 time=0\n",
      "note_off channel=0 note=74 velocity=91 time=0\n",
      "note_on channel=0 note=70 velocity=110 time=24\n",
      "note_on channel=0 note=74 velocity=110 time=0\n",
      "note_on channel=0 note=77 velocity=110 time=0\n",
      "note_off channel=0 note=70 velocity=110 time=596\n",
      "note_off channel=0 note=74 velocity=110 time=0\n",
      "note_off channel=0 note=77 velocity=110 time=0\n",
      "note_on channel=0 note=75 velocity=120 time=1324\n",
      "note_on channel=0 note=67 velocity=120 time=0\n",
      "note_on channel=0 note=72 velocity=120 time=0\n",
      "note_off channel=0 note=75 velocity=120 time=156\n",
      "note_off channel=0 note=67 velocity=120 time=0\n",
      "note_off channel=0 note=72 velocity=120 time=0\n",
      "note_on channel=0 note=75 velocity=91 time=164\n",
      "note_on channel=0 note=72 velocity=91 time=0\n",
      "note_on channel=0 note=67 velocity=91 time=0\n",
      "note_off channel=0 note=75 velocity=91 time=56\n",
      "note_off channel=0 note=72 velocity=91 time=0\n",
      "note_off channel=0 note=67 velocity=91 time=0\n",
      "note_on channel=0 note=75 velocity=91 time=24\n",
      "note_on channel=0 note=67 velocity=91 time=0\n",
      "note_on channel=0 note=72 velocity=91 time=0\n",
      "note_off channel=0 note=75 velocity=91 time=56\n",
      "note_off channel=0 note=67 velocity=91 time=0\n",
      "note_off channel=0 note=72 velocity=91 time=0\n",
      "note_on channel=0 note=75 velocity=110 time=24\n",
      "note_on channel=0 note=67 velocity=110 time=0\n",
      "note_on channel=0 note=72 velocity=110 time=0\n",
      "note_off channel=0 note=75 velocity=110 time=476\n",
      "note_off channel=0 note=67 velocity=110 time=0\n",
      "note_off channel=0 note=72 velocity=110 time=0\n",
      "note_on channel=0 note=67 velocity=122 time=964\n",
      "note_on channel=0 note=70 velocity=122 time=0\n",
      "note_on channel=0 note=75 velocity=122 time=0\n",
      "note_off channel=0 note=67 velocity=122 time=156\n",
      "note_off channel=0 note=70 velocity=122 time=0\n",
      "note_off channel=0 note=75 velocity=122 time=0\n",
      "note_on channel=0 note=67 velocity=88 time=164\n",
      "note_on channel=0 note=70 velocity=88 time=0\n",
      "note_on channel=0 note=75 velocity=88 time=0\n",
      "note_off channel=0 note=67 velocity=88 time=56\n",
      "note_off channel=0 note=70 velocity=88 time=0\n",
      "note_off channel=0 note=75 velocity=88 time=0\n",
      "note_on channel=0 note=67 velocity=88 time=24\n",
      "note_on channel=0 note=70 velocity=88 time=0\n",
      "note_on channel=0 note=75 velocity=88 time=0\n",
      "note_off channel=0 note=67 velocity=88 time=56\n",
      "note_off channel=0 note=70 velocity=88 time=0\n",
      "note_off channel=0 note=75 velocity=88 time=0\n",
      "note_on channel=0 note=65 velocity=110 time=24\n",
      "note_on channel=0 note=69 velocity=110 time=0\n",
      "note_on channel=0 note=75 velocity=110 time=0\n",
      "note_off channel=0 note=65 velocity=110 time=476\n",
      "note_off channel=0 note=69 velocity=110 time=0\n",
      "note_off channel=0 note=75 velocity=110 time=0\n",
      "note_on channel=0 note=70 velocity=110 time=964\n",
      "note_on channel=0 note=74 velocity=110 time=0\n",
      "note_on channel=0 note=77 velocity=110 time=0\n",
      "note_off channel=0 note=70 velocity=110 time=116\n",
      "note_off channel=0 note=74 velocity=110 time=0\n",
      "note_off channel=0 note=77 velocity=110 time=0\n",
      "note_on channel=0 note=70 velocity=110 time=44\n",
      "note_on channel=0 note=65 velocity=110 time=0\n",
      "note_on channel=0 note=74 velocity=110 time=0\n",
      "note_off channel=0 note=70 velocity=110 time=116\n",
      "note_off channel=0 note=65 velocity=110 time=0\n",
      "note_off channel=0 note=74 velocity=110 time=0\n",
      "note_on channel=0 note=72 velocity=110 time=44\n",
      "note_on channel=0 note=69 velocity=110 time=0\n",
      "note_on channel=0 note=75 velocity=110 time=0\n",
      "note_off channel=0 note=72 velocity=110 time=116\n",
      "note_off channel=0 note=69 velocity=110 time=0\n",
      "note_off channel=0 note=75 velocity=110 time=0\n",
      "note_on channel=0 note=77 velocity=110 time=44\n",
      "note_on channel=0 note=70 velocity=110 time=0\n",
      "note_on channel=0 note=74 velocity=110 time=0\n",
      "note_off channel=0 note=77 velocity=110 time=956\n",
      "note_off channel=0 note=70 velocity=110 time=0\n",
      "note_off channel=0 note=74 velocity=110 time=0\n",
      "<meta message end_of_track time=1924>\n",
      "Track 2: Trombone\n",
      "<meta message track_name name='Trombone' time=0>\n",
      "<meta message channel_prefix channel=1 time=0>\n",
      "<meta message instrument_name name='Trombone' time=0>\n",
      "<meta message key_signature key='C' time=0>\n",
      "program_change channel=1 program=57 time=20\n",
      "control_change channel=1 control=7 value=100 time=5\n",
      "note_on channel=1 note=62 velocity=118 time=5735\n",
      "note_on channel=1 note=65 velocity=118 time=0\n",
      "note_on channel=1 note=53 velocity=118 time=0\n",
      "note_on channel=1 note=58 velocity=118 time=0\n",
      "note_off channel=1 note=62 velocity=118 time=176\n",
      "note_off channel=1 note=65 velocity=118 time=0\n",
      "note_off channel=1 note=53 velocity=118 time=0\n",
      "note_off channel=1 note=58 velocity=118 time=0\n",
      "note_on channel=1 note=62 velocity=91 time=144\n",
      "note_on channel=1 note=58 velocity=91 time=0\n",
      "note_on channel=1 note=53 velocity=91 time=0\n",
      "note_on channel=1 note=65 velocity=91 time=0\n",
      "note_off channel=1 note=62 velocity=91 time=56\n",
      "note_off channel=1 note=58 velocity=91 time=0\n",
      "note_off channel=1 note=53 velocity=91 time=0\n",
      "note_off channel=1 note=65 velocity=91 time=0\n",
      "note_on channel=1 note=58 velocity=91 time=24\n",
      "note_on channel=1 note=62 velocity=91 time=0\n",
      "note_on channel=1 note=53 velocity=91 time=0\n",
      "note_on channel=1 note=65 velocity=91 time=0\n",
      "note_off channel=1 note=58 velocity=91 time=56\n",
      "note_off channel=1 note=62 velocity=91 time=0\n",
      "note_off channel=1 note=53 velocity=91 time=0\n",
      "note_off channel=1 note=65 velocity=91 time=0\n",
      "note_on channel=1 note=62 velocity=110 time=24\n",
      "note_on channel=1 note=58 velocity=110 time=0\n",
      "note_on channel=1 note=53 velocity=110 time=0\n",
      "note_on channel=1 note=65 velocity=110 time=0\n",
      "note_off channel=1 note=62 velocity=110 time=596\n",
      "note_off channel=1 note=58 velocity=110 time=0\n",
      "note_off channel=1 note=53 velocity=110 time=0\n",
      "note_off channel=1 note=65 velocity=110 time=0\n",
      "note_on channel=1 note=59 velocity=110 time=44\n",
      "note_on channel=1 note=54 velocity=110 time=0\n",
      "note_on channel=1 note=63 velocity=110 time=0\n",
      "note_on channel=1 note=66 velocity=110 time=0\n",
      "note_off channel=1 note=59 velocity=110 time=116\n",
      "note_off channel=1 note=54 velocity=110 time=0\n",
      "note_off channel=1 note=63 velocity=110 time=0\n",
      "note_off channel=1 note=66 velocity=110 time=0\n",
      "note_on channel=1 note=62 velocity=110 time=44\n",
      "note_on channel=1 note=58 velocity=110 time=0\n",
      "note_on channel=1 note=53 velocity=110 time=0\n",
      "note_on channel=1 note=65 velocity=110 time=0\n",
      "note_off channel=1 note=62 velocity=110 time=116\n",
      "note_off channel=1 note=58 velocity=110 time=0\n",
      "note_off channel=1 note=53 velocity=110 time=0\n",
      "note_off channel=1 note=65 velocity=110 time=0\n",
      "note_on channel=1 note=63 velocity=110 time=44\n",
      "note_on channel=1 note=59 velocity=110 time=0\n",
      "note_on channel=1 note=54 velocity=110 time=0\n",
      "note_on channel=1 note=66 velocity=110 time=0\n",
      "note_off channel=1 note=63 velocity=110 time=116\n",
      "note_off channel=1 note=59 velocity=110 time=0\n",
      "note_off channel=1 note=54 velocity=110 time=0\n",
      "note_off channel=1 note=66 velocity=110 time=0\n",
      "note_on channel=1 note=62 velocity=110 time=44\n",
      "note_on channel=1 note=58 velocity=110 time=0\n",
      "note_on channel=1 note=53 velocity=110 time=0\n",
      "note_on channel=1 note=65 velocity=110 time=0\n",
      "note_off channel=1 note=62 velocity=110 time=116\n",
      "note_off channel=1 note=58 velocity=110 time=0\n",
      "note_off channel=1 note=53 velocity=110 time=0\n",
      "note_off channel=1 note=65 velocity=110 time=0\n",
      "note_on channel=1 note=63 velocity=110 time=44\n",
      "note_on channel=1 note=59 velocity=110 time=0\n",
      "note_on channel=1 note=54 velocity=110 time=0\n",
      "note_on channel=1 note=66 velocity=110 time=0\n",
      "note_off channel=1 note=63 velocity=110 time=116\n",
      "note_off channel=1 note=59 velocity=110 time=0\n",
      "note_off channel=1 note=54 velocity=110 time=0\n",
      "note_off channel=1 note=66 velocity=110 time=0\n",
      "note_on channel=1 note=62 velocity=110 time=44\n",
      "note_on channel=1 note=58 velocity=110 time=0\n",
      "note_on channel=1 note=53 velocity=110 time=0\n",
      "note_on channel=1 note=65 velocity=110 time=0\n",
      "note_off channel=1 note=62 velocity=110 time=156\n",
      "note_off channel=1 note=58 velocity=110 time=0\n",
      "note_off channel=1 note=53 velocity=110 time=0\n",
      "note_off channel=1 note=65 velocity=110 time=0\n",
      "note_on channel=1 note=62 velocity=91 time=164\n",
      "note_on channel=1 note=58 velocity=91 time=0\n",
      "note_on channel=1 note=53 velocity=91 time=0\n",
      "note_on channel=1 note=65 velocity=91 time=0\n",
      "note_off channel=1 note=62 velocity=91 time=56\n",
      "note_off channel=1 note=58 velocity=91 time=0\n",
      "note_off channel=1 note=53 velocity=91 time=0\n",
      "note_off channel=1 note=65 velocity=91 time=0\n",
      "note_on channel=1 note=62 velocity=91 time=24\n",
      "note_on channel=1 note=58 velocity=91 time=0\n",
      "note_on channel=1 note=53 velocity=91 time=0\n",
      "note_on channel=1 note=65 velocity=91 time=0\n",
      "note_off channel=1 note=62 velocity=91 time=56\n",
      "note_off channel=1 note=58 velocity=91 time=0\n",
      "note_off channel=1 note=53 velocity=91 time=0\n",
      "note_off channel=1 note=65 velocity=91 time=0\n",
      "note_on channel=1 note=53 velocity=110 time=24\n",
      "note_on channel=1 note=58 velocity=110 time=0\n",
      "note_on channel=1 note=65 velocity=110 time=0\n",
      "note_on channel=1 note=62 velocity=110 time=0\n",
      "note_off channel=1 note=53 velocity=110 time=116\n",
      "note_off channel=1 note=58 velocity=110 time=0\n",
      "note_off channel=1 note=65 velocity=110 time=0\n",
      "note_off channel=1 note=62 velocity=110 time=0\n",
      "note_on channel=1 note=62 velocity=110 time=44\n",
      "note_on channel=1 note=58 velocity=110 time=0\n",
      "note_on channel=1 note=53 velocity=110 time=0\n",
      "note_on channel=1 note=65 velocity=110 time=0\n",
      "note_off channel=1 note=62 velocity=110 time=116\n",
      "note_off channel=1 note=58 velocity=110 time=0\n",
      "note_off channel=1 note=53 velocity=110 time=0\n",
      "note_off channel=1 note=65 velocity=110 time=0\n",
      "note_on channel=1 note=62 velocity=110 time=44\n",
      "note_on channel=1 note=58 velocity=110 time=0\n",
      "note_on channel=1 note=53 velocity=110 time=0\n",
      "note_on channel=1 note=65 velocity=110 time=0\n",
      "note_off channel=1 note=62 velocity=110 time=116\n",
      "note_off channel=1 note=58 velocity=110 time=0\n",
      "note_off channel=1 note=53 velocity=110 time=0\n",
      "note_off channel=1 note=65 velocity=110 time=0\n",
      "note_on channel=1 note=58 velocity=110 time=44\n",
      "note_on channel=1 note=53 velocity=110 time=0\n",
      "note_on channel=1 note=65 velocity=110 time=0\n",
      "note_on channel=1 note=62 velocity=110 time=0\n",
      "note_off channel=1 note=58 velocity=110 time=116\n",
      "note_off channel=1 note=53 velocity=110 time=0\n",
      "note_off channel=1 note=65 velocity=110 time=0\n",
      "note_off channel=1 note=62 velocity=110 time=0\n",
      "note_on channel=1 note=62 velocity=110 time=44\n",
      "note_on channel=1 note=58 velocity=110 time=0\n",
      "note_on channel=1 note=53 velocity=110 time=0\n",
      "note_on channel=1 note=65 velocity=110 time=0\n",
      "note_off channel=1 note=62 velocity=110 time=116\n",
      "note_off channel=1 note=58 velocity=110 time=0\n",
      "note_off channel=1 note=53 velocity=110 time=0\n",
      "note_off channel=1 note=65 velocity=110 time=0\n",
      "note_on channel=1 note=62 velocity=110 time=44\n",
      "note_on channel=1 note=58 velocity=110 time=0\n",
      "note_on channel=1 note=53 velocity=110 time=0\n",
      "note_on channel=1 note=65 velocity=110 time=0\n",
      "note_off channel=1 note=62 velocity=110 time=116\n",
      "note_off channel=1 note=58 velocity=110 time=0\n",
      "note_off channel=1 note=53 velocity=110 time=0\n",
      "note_off channel=1 note=65 velocity=110 time=0\n",
      "note_on channel=1 note=58 velocity=110 time=44\n",
      "note_on channel=1 note=53 velocity=110 time=0\n",
      "note_on channel=1 note=62 velocity=110 time=0\n",
      "note_on channel=1 note=65 velocity=110 time=0\n",
      "note_off channel=1 note=58 velocity=110 time=116\n",
      "note_off channel=1 note=53 velocity=110 time=0\n",
      "note_off channel=1 note=62 velocity=110 time=0\n",
      "note_off channel=1 note=65 velocity=110 time=0\n",
      "note_on channel=1 note=58 velocity=110 time=44\n",
      "note_on channel=1 note=53 velocity=110 time=0\n",
      "note_on channel=1 note=50 velocity=110 time=0\n",
      "note_on channel=1 note=62 velocity=110 time=0\n",
      "note_off channel=1 note=58 velocity=110 time=116\n",
      "note_off channel=1 note=53 velocity=110 time=0\n",
      "note_off channel=1 note=50 velocity=110 time=0\n",
      "note_off channel=1 note=62 velocity=110 time=0\n",
      "note_on channel=1 note=60 velocity=110 time=44\n",
      "note_on channel=1 note=63 velocity=110 time=0\n",
      "note_off channel=1 note=60 velocity=110 time=116\n",
      "note_off channel=1 note=63 velocity=110 time=0\n",
      "note_on channel=1 note=62 velocity=110 time=44\n",
      "note_on channel=1 note=58 velocity=110 time=0\n",
      "note_on channel=1 note=53 velocity=110 time=0\n",
      "note_on channel=1 note=65 velocity=110 time=0\n",
      "note_off channel=1 note=62 velocity=110 time=156\n",
      "note_off channel=1 note=58 velocity=110 time=0\n",
      "note_off channel=1 note=53 velocity=110 time=0\n",
      "note_off channel=1 note=65 velocity=110 time=0\n",
      "note_on channel=1 note=62 velocity=89 time=164\n",
      "note_on channel=1 note=58 velocity=89 time=0\n",
      "note_on channel=1 note=53 velocity=89 time=0\n",
      "note_on channel=1 note=65 velocity=89 time=0\n",
      "note_off channel=1 note=62 velocity=89 time=56\n",
      "note_off channel=1 note=58 velocity=89 time=0\n",
      "note_off channel=1 note=53 velocity=89 time=0\n",
      "note_off channel=1 note=65 velocity=89 time=0\n",
      "note_on channel=1 note=62 velocity=89 time=24\n",
      "note_on channel=1 note=58 velocity=89 time=0\n",
      "note_on channel=1 note=53 velocity=89 time=0\n",
      "note_on channel=1 note=65 velocity=89 time=0\n",
      "note_off channel=1 note=62 velocity=89 time=56\n",
      "note_off channel=1 note=58 velocity=89 time=0\n",
      "note_off channel=1 note=53 velocity=89 time=0\n",
      "note_off channel=1 note=65 velocity=89 time=0\n",
      "note_on channel=1 note=58 velocity=110 time=24\n",
      "note_on channel=1 note=53 velocity=110 time=0\n",
      "note_on channel=1 note=65 velocity=110 time=0\n",
      "note_on channel=1 note=62 velocity=110 time=0\n",
      "note_off channel=1 note=58 velocity=110 time=596\n",
      "note_off channel=1 note=53 velocity=110 time=0\n",
      "note_off channel=1 note=65 velocity=110 time=0\n",
      "note_off channel=1 note=62 velocity=110 time=0\n",
      "note_on channel=1 note=48 velocity=110 time=1324\n",
      "note_on channel=1 note=63 velocity=110 time=0\n",
      "note_on channel=1 note=60 velocity=110 time=0\n",
      "note_on channel=1 note=55 velocity=110 time=0\n",
      "note_off channel=1 note=48 velocity=110 time=196\n",
      "note_off channel=1 note=63 velocity=110 time=0\n",
      "note_off channel=1 note=60 velocity=110 time=0\n",
      "note_off channel=1 note=55 velocity=110 time=0\n",
      "note_on channel=1 note=48 velocity=91 time=124\n",
      "note_on channel=1 note=55 velocity=91 time=0\n",
      "note_on channel=1 note=60 velocity=91 time=0\n",
      "note_on channel=1 note=63 velocity=91 time=0\n",
      "note_off channel=1 note=48 velocity=91 time=56\n",
      "note_off channel=1 note=55 velocity=91 time=0\n",
      "note_off channel=1 note=60 velocity=91 time=0\n",
      "note_off channel=1 note=63 velocity=91 time=0\n",
      "note_on channel=1 note=55 velocity=93 time=24\n",
      "note_on channel=1 note=48 velocity=93 time=0\n",
      "note_on channel=1 note=63 velocity=93 time=0\n",
      "note_on channel=1 note=60 velocity=93 time=0\n",
      "note_off channel=1 note=55 velocity=93 time=56\n",
      "note_off channel=1 note=48 velocity=93 time=0\n",
      "note_off channel=1 note=63 velocity=93 time=0\n",
      "note_off channel=1 note=60 velocity=93 time=0\n",
      "note_on channel=1 note=55 velocity=110 time=24\n",
      "note_on channel=1 note=48 velocity=110 time=0\n",
      "note_on channel=1 note=63 velocity=110 time=0\n",
      "note_on channel=1 note=60 velocity=110 time=0\n",
      "note_off channel=1 note=55 velocity=110 time=476\n",
      "note_off channel=1 note=48 velocity=110 time=0\n",
      "note_off channel=1 note=63 velocity=110 time=0\n",
      "note_off channel=1 note=60 velocity=110 time=0\n",
      "note_on channel=1 note=58 velocity=110 time=964\n",
      "note_on channel=1 note=55 velocity=110 time=0\n",
      "note_on channel=1 note=51 velocity=110 time=0\n",
      "note_on channel=1 note=63 velocity=110 time=0\n",
      "note_off channel=1 note=58 velocity=110 time=196\n",
      "note_off channel=1 note=55 velocity=110 time=0\n",
      "note_off channel=1 note=51 velocity=110 time=0\n",
      "note_off channel=1 note=63 velocity=110 time=0\n",
      "note_on channel=1 note=51 velocity=90 time=124\n",
      "note_on channel=1 note=55 velocity=90 time=0\n",
      "note_on channel=1 note=58 velocity=90 time=0\n",
      "note_on channel=1 note=63 velocity=90 time=0\n",
      "note_off channel=1 note=51 velocity=90 time=56\n",
      "note_off channel=1 note=55 velocity=90 time=0\n",
      "note_off channel=1 note=58 velocity=90 time=0\n",
      "note_off channel=1 note=63 velocity=90 time=0\n",
      "note_on channel=1 note=51 velocity=90 time=24\n",
      "note_on channel=1 note=55 velocity=90 time=0\n",
      "note_on channel=1 note=58 velocity=90 time=0\n",
      "note_on channel=1 note=63 velocity=90 time=0\n",
      "note_off channel=1 note=51 velocity=90 time=56\n",
      "note_off channel=1 note=55 velocity=90 time=0\n",
      "note_off channel=1 note=58 velocity=90 time=0\n",
      "note_off channel=1 note=63 velocity=90 time=0\n",
      "note_on channel=1 note=53 velocity=110 time=24\n",
      "note_on channel=1 note=57 velocity=110 time=0\n",
      "note_on channel=1 note=63 velocity=110 time=0\n",
      "note_off channel=1 note=53 velocity=110 time=476\n",
      "note_off channel=1 note=57 velocity=110 time=0\n",
      "note_off channel=1 note=63 velocity=110 time=0\n",
      "note_on channel=1 note=62 velocity=110 time=964\n",
      "note_on channel=1 note=58 velocity=110 time=0\n",
      "note_on channel=1 note=53 velocity=110 time=0\n",
      "note_on channel=1 note=65 velocity=110 time=0\n",
      "note_off channel=1 note=62 velocity=110 time=116\n",
      "note_off channel=1 note=58 velocity=110 time=0\n",
      "note_off channel=1 note=53 velocity=110 time=0\n",
      "note_off channel=1 note=65 velocity=110 time=0\n",
      "note_on channel=1 note=58 velocity=110 time=44\n",
      "note_on channel=1 note=53 velocity=110 time=0\n",
      "note_on channel=1 note=50 velocity=110 time=0\n",
      "note_on channel=1 note=62 velocity=110 time=0\n",
      "note_off channel=1 note=58 velocity=110 time=116\n",
      "note_off channel=1 note=53 velocity=110 time=0\n",
      "note_off channel=1 note=50 velocity=110 time=0\n",
      "note_off channel=1 note=62 velocity=110 time=0\n",
      "note_on channel=1 note=60 velocity=110 time=44\n",
      "note_on channel=1 note=57 velocity=110 time=0\n",
      "note_on channel=1 note=51 velocity=110 time=0\n",
      "note_on channel=1 note=63 velocity=110 time=0\n",
      "note_off channel=1 note=60 velocity=110 time=116\n",
      "note_off channel=1 note=57 velocity=110 time=0\n",
      "note_off channel=1 note=51 velocity=110 time=0\n",
      "note_off channel=1 note=63 velocity=110 time=0\n",
      "note_on channel=1 note=62 velocity=110 time=44\n",
      "note_on channel=1 note=53 velocity=110 time=0\n",
      "note_on channel=1 note=46 velocity=110 time=0\n",
      "note_on channel=1 note=58 velocity=110 time=0\n",
      "note_on channel=1 note=65 velocity=110 time=0\n",
      "note_off channel=1 note=62 velocity=110 time=956\n",
      "note_off channel=1 note=53 velocity=110 time=0\n",
      "note_off channel=1 note=46 velocity=110 time=0\n",
      "note_off channel=1 note=58 velocity=110 time=0\n",
      "note_off channel=1 note=65 velocity=110 time=0\n",
      "<meta message end_of_track time=1924>\n",
      "Track 3: Tuba\n",
      "<meta message track_name name='Tuba' time=0>\n",
      "<meta message channel_prefix channel=2 time=0>\n",
      "<meta message instrument_name name='Tuba' time=0>\n",
      "<meta message key_signature key='C' time=0>\n",
      "program_change channel=2 program=58 time=30\n",
      "control_change channel=2 control=7 value=100 time=5\n",
      "note_on channel=2 note=46 velocity=110 time=5725\n",
      "note_off channel=2 note=46 velocity=110 time=176\n",
      "note_on channel=2 note=46 velocity=92 time=144\n",
      "note_off channel=2 note=46 velocity=92 time=56\n",
      "note_on channel=2 note=46 velocity=92 time=24\n",
      "note_off channel=2 note=46 velocity=92 time=56\n",
      "note_on channel=2 note=46 velocity=110 time=24\n",
      "note_off channel=2 note=46 velocity=110 time=596\n",
      "note_on channel=2 note=47 velocity=110 time=44\n",
      "note_off channel=2 note=47 velocity=110 time=116\n",
      "note_on channel=2 note=46 velocity=110 time=44\n",
      "note_off channel=2 note=46 velocity=110 time=116\n",
      "note_on channel=2 note=47 velocity=110 time=44\n",
      "note_off channel=2 note=47 velocity=110 time=116\n",
      "note_on channel=2 note=46 velocity=110 time=44\n",
      "note_off channel=2 note=46 velocity=110 time=116\n",
      "note_on channel=2 note=47 velocity=110 time=44\n",
      "note_off channel=2 note=47 velocity=110 time=116\n",
      "note_on channel=2 note=46 velocity=110 time=44\n",
      "note_off channel=2 note=46 velocity=110 time=156\n",
      "note_on channel=2 note=46 velocity=88 time=164\n",
      "note_off channel=2 note=46 velocity=88 time=56\n",
      "note_on channel=2 note=46 velocity=88 time=24\n",
      "note_off channel=2 note=46 velocity=88 time=56\n",
      "note_on channel=2 note=46 velocity=110 time=24\n",
      "note_off channel=2 note=46 velocity=110 time=116\n",
      "note_on channel=2 note=46 velocity=110 time=44\n",
      "note_off channel=2 note=46 velocity=110 time=116\n",
      "note_on channel=2 note=46 velocity=110 time=44\n",
      "note_off channel=2 note=46 velocity=110 time=116\n",
      "note_on channel=2 note=46 velocity=110 time=44\n",
      "note_off channel=2 note=46 velocity=110 time=116\n",
      "note_on channel=2 note=46 velocity=110 time=44\n",
      "note_off channel=2 note=46 velocity=110 time=116\n",
      "note_on channel=2 note=46 velocity=110 time=44\n",
      "note_off channel=2 note=46 velocity=110 time=116\n",
      "note_on channel=2 note=46 velocity=110 time=44\n",
      "note_off channel=2 note=46 velocity=110 time=116\n",
      "note_on channel=2 note=41 velocity=110 time=44\n",
      "note_off channel=2 note=41 velocity=110 time=116\n",
      "note_on channel=2 note=45 velocity=110 time=44\n",
      "note_off channel=2 note=45 velocity=110 time=116\n",
      "note_on channel=2 note=46 velocity=110 time=44\n",
      "note_off channel=2 note=46 velocity=110 time=156\n",
      "note_on channel=2 note=46 velocity=92 time=164\n",
      "note_off channel=2 note=46 velocity=92 time=56\n",
      "note_on channel=2 note=46 velocity=91 time=24\n",
      "note_off channel=2 note=46 velocity=91 time=56\n",
      "note_on channel=2 note=46 velocity=110 time=24\n",
      "note_off channel=2 note=46 velocity=110 time=596\n",
      "note_on channel=2 note=48 velocity=110 time=1324\n",
      "note_off channel=2 note=48 velocity=110 time=176\n",
      "note_on channel=2 note=48 velocity=91 time=144\n",
      "note_off channel=2 note=48 velocity=91 time=56\n",
      "note_on channel=2 note=48 velocity=91 time=24\n",
      "note_off channel=2 note=48 velocity=91 time=56\n",
      "note_on channel=2 note=48 velocity=91 time=24\n",
      "note_off channel=2 note=48 velocity=91 time=476\n",
      "note_on channel=2 note=41 velocity=91 time=964\n",
      "note_off channel=2 note=41 velocity=91 time=196\n",
      "note_on channel=2 note=41 velocity=91 time=124\n",
      "note_off channel=2 note=41 velocity=91 time=56\n",
      "note_on channel=2 note=41 velocity=91 time=24\n",
      "note_off channel=2 note=41 velocity=91 time=56\n",
      "note_on channel=2 note=41 velocity=91 time=24\n",
      "note_off channel=2 note=41 velocity=91 time=476\n",
      "note_on channel=2 note=41 velocity=91 time=964\n",
      "note_off channel=2 note=41 velocity=91 time=116\n",
      "note_on channel=2 note=41 velocity=91 time=44\n",
      "note_off channel=2 note=41 velocity=91 time=116\n",
      "note_on channel=2 note=41 velocity=91 time=44\n",
      "note_off channel=2 note=41 velocity=91 time=116\n",
      "note_on channel=2 note=34 velocity=91 time=44\n",
      "note_off channel=2 note=34 velocity=91 time=956\n",
      "<meta message end_of_track time=1924>\n",
      "Track 4: Strings\n",
      "<meta message track_name name='Strings' time=0>\n",
      "<meta message channel_prefix channel=3 time=0>\n",
      "<meta message instrument_name name='Strings' time=0>\n",
      "<meta message key_signature key='C' time=0>\n",
      "program_change channel=3 program=48 time=40\n",
      "control_change channel=3 control=7 value=100 time=5\n",
      "note_on channel=3 note=70 velocity=110 time=10995\n",
      "note_on channel=3 note=58 velocity=110 time=0\n",
      "note_on channel=3 note=46 velocity=110 time=0\n",
      "note_off channel=3 note=70 velocity=110 time=116\n",
      "note_off channel=3 note=58 velocity=110 time=0\n",
      "note_off channel=3 note=46 velocity=110 time=0\n",
      "note_on channel=3 note=74 velocity=110 time=44\n",
      "note_on channel=3 note=50 velocity=110 time=0\n",
      "note_on channel=3 note=62 velocity=110 time=0\n",
      "note_off channel=3 note=74 velocity=110 time=116\n",
      "note_off channel=3 note=50 velocity=110 time=0\n",
      "note_off channel=3 note=62 velocity=110 time=0\n",
      "note_on channel=3 note=77 velocity=110 time=44\n",
      "note_on channel=3 note=53 velocity=110 time=0\n",
      "note_on channel=3 note=65 velocity=110 time=0\n",
      "note_off channel=3 note=77 velocity=110 time=116\n",
      "note_off channel=3 note=53 velocity=110 time=0\n",
      "note_off channel=3 note=65 velocity=110 time=0\n",
      "note_on channel=3 note=79 velocity=110 time=44\n",
      "note_on channel=3 note=55 velocity=110 time=0\n",
      "note_on channel=3 note=67 velocity=110 time=0\n",
      "note_off channel=3 note=79 velocity=110 time=1436\n",
      "note_off channel=3 note=55 velocity=110 time=0\n",
      "note_off channel=3 note=67 velocity=110 time=0\n",
      "note_on channel=3 note=72 velocity=110 time=4\n",
      "note_on channel=3 note=48 velocity=110 time=0\n",
      "note_on channel=3 note=60 velocity=110 time=0\n",
      "note_off channel=3 note=72 velocity=110 time=116\n",
      "note_off channel=3 note=48 velocity=110 time=0\n",
      "note_off channel=3 note=60 velocity=110 time=0\n",
      "note_on channel=3 note=75 velocity=110 time=44\n",
      "note_on channel=3 note=51 velocity=110 time=0\n",
      "note_on channel=3 note=63 velocity=110 time=0\n",
      "note_off channel=3 note=75 velocity=110 time=116\n",
      "note_off channel=3 note=51 velocity=110 time=0\n",
      "note_off channel=3 note=63 velocity=110 time=0\n",
      "note_on channel=3 note=79 velocity=110 time=44\n",
      "note_on channel=3 note=55 velocity=110 time=0\n",
      "note_on channel=3 note=67 velocity=110 time=0\n",
      "note_off channel=3 note=79 velocity=110 time=116\n",
      "note_off channel=3 note=55 velocity=110 time=0\n",
      "note_off channel=3 note=67 velocity=110 time=0\n",
      "note_on channel=3 note=82 velocity=110 time=44\n",
      "note_on channel=3 note=70 velocity=110 time=0\n",
      "note_on channel=3 note=58 velocity=110 time=0\n",
      "note_off channel=3 note=82 velocity=110 time=1436\n",
      "note_off channel=3 note=70 velocity=110 time=0\n",
      "note_off channel=3 note=58 velocity=110 time=0\n",
      "note_on channel=3 note=48 velocity=110 time=4\n",
      "note_on channel=3 note=60 velocity=110 time=0\n",
      "note_on channel=3 note=72 velocity=110 time=0\n",
      "note_off channel=3 note=48 velocity=110 time=116\n",
      "note_off channel=3 note=60 velocity=110 time=0\n",
      "note_off channel=3 note=72 velocity=110 time=0\n",
      "note_on channel=3 note=51 velocity=110 time=44\n",
      "note_on channel=3 note=63 velocity=110 time=0\n",
      "note_on channel=3 note=75 velocity=110 time=0\n",
      "note_off channel=3 note=51 velocity=110 time=116\n",
      "note_off channel=3 note=63 velocity=110 time=0\n",
      "note_off channel=3 note=75 velocity=110 time=0\n",
      "note_on channel=3 note=54 velocity=110 time=44\n",
      "note_on channel=3 note=66 velocity=110 time=0\n",
      "note_on channel=3 note=78 velocity=110 time=0\n",
      "note_off channel=3 note=54 velocity=110 time=116\n",
      "note_off channel=3 note=66 velocity=110 time=0\n",
      "note_off channel=3 note=78 velocity=110 time=0\n",
      "note_on channel=3 note=58 velocity=110 time=44\n",
      "note_on channel=3 note=70 velocity=110 time=0\n",
      "note_on channel=3 note=82 velocity=110 time=0\n",
      "note_off channel=3 note=58 velocity=110 time=1916\n",
      "note_off channel=3 note=70 velocity=110 time=0\n",
      "note_off channel=3 note=82 velocity=110 time=0\n",
      "<meta message end_of_track time=1924>\n",
      "Track 5: French Horns\n",
      "<meta message track_name name='French Horns' time=0>\n",
      "<meta message channel_prefix channel=4 time=0>\n",
      "<meta message instrument_name name='French Horns' time=0>\n",
      "<meta message key_signature key='C' time=0>\n",
      "program_change channel=4 program=60 time=50\n",
      "control_change channel=4 control=7 value=100 time=5\n",
      "note_on channel=4 note=62 velocity=121 time=5705\n",
      "note_on channel=4 note=58 velocity=121 time=0\n",
      "note_on channel=4 note=65 velocity=121 time=0\n",
      "note_off channel=4 note=62 velocity=121 time=176\n",
      "note_off channel=4 note=58 velocity=121 time=0\n",
      "note_off channel=4 note=65 velocity=121 time=0\n",
      "note_on channel=4 note=58 velocity=90 time=144\n",
      "note_on channel=4 note=62 velocity=90 time=0\n",
      "note_on channel=4 note=65 velocity=90 time=0\n",
      "note_off channel=4 note=58 velocity=90 time=56\n",
      "note_off channel=4 note=62 velocity=90 time=0\n",
      "note_off channel=4 note=65 velocity=90 time=0\n",
      "note_on channel=4 note=62 velocity=91 time=24\n",
      "note_on channel=4 note=58 velocity=91 time=0\n",
      "note_on channel=4 note=65 velocity=91 time=0\n",
      "note_off channel=4 note=62 velocity=91 time=56\n",
      "note_off channel=4 note=58 velocity=91 time=0\n",
      "note_off channel=4 note=65 velocity=91 time=0\n",
      "note_on channel=4 note=62 velocity=110 time=24\n",
      "note_on channel=4 note=58 velocity=110 time=0\n",
      "note_on channel=4 note=65 velocity=110 time=0\n",
      "note_off channel=4 note=62 velocity=110 time=596\n",
      "note_off channel=4 note=58 velocity=110 time=0\n",
      "note_off channel=4 note=65 velocity=110 time=0\n",
      "note_on channel=4 note=59 velocity=110 time=44\n",
      "note_on channel=4 note=63 velocity=110 time=0\n",
      "note_on channel=4 note=66 velocity=110 time=0\n",
      "note_off channel=4 note=59 velocity=110 time=116\n",
      "note_off channel=4 note=63 velocity=110 time=0\n",
      "note_off channel=4 note=66 velocity=110 time=0\n",
      "note_on channel=4 note=58 velocity=110 time=44\n",
      "note_on channel=4 note=62 velocity=110 time=0\n",
      "note_on channel=4 note=65 velocity=110 time=0\n",
      "note_off channel=4 note=58 velocity=110 time=116\n",
      "note_off channel=4 note=62 velocity=110 time=0\n",
      "note_off channel=4 note=65 velocity=110 time=0\n",
      "note_on channel=4 note=59 velocity=110 time=44\n",
      "note_on channel=4 note=63 velocity=110 time=0\n",
      "note_on channel=4 note=66 velocity=110 time=0\n",
      "note_off channel=4 note=59 velocity=110 time=116\n",
      "note_off channel=4 note=63 velocity=110 time=0\n",
      "note_off channel=4 note=66 velocity=110 time=0\n",
      "note_on channel=4 note=58 velocity=110 time=44\n",
      "note_on channel=4 note=62 velocity=110 time=0\n",
      "note_on channel=4 note=65 velocity=110 time=0\n",
      "note_off channel=4 note=58 velocity=110 time=116\n",
      "note_off channel=4 note=62 velocity=110 time=0\n",
      "note_off channel=4 note=65 velocity=110 time=0\n",
      "note_on channel=4 note=59 velocity=110 time=44\n",
      "note_on channel=4 note=63 velocity=110 time=0\n",
      "note_on channel=4 note=66 velocity=110 time=0\n",
      "note_off channel=4 note=59 velocity=110 time=116\n",
      "note_off channel=4 note=63 velocity=110 time=0\n",
      "note_off channel=4 note=66 velocity=110 time=0\n",
      "note_on channel=4 note=62 velocity=123 time=44\n",
      "note_on channel=4 note=58 velocity=123 time=0\n",
      "note_on channel=4 note=65 velocity=123 time=0\n",
      "note_off channel=4 note=62 velocity=123 time=156\n",
      "note_off channel=4 note=58 velocity=123 time=0\n",
      "note_off channel=4 note=65 velocity=123 time=0\n",
      "note_on channel=4 note=58 velocity=91 time=164\n",
      "note_on channel=4 note=62 velocity=91 time=0\n",
      "note_on channel=4 note=65 velocity=91 time=0\n",
      "note_off channel=4 note=58 velocity=91 time=56\n",
      "note_off channel=4 note=62 velocity=91 time=0\n",
      "note_off channel=4 note=65 velocity=91 time=0\n",
      "note_on channel=4 note=58 velocity=91 time=24\n",
      "note_on channel=4 note=62 velocity=91 time=0\n",
      "note_on channel=4 note=65 velocity=91 time=0\n",
      "note_off channel=4 note=58 velocity=91 time=56\n",
      "note_off channel=4 note=62 velocity=91 time=0\n",
      "note_off channel=4 note=65 velocity=91 time=0\n",
      "note_on channel=4 note=58 velocity=110 time=24\n",
      "note_on channel=4 note=62 velocity=110 time=0\n",
      "note_on channel=4 note=65 velocity=110 time=0\n",
      "note_off channel=4 note=58 velocity=110 time=116\n",
      "note_off channel=4 note=62 velocity=110 time=0\n",
      "note_off channel=4 note=65 velocity=110 time=0\n",
      "note_on channel=4 note=58 velocity=110 time=44\n",
      "note_on channel=4 note=62 velocity=110 time=0\n",
      "note_on channel=4 note=65 velocity=110 time=0\n",
      "note_off channel=4 note=58 velocity=110 time=116\n",
      "note_off channel=4 note=62 velocity=110 time=0\n",
      "note_off channel=4 note=65 velocity=110 time=0\n",
      "note_on channel=4 note=58 velocity=110 time=44\n",
      "note_on channel=4 note=62 velocity=110 time=0\n",
      "note_on channel=4 note=65 velocity=110 time=0\n",
      "note_off channel=4 note=58 velocity=110 time=116\n",
      "note_off channel=4 note=62 velocity=110 time=0\n",
      "note_off channel=4 note=65 velocity=110 time=0\n",
      "note_on channel=4 note=58 velocity=110 time=44\n",
      "note_on channel=4 note=62 velocity=110 time=0\n",
      "note_on channel=4 note=65 velocity=110 time=0\n",
      "note_off channel=4 note=58 velocity=110 time=116\n",
      "note_off channel=4 note=62 velocity=110 time=0\n",
      "note_off channel=4 note=65 velocity=110 time=0\n",
      "note_on channel=4 note=58 velocity=110 time=44\n",
      "note_on channel=4 note=62 velocity=110 time=0\n",
      "note_on channel=4 note=65 velocity=110 time=0\n",
      "note_off channel=4 note=58 velocity=110 time=116\n",
      "note_off channel=4 note=62 velocity=110 time=0\n",
      "note_off channel=4 note=65 velocity=110 time=0\n",
      "note_on channel=4 note=58 velocity=110 time=44\n",
      "note_on channel=4 note=62 velocity=110 time=0\n",
      "note_on channel=4 note=65 velocity=110 time=0\n",
      "note_off channel=4 note=58 velocity=110 time=116\n",
      "note_off channel=4 note=62 velocity=110 time=0\n",
      "note_off channel=4 note=65 velocity=110 time=0\n",
      "note_on channel=4 note=58 velocity=110 time=44\n",
      "note_on channel=4 note=62 velocity=110 time=0\n",
      "note_on channel=4 note=65 velocity=110 time=0\n",
      "note_off channel=4 note=58 velocity=110 time=116\n",
      "note_off channel=4 note=62 velocity=110 time=0\n",
      "note_off channel=4 note=65 velocity=110 time=0\n",
      "note_on channel=4 note=58 velocity=110 time=44\n",
      "note_on channel=4 note=62 velocity=110 time=0\n",
      "note_off channel=4 note=58 velocity=110 time=116\n",
      "note_off channel=4 note=62 velocity=110 time=0\n",
      "note_on channel=4 note=58 velocity=110 time=44\n",
      "note_on channel=4 note=63 velocity=110 time=0\n",
      "note_off channel=4 note=58 velocity=110 time=116\n",
      "note_off channel=4 note=63 velocity=110 time=0\n",
      "note_on channel=4 note=58 velocity=120 time=44\n",
      "note_on channel=4 note=62 velocity=120 time=0\n",
      "note_on channel=4 note=65 velocity=120 time=0\n",
      "note_off channel=4 note=58 velocity=120 time=156\n",
      "note_off channel=4 note=62 velocity=120 time=0\n",
      "note_off channel=4 note=65 velocity=120 time=0\n",
      "note_on channel=4 note=58 velocity=91 time=164\n",
      "note_on channel=4 note=62 velocity=91 time=0\n",
      "note_on channel=4 note=65 velocity=91 time=0\n",
      "note_off channel=4 note=58 velocity=91 time=56\n",
      "note_off channel=4 note=62 velocity=91 time=0\n",
      "note_off channel=4 note=65 velocity=91 time=0\n",
      "note_on channel=4 note=65 velocity=91 time=24\n",
      "note_on channel=4 note=58 velocity=91 time=0\n",
      "note_on channel=4 note=62 velocity=91 time=0\n",
      "note_off channel=4 note=65 velocity=91 time=56\n",
      "note_off channel=4 note=58 velocity=91 time=0\n",
      "note_off channel=4 note=62 velocity=91 time=0\n",
      "note_on channel=4 note=58 velocity=110 time=24\n",
      "note_on channel=4 note=62 velocity=110 time=0\n",
      "note_on channel=4 note=65 velocity=110 time=0\n",
      "note_off channel=4 note=58 velocity=110 time=596\n",
      "note_off channel=4 note=62 velocity=110 time=0\n",
      "note_off channel=4 note=65 velocity=110 time=0\n",
      "note_on channel=4 note=63 velocity=120 time=1324\n",
      "note_on channel=4 note=55 velocity=120 time=0\n",
      "note_on channel=4 note=60 velocity=120 time=0\n",
      "note_off channel=4 note=63 velocity=120 time=156\n",
      "note_off channel=4 note=55 velocity=120 time=0\n",
      "note_off channel=4 note=60 velocity=120 time=0\n",
      "note_on channel=4 note=63 velocity=91 time=164\n",
      "note_on channel=4 note=60 velocity=91 time=0\n",
      "note_on channel=4 note=55 velocity=91 time=0\n",
      "note_off channel=4 note=63 velocity=91 time=56\n",
      "note_off channel=4 note=60 velocity=91 time=0\n",
      "note_off channel=4 note=55 velocity=91 time=0\n",
      "note_on channel=4 note=63 velocity=91 time=24\n",
      "note_on channel=4 note=55 velocity=91 time=0\n",
      "note_on channel=4 note=60 velocity=91 time=0\n",
      "note_off channel=4 note=63 velocity=91 time=56\n",
      "note_off channel=4 note=55 velocity=91 time=0\n",
      "note_off channel=4 note=60 velocity=91 time=0\n",
      "note_on channel=4 note=63 velocity=110 time=24\n",
      "note_on channel=4 note=55 velocity=110 time=0\n",
      "note_on channel=4 note=60 velocity=110 time=0\n",
      "note_off channel=4 note=63 velocity=110 time=476\n",
      "note_off channel=4 note=55 velocity=110 time=0\n",
      "note_off channel=4 note=60 velocity=110 time=0\n",
      "note_on channel=4 note=55 velocity=122 time=964\n",
      "note_on channel=4 note=58 velocity=122 time=0\n",
      "note_on channel=4 note=63 velocity=122 time=0\n",
      "note_off channel=4 note=55 velocity=122 time=156\n",
      "note_off channel=4 note=58 velocity=122 time=0\n",
      "note_off channel=4 note=63 velocity=122 time=0\n",
      "note_on channel=4 note=55 velocity=88 time=164\n",
      "note_on channel=4 note=58 velocity=88 time=0\n",
      "note_on channel=4 note=63 velocity=88 time=0\n",
      "note_off channel=4 note=55 velocity=88 time=56\n",
      "note_off channel=4 note=58 velocity=88 time=0\n",
      "note_off channel=4 note=63 velocity=88 time=0\n",
      "note_on channel=4 note=55 velocity=88 time=24\n",
      "note_on channel=4 note=58 velocity=88 time=0\n",
      "note_on channel=4 note=63 velocity=88 time=0\n",
      "note_off channel=4 note=55 velocity=88 time=56\n",
      "note_off channel=4 note=58 velocity=88 time=0\n",
      "note_off channel=4 note=63 velocity=88 time=0\n",
      "note_on channel=4 note=53 velocity=110 time=24\n",
      "note_on channel=4 note=63 velocity=110 time=0\n",
      "note_on channel=4 note=60 velocity=110 time=0\n",
      "note_on channel=4 note=57 velocity=110 time=0\n",
      "note_off channel=4 note=53 velocity=110 time=476\n",
      "note_off channel=4 note=63 velocity=110 time=0\n",
      "note_off channel=4 note=60 velocity=110 time=0\n",
      "note_off channel=4 note=57 velocity=110 time=0\n",
      "note_on channel=4 note=58 velocity=110 time=964\n",
      "note_on channel=4 note=62 velocity=110 time=0\n",
      "note_on channel=4 note=65 velocity=110 time=0\n",
      "note_off channel=4 note=58 velocity=110 time=116\n",
      "note_off channel=4 note=62 velocity=110 time=0\n",
      "note_off channel=4 note=65 velocity=110 time=0\n",
      "note_on channel=4 note=58 velocity=110 time=44\n",
      "note_on channel=4 note=53 velocity=110 time=0\n",
      "note_on channel=4 note=62 velocity=110 time=0\n",
      "note_off channel=4 note=58 velocity=110 time=116\n",
      "note_off channel=4 note=53 velocity=110 time=0\n",
      "note_off channel=4 note=62 velocity=110 time=0\n",
      "note_on channel=4 note=60 velocity=110 time=44\n",
      "note_on channel=4 note=57 velocity=110 time=0\n",
      "note_on channel=4 note=63 velocity=110 time=0\n",
      "note_off channel=4 note=60 velocity=110 time=116\n",
      "note_off channel=4 note=57 velocity=110 time=0\n",
      "note_off channel=4 note=63 velocity=110 time=0\n",
      "note_on channel=4 note=65 velocity=110 time=44\n",
      "note_on channel=4 note=58 velocity=110 time=0\n",
      "note_on channel=4 note=62 velocity=110 time=0\n",
      "note_off channel=4 note=65 velocity=110 time=956\n",
      "note_off channel=4 note=58 velocity=110 time=0\n",
      "note_off channel=4 note=62 velocity=110 time=0\n",
      "<meta message end_of_track time=1924>\n",
      "Track 6: Trombone\n",
      "<meta message track_name name='Trombone' time=0>\n",
      "<meta message channel_prefix channel=5 time=0>\n",
      "<meta message instrument_name name='Trombone' time=0>\n",
      "<meta message key_signature key='C' time=0>\n",
      "program_change channel=5 program=57 time=60\n",
      "control_change channel=5 control=7 value=100 time=5\n",
      "<meta message end_of_track time=19135>\n",
      "Track 7: Timpani\n",
      "<meta message track_name name='Timpani' time=0>\n",
      "<meta message channel_prefix channel=6 time=0>\n",
      "<meta message instrument_name name='Timpani' time=0>\n",
      "<meta message key_signature key='C' time=0>\n",
      "program_change channel=6 program=47 time=70\n",
      "control_change channel=6 control=7 value=100 time=5\n",
      "<meta message end_of_track time=19125>\n",
      "Track 8: Low Strings\n",
      "<meta message track_name name='Low Strings' time=0>\n",
      "<meta message channel_prefix channel=7 time=0>\n",
      "<meta message instrument_name name='Low Strings' time=0>\n",
      "<meta message key_signature key='C' time=0>\n",
      "program_change channel=7 program=48 time=80\n",
      "control_change channel=7 control=7 value=100 time=5\n",
      "<meta message end_of_track time=19115>\n",
      "Track 9: Piano\n",
      "<meta message track_name name='Piano' time=0>\n",
      "<meta message channel_prefix channel=8 time=0>\n",
      "<meta message instrument_name name='Piano' time=0>\n",
      "<meta message key_signature key='C' time=0>\n",
      "program_change channel=8 program=0 time=90\n",
      "control_change channel=8 control=7 value=100 time=5\n",
      "<meta message end_of_track time=19105>\n",
      "Track 10: Percussion\n",
      "<meta message track_name name='Percussion' time=0>\n",
      "<meta message channel_prefix channel=9 time=0>\n",
      "<meta message instrument_name name='Percussion' time=0>\n",
      "<meta message key_signature key='C' time=0>\n",
      "program_change channel=9 program=0 time=100\n",
      "control_change channel=9 control=7 value=100 time=5\n",
      "note_on channel=9 note=38 velocity=110 time=1635\n",
      "note_on channel=9 note=40 velocity=110 time=0\n",
      "note_off channel=9 note=38 velocity=110 time=56\n",
      "note_off channel=9 note=40 velocity=110 time=0\n",
      "note_on channel=9 note=38 velocity=110 time=4\n",
      "note_on channel=9 note=40 velocity=110 time=0\n",
      "note_off channel=9 note=38 velocity=110 time=56\n",
      "note_off channel=9 note=40 velocity=110 time=0\n",
      "note_on channel=9 note=40 velocity=110 time=4\n",
      "note_on channel=9 note=38 velocity=110 time=0\n",
      "note_on channel=9 note=38 velocity=110 time=60\n",
      "note_on channel=9 note=36 velocity=110 time=0\n",
      "note_on channel=9 note=35 velocity=110 time=0\n",
      "note_on channel=9 note=40 velocity=110 time=0\n",
      "note_on channel=9 note=42 velocity=110 time=0\n",
      "note_off channel=9 note=40 velocity=110 time=0\n",
      "note_off channel=9 note=38 velocity=110 time=0\n",
      "note_off channel=9 note=38 velocity=110 time=196\n",
      "note_off channel=9 note=36 velocity=110 time=0\n",
      "note_off channel=9 note=35 velocity=110 time=0\n",
      "note_off channel=9 note=40 velocity=110 time=0\n",
      "note_off channel=9 note=42 velocity=110 time=0\n",
      "note_on channel=9 note=36 velocity=110 time=44\n",
      "note_on channel=9 note=40 velocity=110 time=0\n",
      "note_on channel=9 note=35 velocity=110 time=0\n",
      "note_on channel=9 note=42 velocity=110 time=0\n",
      "note_on channel=9 note=38 velocity=110 time=0\n",
      "note_off channel=9 note=36 velocity=110 time=196\n",
      "note_off channel=9 note=40 velocity=110 time=0\n",
      "note_off channel=9 note=35 velocity=110 time=0\n",
      "note_off channel=9 note=42 velocity=110 time=0\n",
      "note_off channel=9 note=38 velocity=110 time=0\n",
      "control_change channel=9 control=7 value=60 time=344\n",
      "note_on channel=9 note=40 velocity=110 time=0\n",
      "note_on channel=9 note=38 velocity=110 time=0\n",
      "control_change channel=9 control=7 value=61 time=4\n",
      "control_change channel=9 control=7 value=62 time=4\n",
      "control_change channel=9 control=7 value=63 time=4\n",
      "control_change channel=9 control=7 value=64 time=4\n",
      "control_change channel=9 control=7 value=65 time=4\n",
      "control_change channel=9 control=7 value=66 time=4\n",
      "control_change channel=9 control=7 value=67 time=4\n",
      "control_change channel=9 control=7 value=68 time=4\n",
      "control_change channel=9 control=7 value=69 time=4\n",
      "control_change channel=9 control=7 value=70 time=8\n",
      "control_change channel=9 control=7 value=71 time=4\n",
      "control_change channel=9 control=7 value=72 time=4\n",
      "control_change channel=9 control=7 value=73 time=4\n",
      "note_off channel=9 note=40 velocity=110 time=0\n",
      "note_off channel=9 note=38 velocity=110 time=0\n",
      "control_change channel=9 control=7 value=74 time=4\n",
      "note_on channel=9 note=40 velocity=110 time=0\n",
      "note_on channel=9 note=38 velocity=110 time=0\n",
      "control_change channel=9 control=7 value=75 time=4\n",
      "control_change channel=9 control=7 value=76 time=4\n",
      "control_change channel=9 control=7 value=77 time=4\n",
      "control_change channel=9 control=7 value=78 time=4\n",
      "control_change channel=9 control=7 value=79 time=4\n",
      "control_change channel=9 control=7 value=80 time=8\n",
      "control_change channel=9 control=7 value=81 time=4\n",
      "control_change channel=9 control=7 value=82 time=4\n",
      "control_change channel=9 control=7 value=83 time=4\n",
      "control_change channel=9 control=7 value=84 time=4\n",
      "control_change channel=9 control=7 value=85 time=4\n",
      "control_change channel=9 control=7 value=86 time=4\n",
      "control_change channel=9 control=7 value=87 time=4\n",
      "note_off channel=9 note=40 velocity=110 time=0\n",
      "note_off channel=9 note=38 velocity=110 time=0\n",
      "control_change channel=9 control=7 value=88 time=4\n",
      "note_on channel=9 note=40 velocity=110 time=0\n",
      "note_on channel=9 note=38 velocity=110 time=0\n",
      "control_change channel=9 control=7 value=89 time=4\n",
      "control_change channel=9 control=7 value=90 time=8\n",
      "control_change channel=9 control=7 value=91 time=4\n",
      "control_change channel=9 control=7 value=92 time=4\n",
      "control_change channel=9 control=7 value=93 time=4\n",
      "control_change channel=9 control=7 value=94 time=4\n",
      "control_change channel=9 control=7 value=95 time=4\n",
      "control_change channel=9 control=7 value=96 time=4\n",
      "control_change channel=9 control=7 value=97 time=4\n",
      "control_change channel=9 control=7 value=98 time=4\n",
      "control_change channel=9 control=7 value=99 time=4\n",
      "control_change channel=9 control=7 value=100 time=8\n",
      "note_off channel=9 note=40 velocity=110 time=0\n",
      "note_off channel=9 note=38 velocity=110 time=0\n",
      "note_on channel=9 note=38 velocity=110 time=4\n",
      "note_on channel=9 note=40 velocity=110 time=0\n",
      "note_on channel=9 note=35 velocity=110 time=0\n",
      "note_on channel=9 note=42 velocity=110 time=0\n",
      "note_on channel=9 note=36 velocity=110 time=0\n",
      "note_off channel=9 note=38 velocity=110 time=196\n",
      "note_off channel=9 note=40 velocity=110 time=0\n",
      "note_off channel=9 note=35 velocity=110 time=0\n",
      "note_off channel=9 note=42 velocity=110 time=0\n",
      "note_off channel=9 note=36 velocity=110 time=0\n",
      "note_on channel=9 note=36 velocity=110 time=44\n",
      "note_on channel=9 note=40 velocity=110 time=0\n",
      "note_on channel=9 note=35 velocity=110 time=0\n",
      "note_on channel=9 note=42 velocity=110 time=0\n",
      "note_on channel=9 note=38 velocity=110 time=0\n",
      "note_off channel=9 note=36 velocity=110 time=196\n",
      "note_off channel=9 note=40 velocity=110 time=0\n",
      "note_off channel=9 note=35 velocity=110 time=0\n",
      "note_off channel=9 note=42 velocity=110 time=0\n",
      "note_off channel=9 note=38 velocity=110 time=0\n",
      "control_change channel=9 control=7 value=100 time=524\n",
      "note_on channel=9 note=36 velocity=110 time=0\n",
      "note_on channel=9 note=42 velocity=110 time=0\n",
      "note_on channel=9 note=35 velocity=110 time=0\n",
      "note_on channel=9 note=40 velocity=110 time=0\n",
      "note_on channel=9 note=38 velocity=110 time=0\n",
      "control_change channel=9 control=7 value=99 time=4\n",
      "control_change channel=9 control=7 value=98 time=4\n",
      "control_change channel=9 control=7 value=97 time=8\n",
      "control_change channel=9 control=7 value=96 time=4\n",
      "control_change channel=9 control=7 value=95 time=8\n",
      "control_change channel=9 control=7 value=94 time=4\n",
      "control_change channel=9 control=7 value=93 time=8\n",
      "control_change channel=9 control=7 value=92 time=4\n",
      "control_change channel=9 control=7 value=91 time=8\n",
      "control_change channel=9 control=7 value=90 time=4\n",
      "note_off channel=9 note=40 velocity=110 time=0\n",
      "note_off channel=9 note=38 velocity=110 time=0\n",
      "note_on channel=9 note=40 velocity=110 time=4\n",
      "note_on channel=9 note=38 velocity=110 time=0\n",
      "control_change channel=9 control=7 value=89 time=4\n",
      "control_change channel=9 control=7 value=88 time=4\n",
      "control_change channel=9 control=7 value=87 time=8\n",
      "control_change channel=9 control=7 value=86 time=4\n",
      "control_change channel=9 control=7 value=85 time=8\n",
      "control_change channel=9 control=7 value=84 time=4\n",
      "control_change channel=9 control=7 value=83 time=8\n",
      "control_change channel=9 control=7 value=82 time=4\n",
      "control_change channel=9 control=7 value=81 time=8\n",
      "control_change channel=9 control=7 value=80 time=4\n",
      "note_off channel=9 note=40 velocity=110 time=0\n",
      "note_off channel=9 note=38 velocity=110 time=0\n",
      "control_change channel=9 control=7 value=79 time=4\n",
      "note_on channel=9 note=40 velocity=110 time=0\n",
      "note_on channel=9 note=38 velocity=110 time=0\n",
      "control_change channel=9 control=7 value=78 time=8\n",
      "control_change channel=9 control=7 value=77 time=4\n",
      "control_change channel=9 control=7 value=76 time=8\n",
      "control_change channel=9 control=7 value=75 time=4\n",
      "control_change channel=9 control=7 value=74 time=8\n",
      "control_change channel=9 control=7 value=73 time=4\n",
      "control_change channel=9 control=7 value=72 time=8\n",
      "control_change channel=9 control=7 value=71 time=4\n",
      "control_change channel=9 control=7 value=70 time=8\n",
      "note_off channel=9 note=40 velocity=110 time=0\n",
      "note_off channel=9 note=38 velocity=110 time=0\n",
      "control_change channel=9 control=7 value=69 time=4\n",
      "note_on channel=9 note=38 velocity=110 time=0\n",
      "note_on channel=9 note=40 velocity=110 time=0\n",
      "control_change channel=9 control=7 value=68 time=8\n",
      "control_change channel=9 control=7 value=67 time=4\n",
      "note_off channel=9 note=36 velocity=110 time=4\n",
      "note_off channel=9 note=42 velocity=110 time=0\n",
      "note_off channel=9 note=35 velocity=110 time=0\n",
      "control_change channel=9 control=7 value=66 time=4\n",
      "control_change channel=9 control=7 value=65 time=4\n",
      "control_change channel=9 control=7 value=64 time=8\n",
      "control_change channel=9 control=7 value=63 time=4\n",
      "control_change channel=9 control=7 value=62 time=8\n",
      "control_change channel=9 control=7 value=61 time=4\n",
      "control_change channel=9 control=7 value=60 time=8\n",
      "note_off channel=9 note=38 velocity=110 time=0\n",
      "note_off channel=9 note=40 velocity=110 time=0\n",
      "note_on channel=9 note=40 velocity=110 time=4\n",
      "note_on channel=9 note=38 velocity=110 time=0\n",
      "note_off channel=9 note=40 velocity=110 time=56\n",
      "note_off channel=9 note=38 velocity=110 time=0\n",
      "note_on channel=9 note=40 velocity=110 time=4\n",
      "note_on channel=9 note=38 velocity=110 time=0\n",
      "note_off channel=9 note=40 velocity=110 time=56\n",
      "note_off channel=9 note=38 velocity=110 time=0\n",
      "note_on channel=9 note=40 velocity=110 time=4\n",
      "note_on channel=9 note=38 velocity=110 time=0\n",
      "note_off channel=9 note=40 velocity=110 time=56\n",
      "note_off channel=9 note=38 velocity=110 time=0\n",
      "note_on channel=9 note=40 velocity=110 time=4\n",
      "note_on channel=9 note=38 velocity=110 time=0\n",
      "note_off channel=9 note=40 velocity=110 time=56\n",
      "note_off channel=9 note=38 velocity=110 time=0\n",
      "note_on channel=9 note=40 velocity=110 time=4\n",
      "note_on channel=9 note=38 velocity=110 time=0\n",
      "note_off channel=9 note=40 velocity=110 time=56\n",
      "note_off channel=9 note=38 velocity=110 time=0\n",
      "note_on channel=9 note=40 velocity=110 time=4\n",
      "note_on channel=9 note=38 velocity=110 time=0\n",
      "note_off channel=9 note=40 velocity=110 time=56\n",
      "note_off channel=9 note=38 velocity=110 time=0\n",
      "note_on channel=9 note=40 velocity=110 time=4\n",
      "note_on channel=9 note=38 velocity=110 time=0\n",
      "note_off channel=9 note=40 velocity=110 time=56\n",
      "note_off channel=9 note=38 velocity=110 time=0\n",
      "note_on channel=9 note=40 velocity=110 time=4\n",
      "note_on channel=9 note=38 velocity=110 time=0\n",
      "note_off channel=9 note=40 velocity=110 time=56\n",
      "note_off channel=9 note=38 velocity=110 time=0\n",
      "control_change channel=9 control=7 value=60 time=4\n",
      "note_on channel=9 note=40 velocity=110 time=0\n",
      "note_on channel=9 note=38 velocity=110 time=0\n",
      "control_change channel=9 control=7 value=61 time=4\n",
      "control_change channel=9 control=7 value=62 time=4\n",
      "control_change channel=9 control=7 value=63 time=8\n",
      "control_change channel=9 control=7 value=64 time=4\n",
      "control_change channel=9 control=7 value=65 time=8\n",
      "control_change channel=9 control=7 value=66 time=4\n",
      "control_change channel=9 control=7 value=67 time=8\n",
      "control_change channel=9 control=7 value=68 time=4\n",
      "control_change channel=9 control=7 value=69 time=8\n",
      "control_change channel=9 control=7 value=70 time=4\n",
      "note_off channel=9 note=40 velocity=110 time=0\n",
      "note_off channel=9 note=38 velocity=110 time=0\n",
      "note_on channel=9 note=40 velocity=110 time=4\n",
      "note_on channel=9 note=38 velocity=110 time=0\n",
      "control_change channel=9 control=7 value=71 time=4\n",
      "control_change channel=9 control=7 value=72 time=4\n",
      "control_change channel=9 control=7 value=73 time=8\n",
      "control_change channel=9 control=7 value=74 time=4\n",
      "control_change channel=9 control=7 value=75 time=8\n",
      "control_change channel=9 control=7 value=76 time=4\n",
      "control_change channel=9 control=7 value=77 time=8\n",
      "control_change channel=9 control=7 value=78 time=4\n",
      "control_change channel=9 control=7 value=79 time=8\n",
      "control_change channel=9 control=7 value=80 time=4\n",
      "note_off channel=9 note=40 velocity=110 time=0\n",
      "note_off channel=9 note=38 velocity=110 time=0\n",
      "control_change channel=9 control=7 value=81 time=4\n",
      "note_on channel=9 note=40 velocity=110 time=0\n",
      "note_on channel=9 note=38 velocity=110 time=0\n",
      "control_change channel=9 control=7 value=82 time=8\n",
      "control_change channel=9 control=7 value=83 time=4\n",
      "control_change channel=9 control=7 value=84 time=8\n",
      "control_change channel=9 control=7 value=85 time=4\n",
      "control_change channel=9 control=7 value=86 time=8\n",
      "control_change channel=9 control=7 value=87 time=4\n",
      "control_change channel=9 control=7 value=88 time=8\n",
      "control_change channel=9 control=7 value=89 time=4\n",
      "control_change channel=9 control=7 value=90 time=8\n",
      "note_off channel=9 note=40 velocity=110 time=0\n",
      "note_off channel=9 note=38 velocity=110 time=0\n",
      "control_change channel=9 control=7 value=91 time=4\n",
      "note_on channel=9 note=40 velocity=110 time=0\n",
      "note_on channel=9 note=38 velocity=110 time=0\n",
      "control_change channel=9 control=7 value=92 time=8\n",
      "control_change channel=9 control=7 value=93 time=4\n",
      "control_change channel=9 control=7 value=94 time=8\n",
      "control_change channel=9 control=7 value=95 time=4\n",
      "control_change channel=9 control=7 value=96 time=8\n",
      "control_change channel=9 control=7 value=97 time=4\n",
      "control_change channel=9 control=7 value=98 time=8\n",
      "control_change channel=9 control=7 value=99 time=4\n",
      "control_change channel=9 control=7 value=100 time=8\n",
      "note_off channel=9 note=40 velocity=110 time=0\n",
      "note_off channel=9 note=38 velocity=110 time=0\n",
      "note_on channel=9 note=36 velocity=110 time=4\n",
      "note_on channel=9 note=40 velocity=110 time=0\n",
      "note_on channel=9 note=35 velocity=110 time=0\n",
      "note_on channel=9 note=42 velocity=110 time=0\n",
      "note_on channel=9 note=38 velocity=110 time=0\n",
      "note_off channel=9 note=36 velocity=110 time=196\n",
      "note_off channel=9 note=40 velocity=110 time=0\n",
      "note_off channel=9 note=35 velocity=110 time=0\n",
      "note_off channel=9 note=42 velocity=110 time=0\n",
      "note_off channel=9 note=38 velocity=110 time=0\n",
      "note_on channel=9 note=38 velocity=110 time=44\n",
      "note_on channel=9 note=40 velocity=110 time=0\n",
      "note_on channel=9 note=35 velocity=110 time=0\n",
      "note_on channel=9 note=42 velocity=110 time=0\n",
      "note_on channel=9 note=36 velocity=110 time=0\n",
      "note_off channel=9 note=38 velocity=110 time=196\n",
      "note_off channel=9 note=40 velocity=110 time=0\n",
      "note_off channel=9 note=35 velocity=110 time=0\n",
      "note_off channel=9 note=42 velocity=110 time=0\n",
      "note_off channel=9 note=36 velocity=110 time=0\n",
      "control_change channel=9 control=7 value=80 time=252\n",
      "note_on channel=9 note=40 velocity=110 time=272\n",
      "note_on channel=9 note=38 velocity=110 time=0\n",
      "note_off channel=9 note=40 velocity=110 time=196\n",
      "note_off channel=9 note=38 velocity=110 time=0\n",
      "note_on channel=9 note=40 velocity=93 time=124\n",
      "note_on channel=9 note=38 velocity=93 time=0\n",
      "note_off channel=9 note=40 velocity=93 time=56\n",
      "note_off channel=9 note=38 velocity=93 time=0\n",
      "note_on channel=9 note=40 velocity=93 time=24\n",
      "note_on channel=9 note=38 velocity=93 time=0\n",
      "note_off channel=9 note=40 velocity=93 time=56\n",
      "note_off channel=9 note=38 velocity=93 time=0\n",
      "note_on channel=9 note=40 velocity=110 time=24\n",
      "note_on channel=9 note=38 velocity=110 time=0\n",
      "note_off channel=9 note=40 velocity=110 time=196\n",
      "note_off channel=9 note=38 velocity=110 time=0\n",
      "note_on channel=9 note=40 velocity=92 time=444\n",
      "note_on channel=9 note=38 velocity=92 time=0\n",
      "note_off channel=9 note=40 velocity=92 time=116\n",
      "note_off channel=9 note=38 velocity=92 time=0\n",
      "note_on channel=9 note=40 velocity=93 time=44\n",
      "note_on channel=9 note=38 velocity=93 time=0\n",
      "note_off channel=9 note=40 velocity=93 time=116\n",
      "note_off channel=9 note=38 velocity=93 time=0\n",
      "note_on channel=9 note=40 velocity=93 time=44\n",
      "note_on channel=9 note=38 velocity=93 time=0\n",
      "note_off channel=9 note=40 velocity=93 time=116\n",
      "note_off channel=9 note=38 velocity=93 time=0\n",
      "note_on channel=9 note=40 velocity=93 time=44\n",
      "note_on channel=9 note=38 velocity=93 time=0\n",
      "note_off channel=9 note=40 velocity=93 time=116\n",
      "note_off channel=9 note=38 velocity=93 time=0\n",
      "note_on channel=9 note=40 velocity=89 time=44\n",
      "note_on channel=9 note=38 velocity=89 time=0\n",
      "note_off channel=9 note=40 velocity=89 time=116\n",
      "note_off channel=9 note=38 velocity=89 time=0\n",
      "note_on channel=9 note=40 velocity=110 time=44\n",
      "note_on channel=9 note=38 velocity=110 time=0\n",
      "note_off channel=9 note=40 velocity=110 time=196\n",
      "note_off channel=9 note=38 velocity=110 time=0\n",
      "note_on channel=9 note=40 velocity=93 time=124\n",
      "note_on channel=9 note=38 velocity=93 time=0\n",
      "note_off channel=9 note=40 velocity=93 time=56\n",
      "note_off channel=9 note=38 velocity=93 time=0\n",
      "note_on channel=9 note=40 velocity=93 time=24\n",
      "note_on channel=9 note=38 velocity=93 time=0\n",
      "note_off channel=9 note=40 velocity=93 time=56\n",
      "note_off channel=9 note=38 velocity=93 time=0\n",
      "note_on channel=9 note=40 velocity=91 time=24\n",
      "note_on channel=9 note=38 velocity=91 time=0\n",
      "note_off channel=9 note=40 velocity=91 time=116\n",
      "note_off channel=9 note=38 velocity=91 time=0\n",
      "note_on channel=9 note=40 velocity=88 time=44\n",
      "note_on channel=9 note=38 velocity=88 time=0\n",
      "note_off channel=9 note=40 velocity=88 time=116\n",
      "note_off channel=9 note=38 velocity=88 time=0\n",
      "note_on channel=9 note=40 velocity=90 time=44\n",
      "note_on channel=9 note=38 velocity=90 time=0\n",
      "note_off channel=9 note=40 velocity=90 time=116\n",
      "note_off channel=9 note=38 velocity=90 time=0\n",
      "note_on channel=9 note=40 velocity=90 time=44\n",
      "note_on channel=9 note=38 velocity=90 time=0\n",
      "note_off channel=9 note=40 velocity=90 time=116\n",
      "note_off channel=9 note=38 velocity=90 time=0\n",
      "note_on channel=9 note=40 velocity=88 time=44\n",
      "note_on channel=9 note=38 velocity=88 time=0\n",
      "note_off channel=9 note=40 velocity=88 time=116\n",
      "note_off channel=9 note=38 velocity=88 time=0\n",
      "note_on channel=9 note=40 velocity=89 time=44\n",
      "note_on channel=9 note=38 velocity=89 time=0\n",
      "note_off channel=9 note=40 velocity=89 time=116\n",
      "note_off channel=9 note=38 velocity=89 time=0\n",
      "note_on channel=9 note=40 velocity=91 time=44\n",
      "note_on channel=9 note=38 velocity=91 time=0\n",
      "note_off channel=9 note=40 velocity=91 time=116\n",
      "note_off channel=9 note=38 velocity=91 time=0\n",
      "note_on channel=9 note=40 velocity=89 time=44\n",
      "note_on channel=9 note=38 velocity=89 time=0\n",
      "note_off channel=9 note=40 velocity=89 time=116\n",
      "note_off channel=9 note=38 velocity=89 time=0\n",
      "note_on channel=9 note=40 velocity=89 time=44\n",
      "note_on channel=9 note=38 velocity=89 time=0\n",
      "note_off channel=9 note=40 velocity=89 time=116\n",
      "note_off channel=9 note=38 velocity=89 time=0\n",
      "note_on channel=9 note=40 velocity=108 time=44\n",
      "note_on channel=9 note=38 velocity=108 time=0\n",
      "note_off channel=9 note=40 velocity=108 time=196\n",
      "note_off channel=9 note=38 velocity=108 time=0\n",
      "note_on channel=9 note=40 velocity=91 time=124\n",
      "note_on channel=9 note=38 velocity=91 time=0\n",
      "note_off channel=9 note=40 velocity=91 time=36\n",
      "note_off channel=9 note=38 velocity=91 time=0\n",
      "note_on channel=9 note=38 velocity=91 time=44\n",
      "note_on channel=9 note=40 velocity=91 time=0\n",
      "note_off channel=9 note=40 velocity=91 time=36\n",
      "note_off channel=9 note=38 velocity=91 time=20\n",
      "control_change channel=9 control=7 value=60 time=24\n",
      "note_on channel=9 note=36 velocity=110 time=0\n",
      "note_on channel=9 note=35 velocity=110 time=0\n",
      "note_on channel=9 note=40 velocity=110 time=0\n",
      "note_on channel=9 note=38 velocity=110 time=0\n",
      "control_change channel=9 control=7 value=61 time=8\n",
      "control_change channel=9 control=7 value=62 time=12\n",
      "control_change channel=9 control=7 value=63 time=12\n",
      "note_off channel=9 note=40 velocity=110 time=4\n",
      "note_off channel=9 note=38 velocity=110 time=0\n",
      "control_change channel=9 control=7 value=64 time=8\n",
      "control_change channel=9 control=7 value=65 time=12\n",
      "note_on channel=9 note=40 velocity=110 time=4\n",
      "note_on channel=9 note=38 velocity=110 time=0\n",
      "control_change channel=9 control=7 value=66 time=8\n",
      "control_change channel=9 control=7 value=67 time=12\n",
      "control_change channel=9 control=7 value=68 time=12\n",
      "note_off channel=9 note=40 velocity=110 time=4\n",
      "note_off channel=9 note=38 velocity=110 time=0\n",
      "control_change channel=9 control=7 value=69 time=8\n",
      "control_change channel=9 control=7 value=70 time=12\n",
      "note_on channel=9 note=40 velocity=110 time=4\n",
      "note_on channel=9 note=38 velocity=110 time=0\n",
      "control_change channel=9 control=7 value=71 time=8\n",
      "control_change channel=9 control=7 value=72 time=12\n",
      "control_change channel=9 control=7 value=73 time=12\n",
      "note_off channel=9 note=40 velocity=110 time=4\n",
      "note_off channel=9 note=38 velocity=110 time=0\n",
      "control_change channel=9 control=7 value=74 time=8\n",
      "control_change channel=9 control=7 value=75 time=12\n",
      "note_on channel=9 note=38 velocity=110 time=4\n",
      "note_on channel=9 note=40 velocity=110 time=0\n",
      "control_change channel=9 control=7 value=76 time=8\n",
      "note_off channel=9 note=36 velocity=110 time=8\n",
      "note_off channel=9 note=35 velocity=110 time=0\n",
      "control_change channel=9 control=7 value=77 time=4\n",
      "control_change channel=9 control=7 value=78 time=12\n",
      "note_off channel=9 note=38 velocity=110 time=4\n",
      "note_off channel=9 note=40 velocity=110 time=0\n",
      "control_change channel=9 control=7 value=79 time=8\n",
      "control_change channel=9 control=7 value=80 time=12\n",
      "note_on channel=9 note=40 velocity=110 time=4\n",
      "note_on channel=9 note=38 velocity=110 time=0\n",
      "control_change channel=9 control=7 value=81 time=8\n",
      "control_change channel=9 control=7 value=82 time=12\n",
      "control_change channel=9 control=7 value=83 time=12\n",
      "note_off channel=9 note=40 velocity=110 time=4\n",
      "note_off channel=9 note=38 velocity=110 time=0\n",
      "control_change channel=9 control=7 value=84 time=8\n",
      "control_change channel=9 control=7 value=85 time=12\n",
      "note_on channel=9 note=40 velocity=110 time=4\n",
      "note_on channel=9 note=38 velocity=110 time=0\n",
      "control_change channel=9 control=7 value=86 time=8\n",
      "control_change channel=9 control=7 value=87 time=12\n",
      "control_change channel=9 control=7 value=88 time=12\n",
      "note_off channel=9 note=40 velocity=110 time=4\n",
      "note_off channel=9 note=38 velocity=110 time=0\n",
      "control_change channel=9 control=7 value=89 time=8\n",
      "control_change channel=9 control=7 value=90 time=12\n",
      "note_on channel=9 note=40 velocity=110 time=4\n",
      "note_on channel=9 note=38 velocity=110 time=0\n",
      "control_change channel=9 control=7 value=91 time=8\n",
      "control_change channel=9 control=7 value=92 time=12\n",
      "control_change channel=9 control=7 value=93 time=12\n",
      "note_off channel=9 note=40 velocity=110 time=4\n",
      "note_off channel=9 note=38 velocity=110 time=0\n",
      "control_change channel=9 control=7 value=94 time=8\n",
      "control_change channel=9 control=7 value=95 time=12\n",
      "note_on channel=9 note=40 velocity=110 time=4\n",
      "note_on channel=9 note=38 velocity=110 time=0\n",
      "control_change channel=9 control=7 value=96 time=8\n",
      "control_change channel=9 control=7 value=97 time=12\n",
      "control_change channel=9 control=7 value=98 time=12\n",
      "note_off channel=9 note=40 velocity=110 time=4\n",
      "note_off channel=9 note=38 velocity=110 time=0\n",
      "control_change channel=9 control=7 value=99 time=8\n",
      "control_change channel=9 control=7 value=100 time=12\n",
      "note_on channel=9 note=36 velocity=110 time=4\n",
      "note_on channel=9 note=38 velocity=110 time=0\n",
      "note_on channel=9 note=40 velocity=110 time=0\n",
      "note_on channel=9 note=35 velocity=110 time=0\n",
      "note_on channel=9 note=49 velocity=110 time=0\n",
      "note_off channel=9 note=36 velocity=110 time=196\n",
      "note_off channel=9 note=38 velocity=110 time=0\n",
      "note_off channel=9 note=40 velocity=110 time=0\n",
      "note_off channel=9 note=35 velocity=110 time=0\n",
      "note_off channel=9 note=49 velocity=110 time=0\n",
      "control_change channel=9 control=7 value=80 time=1244\n",
      "note_on channel=9 note=38 velocity=110 time=0\n",
      "note_on channel=9 note=40 velocity=110 time=0\n",
      "note_off channel=9 note=38 velocity=110 time=196\n",
      "note_off channel=9 note=40 velocity=110 time=0\n",
      "note_on channel=9 note=38 velocity=92 time=124\n",
      "note_on channel=9 note=40 velocity=92 time=0\n",
      "note_off channel=9 note=38 velocity=92 time=36\n",
      "note_off channel=9 note=40 velocity=92 time=0\n",
      "note_on channel=9 note=38 velocity=91 time=44\n",
      "note_on channel=9 note=40 velocity=91 time=0\n",
      "note_off channel=9 note=38 velocity=91 time=36\n",
      "note_off channel=9 note=40 velocity=91 time=0\n",
      "control_change channel=9 control=7 value=80 time=44\n",
      "note_on channel=9 note=38 velocity=111 time=0\n",
      "note_on channel=9 note=40 velocity=111 time=0\n",
      "control_change channel=9 control=7 value=79 time=8\n",
      "control_change channel=9 control=7 value=78 time=8\n",
      "control_change channel=9 control=7 value=77 time=8\n",
      "control_change channel=9 control=7 value=76 time=8\n",
      "note_off channel=9 note=38 velocity=111 time=4\n",
      "note_off channel=9 note=40 velocity=111 time=0\n",
      "control_change channel=9 control=7 value=75 time=8\n",
      "control_change channel=9 control=7 value=74 time=8\n",
      "control_change channel=9 control=7 value=73 time=8\n",
      "note_on channel=9 note=38 velocity=108 time=0\n",
      "note_on channel=9 note=40 velocity=108 time=0\n",
      "control_change channel=9 control=7 value=72 time=8\n",
      "control_change channel=9 control=7 value=71 time=12\n",
      "control_change channel=9 control=7 value=70 time=8\n",
      "control_change channel=9 control=7 value=69 time=8\n",
      "note_off channel=9 note=38 velocity=108 time=0\n",
      "note_off channel=9 note=40 velocity=108 time=0\n",
      "control_change channel=9 control=7 value=68 time=8\n",
      "control_change channel=9 control=7 value=67 time=12\n",
      "note_on channel=9 note=38 velocity=105 time=4\n",
      "note_on channel=9 note=40 velocity=105 time=0\n",
      "control_change channel=9 control=7 value=66 time=4\n",
      "control_change channel=9 control=7 value=65 time=8\n",
      "control_change channel=9 control=7 value=64 time=8\n",
      "control_change channel=9 control=7 value=63 time=12\n",
      "note_off channel=9 note=38 velocity=105 time=4\n",
      "note_off channel=9 note=40 velocity=105 time=0\n",
      "control_change channel=9 control=7 value=62 time=4\n",
      "control_change channel=9 control=7 value=61 time=8\n",
      "control_change channel=9 control=7 value=60 time=8\n",
      "note_on channel=9 note=38 velocity=103 time=4\n",
      "note_on channel=9 note=40 velocity=103 time=0\n",
      "control_change channel=9 control=7 value=59 time=4\n",
      "control_change channel=9 control=7 value=58 time=12\n",
      "control_change channel=9 control=7 value=57 time=8\n",
      "control_change channel=9 control=7 value=56 time=8\n",
      "note_off channel=9 note=38 velocity=103 time=4\n",
      "note_off channel=9 note=40 velocity=103 time=0\n",
      "control_change channel=9 control=7 value=55 time=4\n",
      "control_change channel=9 control=7 value=54 time=12\n",
      "control_change channel=9 control=7 value=53 time=8\n",
      "note_on channel=9 note=38 velocity=100 time=0\n",
      "note_on channel=9 note=40 velocity=100 time=0\n",
      "control_change channel=9 control=7 value=52 time=8\n",
      "control_change channel=9 control=7 value=51 time=8\n",
      "control_change channel=9 control=7 value=50 time=12\n",
      "control_change channel=9 control=7 value=49 time=8\n",
      "note_off channel=9 note=38 velocity=100 time=0\n",
      "note_off channel=9 note=40 velocity=100 time=0\n",
      "control_change channel=9 control=7 value=48 time=8\n",
      "control_change channel=9 control=7 value=47 time=8\n",
      "note_on channel=9 note=38 velocity=97 time=8\n",
      "note_on channel=9 note=40 velocity=97 time=0\n",
      "control_change channel=9 control=7 value=46 time=4\n",
      "control_change channel=9 control=7 value=45 time=8\n",
      "control_change channel=9 control=7 value=44 time=8\n",
      "control_change channel=9 control=7 value=43 time=8\n",
      "note_off channel=9 note=38 velocity=97 time=8\n",
      "note_off channel=9 note=40 velocity=97 time=0\n",
      "control_change channel=9 control=7 value=42 time=4\n",
      "control_change channel=9 control=7 value=41 time=8\n",
      "control_change channel=9 control=7 value=40 time=8\n",
      "note_on channel=9 note=38 velocity=96 time=4\n",
      "note_on channel=9 note=40 velocity=96 time=0\n",
      "control_change channel=9 control=7 value=39 time=4\n",
      "control_change channel=9 control=7 value=38 time=8\n",
      "control_change channel=9 control=7 value=37 time=12\n",
      "control_change channel=9 control=7 value=36 time=8\n",
      "note_off channel=9 note=38 velocity=96 time=4\n",
      "note_off channel=9 note=40 velocity=96 time=0\n",
      "control_change channel=9 control=7 value=35 time=4\n",
      "control_change channel=9 control=7 value=34 time=8\n",
      "control_change channel=9 control=7 value=33 time=12\n",
      "note_on channel=9 note=40 velocity=94 time=0\n",
      "note_on channel=9 note=38 velocity=94 time=0\n",
      "control_change channel=9 control=7 value=32 time=8\n",
      "control_change channel=9 control=7 value=31 time=8\n",
      "control_change channel=9 control=7 value=30 time=8\n",
      "control_change channel=9 control=7 value=29 time=12\n",
      "note_off channel=9 note=38 velocity=94 time=0\n",
      "control_change channel=9 control=7 value=28 time=8\n",
      "control_change channel=9 control=7 value=27 time=8\n",
      "note_off channel=9 note=40 velocity=94 time=4\n",
      "control_change channel=9 control=7 value=60 time=4\n",
      "note_on channel=9 note=38 velocity=90 time=0\n",
      "note_on channel=9 note=40 velocity=90 time=0\n",
      "note_off channel=9 note=38 velocity=90 time=116\n",
      "note_off channel=9 note=40 velocity=90 time=0\n",
      "control_change channel=9 control=7 value=80 time=844\n",
      "note_on channel=9 note=38 velocity=111 time=0\n",
      "note_on channel=9 note=40 velocity=111 time=0\n",
      "note_off channel=9 note=38 velocity=111 time=196\n",
      "note_off channel=9 note=40 velocity=111 time=0\n",
      "note_on channel=9 note=38 velocity=91 time=124\n",
      "note_on channel=9 note=40 velocity=91 time=0\n",
      "note_off channel=9 note=38 velocity=91 time=36\n",
      "note_off channel=9 note=40 velocity=91 time=0\n",
      "note_on channel=9 note=38 velocity=91 time=44\n",
      "note_on channel=9 note=40 velocity=91 time=0\n",
      "note_off channel=9 note=38 velocity=91 time=36\n",
      "note_off channel=9 note=40 velocity=91 time=0\n",
      "control_change channel=9 control=7 value=80 time=44\n",
      "note_on channel=9 note=38 velocity=110 time=0\n",
      "note_on channel=9 note=40 velocity=110 time=0\n",
      "control_change channel=9 control=7 value=79 time=8\n",
      "control_change channel=9 control=7 value=78 time=8\n",
      "control_change channel=9 control=7 value=77 time=8\n",
      "control_change channel=9 control=7 value=76 time=8\n",
      "note_off channel=9 note=38 velocity=110 time=4\n",
      "note_off channel=9 note=40 velocity=110 time=0\n",
      "control_change channel=9 control=7 value=75 time=8\n",
      "control_change channel=9 control=7 value=74 time=8\n",
      "control_change channel=9 control=7 value=73 time=8\n",
      "note_on channel=9 note=38 velocity=108 time=0\n",
      "note_on channel=9 note=40 velocity=108 time=0\n",
      "control_change channel=9 control=7 value=72 time=8\n",
      "control_change channel=9 control=7 value=71 time=12\n",
      "control_change channel=9 control=7 value=70 time=8\n",
      "control_change channel=9 control=7 value=69 time=8\n",
      "note_off channel=9 note=38 velocity=108 time=0\n",
      "note_off channel=9 note=40 velocity=108 time=0\n",
      "control_change channel=9 control=7 value=68 time=8\n",
      "control_change channel=9 control=7 value=67 time=12\n",
      "note_on channel=9 note=38 velocity=104 time=4\n",
      "note_on channel=9 note=40 velocity=104 time=0\n",
      "control_change channel=9 control=7 value=66 time=4\n",
      "control_change channel=9 control=7 value=65 time=8\n",
      "control_change channel=9 control=7 value=64 time=8\n",
      "control_change channel=9 control=7 value=63 time=12\n",
      "note_off channel=9 note=38 velocity=104 time=4\n",
      "note_off channel=9 note=40 velocity=104 time=0\n",
      "control_change channel=9 control=7 value=62 time=4\n",
      "control_change channel=9 control=7 value=61 time=8\n",
      "control_change channel=9 control=7 value=60 time=8\n",
      "note_on channel=9 note=38 velocity=100 time=4\n",
      "note_on channel=9 note=40 velocity=100 time=0\n",
      "control_change channel=9 control=7 value=59 time=4\n",
      "control_change channel=9 control=7 value=58 time=12\n",
      "control_change channel=9 control=7 value=57 time=8\n",
      "control_change channel=9 control=7 value=56 time=8\n",
      "note_off channel=9 note=38 velocity=100 time=4\n",
      "note_off channel=9 note=40 velocity=100 time=0\n",
      "control_change channel=9 control=7 value=55 time=4\n",
      "control_change channel=9 control=7 value=54 time=12\n",
      "control_change channel=9 control=7 value=53 time=8\n",
      "note_on channel=9 note=40 velocity=98 time=0\n",
      "note_on channel=9 note=38 velocity=98 time=0\n",
      "control_change channel=9 control=7 value=52 time=8\n",
      "control_change channel=9 control=7 value=51 time=8\n",
      "control_change channel=9 control=7 value=50 time=12\n",
      "control_change channel=9 control=7 value=49 time=8\n",
      "note_off channel=9 note=40 velocity=98 time=0\n",
      "note_off channel=9 note=38 velocity=98 time=0\n",
      "control_change channel=9 control=7 value=48 time=8\n",
      "control_change channel=9 control=7 value=47 time=8\n",
      "note_on channel=9 note=38 velocity=95 time=8\n",
      "note_on channel=9 note=40 velocity=95 time=0\n",
      "control_change channel=9 control=7 value=46 time=4\n",
      "control_change channel=9 control=7 value=45 time=8\n",
      "control_change channel=9 control=7 value=44 time=8\n",
      "control_change channel=9 control=7 value=43 time=8\n",
      "note_off channel=9 note=38 velocity=95 time=8\n",
      "note_off channel=9 note=40 velocity=95 time=0\n",
      "control_change channel=9 control=7 value=42 time=4\n",
      "control_change channel=9 control=7 value=41 time=8\n",
      "control_change channel=9 control=7 value=40 time=8\n",
      "note_on channel=9 note=38 velocity=92 time=4\n",
      "note_on channel=9 note=40 velocity=92 time=0\n",
      "control_change channel=9 control=7 value=39 time=4\n",
      "control_change channel=9 control=7 value=38 time=8\n",
      "control_change channel=9 control=7 value=37 time=12\n",
      "control_change channel=9 control=7 value=36 time=8\n",
      "note_off channel=9 note=38 velocity=92 time=4\n",
      "note_off channel=9 note=40 velocity=92 time=0\n",
      "control_change channel=9 control=7 value=35 time=4\n",
      "control_change channel=9 control=7 value=34 time=8\n",
      "control_change channel=9 control=7 value=33 time=12\n",
      "note_on channel=9 note=40 velocity=91 time=0\n",
      "note_on channel=9 note=38 velocity=91 time=0\n",
      "control_change channel=9 control=7 value=32 time=8\n",
      "control_change channel=9 control=7 value=31 time=8\n",
      "control_change channel=9 control=7 value=30 time=8\n",
      "control_change channel=9 control=7 value=29 time=12\n",
      "note_off channel=9 note=38 velocity=91 time=0\n",
      "control_change channel=9 control=7 value=28 time=8\n",
      "control_change channel=9 control=7 value=27 time=8\n",
      "note_off channel=9 note=40 velocity=91 time=4\n",
      "control_change channel=9 control=7 value=60 time=4\n",
      "note_on channel=9 note=38 velocity=91 time=0\n",
      "note_on channel=9 note=40 velocity=91 time=0\n",
      "note_off channel=9 note=38 velocity=91 time=116\n",
      "note_off channel=9 note=40 velocity=91 time=0\n",
      "control_change channel=9 control=7 value=80 time=1324\n",
      "note_on channel=9 note=36 velocity=109 time=0\n",
      "note_on channel=9 note=35 velocity=109 time=0\n",
      "note_on channel=9 note=38 velocity=109 time=0\n",
      "note_on channel=9 note=40 velocity=109 time=0\n",
      "control_change channel=9 control=7 value=79 time=20\n",
      "note_off channel=9 note=40 velocity=109 time=16\n",
      "control_change channel=9 control=7 value=78 time=8\n",
      "note_off channel=9 note=38 velocity=109 time=12\n",
      "note_on channel=9 note=38 velocity=106 time=4\n",
      "note_on channel=9 note=40 velocity=106 time=0\n",
      "control_change channel=9 control=7 value=77 time=8\n",
      "control_change channel=9 control=7 value=76 time=24\n",
      "control_change channel=9 control=7 value=75 time=24\n",
      "note_off channel=9 note=38 velocity=106 time=0\n",
      "note_off channel=9 note=40 velocity=106 time=0\n",
      "note_on channel=9 note=38 velocity=102 time=4\n",
      "note_on channel=9 note=40 velocity=102 time=0\n",
      "control_change channel=9 control=7 value=74 time=20\n",
      "control_change channel=9 control=7 value=73 time=24\n",
      "note_off channel=9 note=36 velocity=109 time=12\n",
      "note_off channel=9 note=35 velocity=109 time=0\n",
      "note_off channel=9 note=38 velocity=102 time=0\n",
      "note_off channel=9 note=40 velocity=102 time=0\n",
      "note_on channel=9 note=38 velocity=101 time=4\n",
      "note_on channel=9 note=40 velocity=101 time=0\n",
      "control_change channel=9 control=7 value=72 time=8\n",
      "control_change channel=9 control=7 value=71 time=24\n",
      "control_change channel=9 control=7 value=70 time=24\n",
      "note_off channel=9 note=38 velocity=101 time=0\n",
      "note_off channel=9 note=40 velocity=101 time=0\n",
      "note_on channel=9 note=38 velocity=100 time=4\n",
      "note_on channel=9 note=40 velocity=100 time=0\n",
      "control_change channel=9 control=7 value=69 time=20\n",
      "control_change channel=9 control=7 value=68 time=24\n",
      "note_off channel=9 note=38 velocity=100 time=12\n",
      "note_off channel=9 note=40 velocity=100 time=0\n",
      "note_on channel=9 note=38 velocity=100 time=4\n",
      "note_on channel=9 note=40 velocity=100 time=0\n",
      "control_change channel=9 control=7 value=67 time=8\n",
      "control_change channel=9 control=7 value=66 time=24\n",
      "control_change channel=9 control=7 value=65 time=24\n",
      "note_off channel=9 note=38 velocity=100 time=0\n",
      "note_off channel=9 note=40 velocity=100 time=0\n",
      "note_on channel=9 note=38 velocity=98 time=4\n",
      "note_on channel=9 note=40 velocity=98 time=0\n",
      "control_change channel=9 control=7 value=64 time=20\n",
      "control_change channel=9 control=7 value=63 time=24\n",
      "note_off channel=9 note=38 velocity=98 time=12\n",
      "note_off channel=9 note=40 velocity=98 time=0\n",
      "note_on channel=9 note=38 velocity=98 time=4\n",
      "note_on channel=9 note=40 velocity=98 time=0\n",
      "control_change channel=9 control=7 value=62 time=8\n",
      "control_change channel=9 control=7 value=61 time=24\n",
      "control_change channel=9 control=7 value=60 time=24\n",
      "note_off channel=9 note=38 velocity=98 time=0\n",
      "note_off channel=9 note=40 velocity=98 time=0\n",
      "control_change channel=9 control=7 value=60 time=4\n",
      "note_on channel=9 note=38 velocity=97 time=0\n",
      "note_on channel=9 note=40 velocity=97 time=0\n",
      "control_change channel=9 control=7 value=59 time=20\n",
      "control_change channel=9 control=7 value=58 time=24\n",
      "note_off channel=9 note=38 velocity=97 time=12\n",
      "note_off channel=9 note=40 velocity=97 time=0\n",
      "note_on channel=9 note=38 velocity=97 time=4\n",
      "note_on channel=9 note=40 velocity=97 time=0\n",
      "control_change channel=9 control=7 value=57 time=8\n",
      "control_change channel=9 control=7 value=56 time=24\n",
      "control_change channel=9 control=7 value=55 time=24\n",
      "note_off channel=9 note=38 velocity=97 time=0\n",
      "note_off channel=9 note=40 velocity=97 time=0\n",
      "note_on channel=9 note=38 velocity=97 time=4\n",
      "note_on channel=9 note=40 velocity=97 time=0\n",
      "control_change channel=9 control=7 value=54 time=20\n",
      "control_change channel=9 control=7 value=53 time=24\n",
      "note_off channel=9 note=38 velocity=97 time=12\n",
      "note_off channel=9 note=40 velocity=97 time=0\n",
      "note_on channel=9 note=38 velocity=96 time=4\n",
      "note_on channel=9 note=40 velocity=96 time=0\n",
      "control_change channel=9 control=7 value=52 time=8\n",
      "control_change channel=9 control=7 value=51 time=24\n",
      "control_change channel=9 control=7 value=50 time=24\n",
      "note_off channel=9 note=38 velocity=96 time=0\n",
      "note_off channel=9 note=40 velocity=96 time=0\n",
      "note_on channel=9 note=38 velocity=94 time=4\n",
      "note_on channel=9 note=40 velocity=94 time=0\n",
      "control_change channel=9 control=7 value=49 time=20\n",
      "control_change channel=9 control=7 value=48 time=24\n",
      "note_off channel=9 note=38 velocity=94 time=12\n",
      "note_off channel=9 note=40 velocity=94 time=0\n",
      "note_on channel=9 note=38 velocity=92 time=4\n",
      "note_on channel=9 note=40 velocity=92 time=0\n",
      "control_change channel=9 control=7 value=47 time=8\n",
      "control_change channel=9 control=7 value=46 time=24\n",
      "control_change channel=9 control=7 value=45 time=24\n",
      "note_off channel=9 note=38 velocity=92 time=0\n",
      "note_off channel=9 note=40 velocity=92 time=0\n",
      "note_on channel=9 note=38 velocity=90 time=4\n",
      "note_on channel=9 note=40 velocity=90 time=0\n",
      "control_change channel=9 control=7 value=44 time=20\n",
      "control_change channel=9 control=7 value=43 time=24\n",
      "note_off channel=9 note=38 velocity=90 time=12\n",
      "note_off channel=9 note=40 velocity=90 time=0\n",
      "note_on channel=9 note=38 velocity=90 time=4\n",
      "note_on channel=9 note=40 velocity=90 time=0\n",
      "control_change channel=9 control=7 value=42 time=8\n",
      "control_change channel=9 control=7 value=41 time=24\n",
      "control_change channel=9 control=7 value=40 time=24\n",
      "note_on channel=9 note=38 velocity=91 time=4\n",
      "note_on channel=9 note=35 velocity=91 time=0\n",
      "note_on channel=9 note=46 velocity=91 time=0\n",
      "note_on channel=9 note=36 velocity=91 time=0\n",
      "note_on channel=9 note=40 velocity=91 time=0\n",
      "note_off channel=9 note=38 velocity=90 time=0\n",
      "note_off channel=9 note=40 velocity=90 time=0\n",
      "note_off channel=9 note=38 velocity=91 time=116\n",
      "note_off channel=9 note=35 velocity=91 time=0\n",
      "note_off channel=9 note=46 velocity=91 time=0\n",
      "note_off channel=9 note=36 velocity=91 time=0\n",
      "note_off channel=9 note=40 velocity=91 time=0\n",
      "<meta message end_of_track time=1804>\n",
      "Track 11: Harp\n",
      "<meta message track_name name='Harp' time=0>\n",
      "<meta message channel_prefix channel=10 time=0>\n",
      "<meta message instrument_name name='Harp' time=0>\n",
      "<meta message key_signature key='C' time=0>\n",
      "program_change channel=10 program=46 time=110\n",
      "control_change channel=10 control=7 value=100 time=5\n",
      "<meta message end_of_track time=19085>\n",
      "Track 12: Flute\n",
      "<meta message track_name name='Flute' time=0>\n",
      "<meta message channel_prefix channel=11 time=0>\n",
      "<meta message instrument_name name='Flute' time=0>\n",
      "<meta message key_signature key='C' time=0>\n",
      "program_change channel=11 program=73 time=120\n",
      "control_change channel=11 control=7 value=100 time=5\n",
      "<meta message end_of_track time=19075>\n"
     ]
    }
   ],
   "source": [
    "for i, track in enumerate(mid.tracks):\n",
    "    print('Track {}: {}'.format(i, track.name))\n",
    "    track_to_ndarray(track, ticks_per_beat)"
   ]
  },
  {
   "cell_type": "code",
   "execution_count": 8,
   "metadata": {
    "collapsed": false
   },
   "outputs": [
    {
     "name": "stdout",
     "output_type": "stream",
     "text": [
      "<meta message track_name name='20th Century Fox' time=0>\n",
      "<meta message time_signature numerator=2 denominator=4 clocks_per_click=24 notated_32nd_notes_per_beat=8 time=0>\n",
      "<meta message set_tempo tempo=480000 time=0>\n",
      "<meta message track_name name='Trumpet' time=0>\n",
      "<meta message channel_prefix channel=0 time=0>\n",
      "<meta message instrument_name name='Trumpet' time=0>\n",
      "<meta message key_signature key='C' time=0>\n",
      "<meta message track_name name='Trombone' time=0>\n",
      "<meta message channel_prefix channel=1 time=0>\n",
      "<meta message instrument_name name='Trombone' time=0>\n",
      "<meta message key_signature key='C' time=0>\n",
      "<meta message track_name name='Tuba' time=0>\n",
      "<meta message channel_prefix channel=2 time=0>\n",
      "<meta message instrument_name name='Tuba' time=0>\n",
      "<meta message key_signature key='C' time=0>\n",
      "<meta message track_name name='Strings' time=0>\n",
      "<meta message channel_prefix channel=3 time=0>\n",
      "<meta message instrument_name name='Strings' time=0>\n",
      "<meta message key_signature key='C' time=0>\n",
      "<meta message track_name name='French Horns' time=0>\n",
      "<meta message channel_prefix channel=4 time=0>\n",
      "<meta message instrument_name name='French Horns' time=0>\n",
      "<meta message key_signature key='C' time=0>\n",
      "<meta message track_name name='Trombone' time=0>\n",
      "<meta message channel_prefix channel=5 time=0>\n",
      "<meta message instrument_name name='Trombone' time=0>\n",
      "<meta message key_signature key='C' time=0>\n",
      "<meta message track_name name='Timpani' time=0>\n",
      "<meta message channel_prefix channel=6 time=0>\n",
      "<meta message instrument_name name='Timpani' time=0>\n",
      "<meta message key_signature key='C' time=0>\n",
      "<meta message track_name name='Low Strings' time=0>\n",
      "<meta message channel_prefix channel=7 time=0>\n",
      "<meta message instrument_name name='Low Strings' time=0>\n",
      "<meta message key_signature key='C' time=0>\n",
      "<meta message track_name name='Piano' time=0>\n",
      "<meta message channel_prefix channel=8 time=0>\n",
      "<meta message instrument_name name='Piano' time=0>\n",
      "<meta message key_signature key='C' time=0>\n",
      "<meta message track_name name='Percussion' time=0>\n",
      "<meta message channel_prefix channel=9 time=0>\n",
      "<meta message instrument_name name='Percussion' time=0>\n",
      "<meta message key_signature key='C' time=0>\n",
      "<meta message track_name name='Harp' time=0>\n",
      "<meta message channel_prefix channel=10 time=0>\n",
      "<meta message instrument_name name='Harp' time=0>\n",
      "<meta message key_signature key='C' time=0>\n",
      "<meta message track_name name='Flute' time=0>\n",
      "<meta message channel_prefix channel=11 time=0>\n",
      "<meta message instrument_name name='Flute' time=0>\n",
      "<meta message key_signature key='C' time=0>\n",
      "program_change channel=0 program=56 time=0.01\n",
      "control_change channel=0 control=7 value=100 time=0.005\n",
      "program_change channel=1 program=57 time=0.005\n",
      "control_change channel=1 control=7 value=100 time=0.005\n",
      "program_change channel=2 program=58 time=0.005\n",
      "control_change channel=2 control=7 value=100 time=0.005\n",
      "program_change channel=3 program=48 time=0.005\n",
      "control_change channel=3 control=7 value=100 time=0.005\n",
      "program_change channel=4 program=60 time=0.005\n",
      "control_change channel=4 control=7 value=100 time=0.005\n",
      "program_change channel=5 program=57 time=0.005\n",
      "control_change channel=5 control=7 value=100 time=0.005\n",
      "program_change channel=6 program=47 time=0.005\n",
      "control_change channel=6 control=7 value=100 time=0.005\n",
      "program_change channel=7 program=48 time=0.005\n",
      "control_change channel=7 control=7 value=100 time=0.005\n",
      "program_change channel=8 program=0 time=0.005\n",
      "control_change channel=8 control=7 value=100 time=0.005\n",
      "program_change channel=9 program=0 time=0.005\n",
      "control_change channel=9 control=7 value=100 time=0.005\n",
      "program_change channel=10 program=46 time=0.005\n",
      "control_change channel=10 control=7 value=100 time=0.005\n",
      "program_change channel=11 program=73 time=0.005\n",
      "control_change channel=11 control=7 value=100 time=0.005\n",
      "note_on channel=9 note=38 velocity=110 time=1.615\n",
      "note_on channel=9 note=40 velocity=110 time=0\n",
      "note_off channel=9 note=38 velocity=110 time=0.056\n",
      "note_off channel=9 note=40 velocity=110 time=0\n",
      "note_on channel=9 note=38 velocity=110 time=0.004\n",
      "note_on channel=9 note=40 velocity=110 time=0\n",
      "note_off channel=9 note=38 velocity=110 time=0.056\n",
      "note_off channel=9 note=40 velocity=110 time=0\n",
      "note_on channel=9 note=40 velocity=110 time=0.004\n",
      "note_on channel=9 note=38 velocity=110 time=0\n",
      "<meta message time_signature numerator=4 denominator=4 clocks_per_click=24 notated_32nd_notes_per_beat=8 time=0.06>\n",
      "note_on channel=9 note=38 velocity=110 time=0\n",
      "note_on channel=9 note=36 velocity=110 time=0\n",
      "note_on channel=9 note=35 velocity=110 time=0\n",
      "note_on channel=9 note=40 velocity=110 time=0\n",
      "note_on channel=9 note=42 velocity=110 time=0\n",
      "note_off channel=9 note=40 velocity=110 time=0\n",
      "note_off channel=9 note=38 velocity=110 time=0\n",
      "note_off channel=9 note=38 velocity=110 time=0.196\n",
      "note_off channel=9 note=36 velocity=110 time=0\n",
      "note_off channel=9 note=35 velocity=110 time=0\n",
      "note_off channel=9 note=40 velocity=110 time=0\n",
      "note_off channel=9 note=42 velocity=110 time=0\n",
      "note_on channel=9 note=36 velocity=110 time=0.044\n",
      "note_on channel=9 note=40 velocity=110 time=0\n",
      "note_on channel=9 note=35 velocity=110 time=0\n",
      "note_on channel=9 note=42 velocity=110 time=0\n",
      "note_on channel=9 note=38 velocity=110 time=0\n",
      "note_off channel=9 note=36 velocity=110 time=0.196\n",
      "note_off channel=9 note=40 velocity=110 time=0\n",
      "note_off channel=9 note=35 velocity=110 time=0\n",
      "note_off channel=9 note=42 velocity=110 time=0\n",
      "note_off channel=9 note=38 velocity=110 time=0\n",
      "control_change channel=9 control=7 value=60 time=0.34400000000000003\n",
      "note_on channel=9 note=40 velocity=110 time=0\n",
      "note_on channel=9 note=38 velocity=110 time=0\n",
      "control_change channel=9 control=7 value=61 time=0.004\n",
      "control_change channel=9 control=7 value=62 time=0.004\n",
      "control_change channel=9 control=7 value=63 time=0.004\n",
      "control_change channel=9 control=7 value=64 time=0.004\n",
      "control_change channel=9 control=7 value=65 time=0.004\n",
      "control_change channel=9 control=7 value=66 time=0.004\n",
      "control_change channel=9 control=7 value=67 time=0.004\n",
      "control_change channel=9 control=7 value=68 time=0.004\n",
      "control_change channel=9 control=7 value=69 time=0.004\n",
      "control_change channel=9 control=7 value=70 time=0.008\n",
      "control_change channel=9 control=7 value=71 time=0.004\n",
      "control_change channel=9 control=7 value=72 time=0.004\n",
      "control_change channel=9 control=7 value=73 time=0.004\n",
      "note_off channel=9 note=40 velocity=110 time=0\n",
      "note_off channel=9 note=38 velocity=110 time=0\n",
      "control_change channel=9 control=7 value=74 time=0.004\n",
      "note_on channel=9 note=40 velocity=110 time=0\n",
      "note_on channel=9 note=38 velocity=110 time=0\n",
      "control_change channel=9 control=7 value=75 time=0.004\n",
      "control_change channel=9 control=7 value=76 time=0.004\n",
      "control_change channel=9 control=7 value=77 time=0.004\n",
      "control_change channel=9 control=7 value=78 time=0.004\n",
      "control_change channel=9 control=7 value=79 time=0.004\n",
      "control_change channel=9 control=7 value=80 time=0.008\n",
      "control_change channel=9 control=7 value=81 time=0.004\n",
      "control_change channel=9 control=7 value=82 time=0.004\n",
      "control_change channel=9 control=7 value=83 time=0.004\n",
      "control_change channel=9 control=7 value=84 time=0.004\n",
      "control_change channel=9 control=7 value=85 time=0.004\n",
      "control_change channel=9 control=7 value=86 time=0.004\n",
      "control_change channel=9 control=7 value=87 time=0.004\n",
      "note_off channel=9 note=40 velocity=110 time=0\n",
      "note_off channel=9 note=38 velocity=110 time=0\n",
      "control_change channel=9 control=7 value=88 time=0.004\n",
      "note_on channel=9 note=40 velocity=110 time=0\n",
      "note_on channel=9 note=38 velocity=110 time=0\n",
      "control_change channel=9 control=7 value=89 time=0.004\n",
      "control_change channel=9 control=7 value=90 time=0.008\n",
      "control_change channel=9 control=7 value=91 time=0.004\n",
      "control_change channel=9 control=7 value=92 time=0.004\n",
      "control_change channel=9 control=7 value=93 time=0.004\n",
      "control_change channel=9 control=7 value=94 time=0.004\n",
      "control_change channel=9 control=7 value=95 time=0.004\n",
      "control_change channel=9 control=7 value=96 time=0.004\n",
      "control_change channel=9 control=7 value=97 time=0.004\n",
      "control_change channel=9 control=7 value=98 time=0.004\n",
      "control_change channel=9 control=7 value=99 time=0.004\n",
      "control_change channel=9 control=7 value=100 time=0.008\n",
      "note_off channel=9 note=40 velocity=110 time=0\n",
      "note_off channel=9 note=38 velocity=110 time=0\n",
      "note_on channel=9 note=38 velocity=110 time=0.004\n",
      "note_on channel=9 note=40 velocity=110 time=0\n",
      "note_on channel=9 note=35 velocity=110 time=0\n",
      "note_on channel=9 note=42 velocity=110 time=0\n",
      "note_on channel=9 note=36 velocity=110 time=0\n",
      "note_off channel=9 note=38 velocity=110 time=0.196\n",
      "note_off channel=9 note=40 velocity=110 time=0\n",
      "note_off channel=9 note=35 velocity=110 time=0\n",
      "note_off channel=9 note=42 velocity=110 time=0\n",
      "note_off channel=9 note=36 velocity=110 time=0\n",
      "note_on channel=9 note=36 velocity=110 time=0.044\n",
      "note_on channel=9 note=40 velocity=110 time=0\n",
      "note_on channel=9 note=35 velocity=110 time=0\n",
      "note_on channel=9 note=42 velocity=110 time=0\n",
      "note_on channel=9 note=38 velocity=110 time=0\n",
      "note_off channel=9 note=36 velocity=110 time=0.196\n",
      "note_off channel=9 note=40 velocity=110 time=0\n",
      "note_off channel=9 note=35 velocity=110 time=0\n",
      "note_off channel=9 note=42 velocity=110 time=0\n",
      "note_off channel=9 note=38 velocity=110 time=0\n",
      "control_change channel=9 control=7 value=100 time=0.524\n",
      "note_on channel=9 note=36 velocity=110 time=0\n",
      "note_on channel=9 note=42 velocity=110 time=0\n",
      "note_on channel=9 note=35 velocity=110 time=0\n",
      "note_on channel=9 note=40 velocity=110 time=0\n",
      "note_on channel=9 note=38 velocity=110 time=0\n",
      "control_change channel=9 control=7 value=99 time=0.004\n",
      "control_change channel=9 control=7 value=98 time=0.004\n",
      "control_change channel=9 control=7 value=97 time=0.008\n",
      "control_change channel=9 control=7 value=96 time=0.004\n",
      "control_change channel=9 control=7 value=95 time=0.008\n",
      "control_change channel=9 control=7 value=94 time=0.004\n",
      "control_change channel=9 control=7 value=93 time=0.008\n",
      "control_change channel=9 control=7 value=92 time=0.004\n",
      "control_change channel=9 control=7 value=91 time=0.008\n",
      "control_change channel=9 control=7 value=90 time=0.004\n",
      "note_off channel=9 note=40 velocity=110 time=0\n",
      "note_off channel=9 note=38 velocity=110 time=0\n",
      "note_on channel=9 note=40 velocity=110 time=0.004\n",
      "note_on channel=9 note=38 velocity=110 time=0\n",
      "control_change channel=9 control=7 value=89 time=0.004\n",
      "control_change channel=9 control=7 value=88 time=0.004\n",
      "control_change channel=9 control=7 value=87 time=0.008\n",
      "control_change channel=9 control=7 value=86 time=0.004\n",
      "control_change channel=9 control=7 value=85 time=0.008\n",
      "control_change channel=9 control=7 value=84 time=0.004\n",
      "control_change channel=9 control=7 value=83 time=0.008\n",
      "control_change channel=9 control=7 value=82 time=0.004\n",
      "control_change channel=9 control=7 value=81 time=0.008\n",
      "control_change channel=9 control=7 value=80 time=0.004\n",
      "note_off channel=9 note=40 velocity=110 time=0\n",
      "note_off channel=9 note=38 velocity=110 time=0\n",
      "control_change channel=9 control=7 value=79 time=0.004\n",
      "note_on channel=9 note=40 velocity=110 time=0\n",
      "note_on channel=9 note=38 velocity=110 time=0\n",
      "control_change channel=9 control=7 value=78 time=0.008\n",
      "control_change channel=9 control=7 value=77 time=0.004\n",
      "control_change channel=9 control=7 value=76 time=0.008\n",
      "control_change channel=9 control=7 value=75 time=0.004\n",
      "control_change channel=9 control=7 value=74 time=0.008\n",
      "control_change channel=9 control=7 value=73 time=0.004\n",
      "control_change channel=9 control=7 value=72 time=0.008\n",
      "control_change channel=9 control=7 value=71 time=0.004\n",
      "control_change channel=9 control=7 value=70 time=0.008\n",
      "note_off channel=9 note=40 velocity=110 time=0\n",
      "note_off channel=9 note=38 velocity=110 time=0\n",
      "control_change channel=9 control=7 value=69 time=0.004\n",
      "note_on channel=9 note=38 velocity=110 time=0\n",
      "note_on channel=9 note=40 velocity=110 time=0\n",
      "control_change channel=9 control=7 value=68 time=0.008\n",
      "control_change channel=9 control=7 value=67 time=0.004\n",
      "note_off channel=9 note=36 velocity=110 time=0.004\n",
      "note_off channel=9 note=42 velocity=110 time=0\n",
      "note_off channel=9 note=35 velocity=110 time=0\n",
      "control_change channel=9 control=7 value=66 time=0.004\n",
      "control_change channel=9 control=7 value=65 time=0.004\n",
      "control_change channel=9 control=7 value=64 time=0.008\n",
      "control_change channel=9 control=7 value=63 time=0.004\n",
      "control_change channel=9 control=7 value=62 time=0.008\n",
      "control_change channel=9 control=7 value=61 time=0.004\n",
      "control_change channel=9 control=7 value=60 time=0.008\n",
      "note_off channel=9 note=38 velocity=110 time=0\n",
      "note_off channel=9 note=40 velocity=110 time=0\n",
      "note_on channel=9 note=40 velocity=110 time=0.004\n",
      "note_on channel=9 note=38 velocity=110 time=0\n",
      "note_off channel=9 note=40 velocity=110 time=0.056\n",
      "note_off channel=9 note=38 velocity=110 time=0\n",
      "note_on channel=9 note=40 velocity=110 time=0.004\n",
      "note_on channel=9 note=38 velocity=110 time=0\n",
      "note_off channel=9 note=40 velocity=110 time=0.056\n",
      "note_off channel=9 note=38 velocity=110 time=0\n",
      "note_on channel=9 note=40 velocity=110 time=0.004\n",
      "note_on channel=9 note=38 velocity=110 time=0\n",
      "note_off channel=9 note=40 velocity=110 time=0.056\n",
      "note_off channel=9 note=38 velocity=110 time=0\n",
      "note_on channel=9 note=40 velocity=110 time=0.004\n",
      "note_on channel=9 note=38 velocity=110 time=0\n",
      "note_off channel=9 note=40 velocity=110 time=0.056\n",
      "note_off channel=9 note=38 velocity=110 time=0\n",
      "note_on channel=9 note=40 velocity=110 time=0.004\n",
      "note_on channel=9 note=38 velocity=110 time=0\n",
      "note_off channel=9 note=40 velocity=110 time=0.056\n",
      "note_off channel=9 note=38 velocity=110 time=0\n",
      "note_on channel=9 note=40 velocity=110 time=0.004\n",
      "note_on channel=9 note=38 velocity=110 time=0\n",
      "note_off channel=9 note=40 velocity=110 time=0.056\n",
      "note_off channel=9 note=38 velocity=110 time=0\n",
      "note_on channel=9 note=40 velocity=110 time=0.004\n",
      "note_on channel=9 note=38 velocity=110 time=0\n",
      "note_off channel=9 note=40 velocity=110 time=0.056\n",
      "note_off channel=9 note=38 velocity=110 time=0\n",
      "note_on channel=9 note=40 velocity=110 time=0.004\n",
      "note_on channel=9 note=38 velocity=110 time=0\n",
      "note_off channel=9 note=40 velocity=110 time=0.056\n",
      "note_off channel=9 note=38 velocity=110 time=0\n",
      "control_change channel=9 control=7 value=60 time=0.004\n",
      "note_on channel=9 note=40 velocity=110 time=0\n",
      "note_on channel=9 note=38 velocity=110 time=0\n",
      "control_change channel=9 control=7 value=61 time=0.004\n",
      "control_change channel=9 control=7 value=62 time=0.004\n",
      "control_change channel=9 control=7 value=63 time=0.008\n",
      "control_change channel=9 control=7 value=64 time=0.004\n",
      "control_change channel=9 control=7 value=65 time=0.008\n",
      "control_change channel=9 control=7 value=66 time=0.004\n",
      "control_change channel=9 control=7 value=67 time=0.008\n",
      "control_change channel=9 control=7 value=68 time=0.004\n",
      "control_change channel=9 control=7 value=69 time=0.008\n",
      "control_change channel=9 control=7 value=70 time=0.004\n",
      "note_off channel=9 note=40 velocity=110 time=0\n",
      "note_off channel=9 note=38 velocity=110 time=0\n",
      "note_on channel=9 note=40 velocity=110 time=0.004\n",
      "note_on channel=9 note=38 velocity=110 time=0\n",
      "control_change channel=9 control=7 value=71 time=0.004\n",
      "control_change channel=9 control=7 value=72 time=0.004\n",
      "control_change channel=9 control=7 value=73 time=0.008\n",
      "control_change channel=9 control=7 value=74 time=0.004\n",
      "control_change channel=9 control=7 value=75 time=0.008\n",
      "control_change channel=9 control=7 value=76 time=0.004\n",
      "control_change channel=9 control=7 value=77 time=0.008\n",
      "control_change channel=9 control=7 value=78 time=0.004\n",
      "control_change channel=9 control=7 value=79 time=0.008\n",
      "control_change channel=9 control=7 value=80 time=0.004\n",
      "note_off channel=9 note=40 velocity=110 time=0\n",
      "note_off channel=9 note=38 velocity=110 time=0\n",
      "control_change channel=9 control=7 value=81 time=0.004\n",
      "note_on channel=9 note=40 velocity=110 time=0\n",
      "note_on channel=9 note=38 velocity=110 time=0\n",
      "control_change channel=9 control=7 value=82 time=0.008\n",
      "control_change channel=9 control=7 value=83 time=0.004\n",
      "control_change channel=9 control=7 value=84 time=0.008\n",
      "control_change channel=9 control=7 value=85 time=0.004\n",
      "control_change channel=9 control=7 value=86 time=0.008\n",
      "control_change channel=9 control=7 value=87 time=0.004\n",
      "control_change channel=9 control=7 value=88 time=0.008\n",
      "control_change channel=9 control=7 value=89 time=0.004\n",
      "control_change channel=9 control=7 value=90 time=0.008\n",
      "note_off channel=9 note=40 velocity=110 time=0\n",
      "note_off channel=9 note=38 velocity=110 time=0\n",
      "control_change channel=9 control=7 value=91 time=0.004\n",
      "note_on channel=9 note=40 velocity=110 time=0\n",
      "note_on channel=9 note=38 velocity=110 time=0\n",
      "control_change channel=9 control=7 value=92 time=0.008\n",
      "control_change channel=9 control=7 value=93 time=0.004\n",
      "control_change channel=9 control=7 value=94 time=0.008\n",
      "control_change channel=9 control=7 value=95 time=0.004\n",
      "control_change channel=9 control=7 value=96 time=0.008\n",
      "control_change channel=9 control=7 value=97 time=0.004\n",
      "control_change channel=9 control=7 value=98 time=0.008\n",
      "control_change channel=9 control=7 value=99 time=0.004\n",
      "control_change channel=9 control=7 value=100 time=0.008\n",
      "note_off channel=9 note=40 velocity=110 time=0\n",
      "note_off channel=9 note=38 velocity=110 time=0\n",
      "note_on channel=9 note=36 velocity=110 time=0.004\n",
      "note_on channel=9 note=40 velocity=110 time=0\n",
      "note_on channel=9 note=35 velocity=110 time=0\n",
      "note_on channel=9 note=42 velocity=110 time=0\n",
      "note_on channel=9 note=38 velocity=110 time=0\n",
      "note_off channel=9 note=36 velocity=110 time=0.196\n",
      "note_off channel=9 note=40 velocity=110 time=0\n",
      "note_off channel=9 note=35 velocity=110 time=0\n",
      "note_off channel=9 note=42 velocity=110 time=0\n",
      "note_off channel=9 note=38 velocity=110 time=0\n",
      "note_on channel=9 note=38 velocity=110 time=0.044\n",
      "note_on channel=9 note=40 velocity=110 time=0\n",
      "note_on channel=9 note=35 velocity=110 time=0\n",
      "note_on channel=9 note=42 velocity=110 time=0\n",
      "note_on channel=9 note=36 velocity=110 time=0\n",
      "note_off channel=9 note=38 velocity=110 time=0.196\n",
      "note_off channel=9 note=40 velocity=110 time=0\n",
      "note_off channel=9 note=35 velocity=110 time=0\n",
      "note_off channel=9 note=42 velocity=110 time=0\n",
      "note_off channel=9 note=36 velocity=110 time=0\n",
      "control_change channel=9 control=7 value=80 time=0.252\n",
      "note_on channel=0 note=74 velocity=121 time=0.272\n",
      "note_on channel=0 note=70 velocity=121 time=0\n",
      "note_on channel=0 note=77 velocity=121 time=0\n",
      "note_on channel=1 note=62 velocity=118 time=0\n",
      "note_on channel=1 note=65 velocity=118 time=0\n",
      "note_on channel=1 note=53 velocity=118 time=0\n",
      "note_on channel=1 note=58 velocity=118 time=0\n",
      "note_on channel=2 note=46 velocity=110 time=0\n",
      "note_on channel=4 note=62 velocity=121 time=0\n",
      "note_on channel=4 note=58 velocity=121 time=0\n",
      "note_on channel=4 note=65 velocity=121 time=0\n",
      "note_on channel=9 note=40 velocity=110 time=0\n",
      "note_on channel=9 note=38 velocity=110 time=0\n",
      "note_off channel=0 note=74 velocity=121 time=0.176\n",
      "note_off channel=0 note=70 velocity=121 time=0\n",
      "note_off channel=0 note=77 velocity=121 time=0\n",
      "note_off channel=1 note=62 velocity=118 time=0\n",
      "note_off channel=1 note=65 velocity=118 time=0\n",
      "note_off channel=1 note=53 velocity=118 time=0\n",
      "note_off channel=1 note=58 velocity=118 time=0\n",
      "note_off channel=2 note=46 velocity=110 time=0\n",
      "note_off channel=4 note=62 velocity=121 time=0\n",
      "note_off channel=4 note=58 velocity=121 time=0\n",
      "note_off channel=4 note=65 velocity=121 time=0\n",
      "note_off channel=9 note=40 velocity=110 time=0.02\n",
      "note_off channel=9 note=38 velocity=110 time=0\n",
      "note_on channel=0 note=70 velocity=90 time=0.124\n",
      "note_on channel=0 note=74 velocity=90 time=0\n",
      "note_on channel=0 note=77 velocity=90 time=0\n",
      "note_on channel=1 note=62 velocity=91 time=0\n",
      "note_on channel=1 note=58 velocity=91 time=0\n",
      "note_on channel=1 note=53 velocity=91 time=0\n",
      "note_on channel=1 note=65 velocity=91 time=0\n",
      "note_on channel=2 note=46 velocity=92 time=0\n",
      "note_on channel=4 note=58 velocity=90 time=0\n",
      "note_on channel=4 note=62 velocity=90 time=0\n",
      "note_on channel=4 note=65 velocity=90 time=0\n",
      "note_on channel=9 note=40 velocity=93 time=0\n",
      "note_on channel=9 note=38 velocity=93 time=0\n",
      "note_off channel=0 note=70 velocity=90 time=0.056\n",
      "note_off channel=0 note=74 velocity=90 time=0\n",
      "note_off channel=0 note=77 velocity=90 time=0\n",
      "note_off channel=1 note=62 velocity=91 time=0\n",
      "note_off channel=1 note=58 velocity=91 time=0\n",
      "note_off channel=1 note=53 velocity=91 time=0\n",
      "note_off channel=1 note=65 velocity=91 time=0\n",
      "note_off channel=2 note=46 velocity=92 time=0\n",
      "note_off channel=4 note=58 velocity=90 time=0\n",
      "note_off channel=4 note=62 velocity=90 time=0\n",
      "note_off channel=4 note=65 velocity=90 time=0\n",
      "note_off channel=9 note=40 velocity=93 time=0\n",
      "note_off channel=9 note=38 velocity=93 time=0\n",
      "note_on channel=0 note=74 velocity=91 time=0.024\n",
      "note_on channel=0 note=70 velocity=91 time=0\n",
      "note_on channel=0 note=77 velocity=91 time=0\n",
      "note_on channel=1 note=58 velocity=91 time=0\n",
      "note_on channel=1 note=62 velocity=91 time=0\n",
      "note_on channel=1 note=53 velocity=91 time=0\n",
      "note_on channel=1 note=65 velocity=91 time=0\n",
      "note_on channel=2 note=46 velocity=92 time=0\n",
      "note_on channel=4 note=62 velocity=91 time=0\n",
      "note_on channel=4 note=58 velocity=91 time=0\n",
      "note_on channel=4 note=65 velocity=91 time=0\n",
      "note_on channel=9 note=40 velocity=93 time=0\n",
      "note_on channel=9 note=38 velocity=93 time=0\n",
      "note_off channel=0 note=74 velocity=91 time=0.056\n",
      "note_off channel=0 note=70 velocity=91 time=0\n",
      "note_off channel=0 note=77 velocity=91 time=0\n",
      "note_off channel=1 note=58 velocity=91 time=0\n",
      "note_off channel=1 note=62 velocity=91 time=0\n",
      "note_off channel=1 note=53 velocity=91 time=0\n",
      "note_off channel=1 note=65 velocity=91 time=0\n",
      "note_off channel=2 note=46 velocity=92 time=0\n",
      "note_off channel=4 note=62 velocity=91 time=0\n",
      "note_off channel=4 note=58 velocity=91 time=0\n",
      "note_off channel=4 note=65 velocity=91 time=0\n",
      "note_off channel=9 note=40 velocity=93 time=0\n",
      "note_off channel=9 note=38 velocity=93 time=0\n",
      "note_on channel=0 note=74 velocity=110 time=0.024\n",
      "note_on channel=0 note=70 velocity=110 time=0\n",
      "note_on channel=0 note=77 velocity=110 time=0\n",
      "note_on channel=1 note=62 velocity=110 time=0\n",
      "note_on channel=1 note=58 velocity=110 time=0\n",
      "note_on channel=1 note=53 velocity=110 time=0\n",
      "note_on channel=1 note=65 velocity=110 time=0\n",
      "note_on channel=2 note=46 velocity=110 time=0\n",
      "note_on channel=4 note=62 velocity=110 time=0\n",
      "note_on channel=4 note=58 velocity=110 time=0\n",
      "note_on channel=4 note=65 velocity=110 time=0\n",
      "note_on channel=9 note=40 velocity=110 time=0\n",
      "note_on channel=9 note=38 velocity=110 time=0\n",
      "note_off channel=9 note=40 velocity=110 time=0.196\n",
      "note_off channel=9 note=38 velocity=110 time=0\n",
      "note_off channel=0 note=74 velocity=110 time=0.4\n",
      "note_off channel=0 note=70 velocity=110 time=0\n",
      "note_off channel=0 note=77 velocity=110 time=0\n",
      "note_off channel=1 note=62 velocity=110 time=0\n",
      "note_off channel=1 note=58 velocity=110 time=0\n",
      "note_off channel=1 note=53 velocity=110 time=0\n",
      "note_off channel=1 note=65 velocity=110 time=0\n",
      "note_off channel=2 note=46 velocity=110 time=0\n",
      "note_off channel=4 note=62 velocity=110 time=0\n",
      "note_off channel=4 note=58 velocity=110 time=0\n",
      "note_off channel=4 note=65 velocity=110 time=0\n",
      "note_on channel=0 note=71 velocity=110 time=0.044\n",
      "note_on channel=0 note=75 velocity=110 time=0\n",
      "note_on channel=0 note=78 velocity=110 time=0\n",
      "note_on channel=1 note=59 velocity=110 time=0\n",
      "note_on channel=1 note=54 velocity=110 time=0\n",
      "note_on channel=1 note=63 velocity=110 time=0\n",
      "note_on channel=1 note=66 velocity=110 time=0\n",
      "note_on channel=2 note=47 velocity=110 time=0\n",
      "note_on channel=4 note=59 velocity=110 time=0\n",
      "note_on channel=4 note=63 velocity=110 time=0\n",
      "note_on channel=4 note=66 velocity=110 time=0\n",
      "note_on channel=9 note=40 velocity=92 time=0\n",
      "note_on channel=9 note=38 velocity=92 time=0\n",
      "note_off channel=0 note=71 velocity=110 time=0.116\n",
      "note_off channel=0 note=75 velocity=110 time=0\n",
      "note_off channel=0 note=78 velocity=110 time=0\n",
      "note_off channel=1 note=59 velocity=110 time=0\n",
      "note_off channel=1 note=54 velocity=110 time=0\n",
      "note_off channel=1 note=63 velocity=110 time=0\n",
      "note_off channel=1 note=66 velocity=110 time=0\n",
      "note_off channel=2 note=47 velocity=110 time=0\n",
      "note_off channel=4 note=59 velocity=110 time=0\n",
      "note_off channel=4 note=63 velocity=110 time=0\n",
      "note_off channel=4 note=66 velocity=110 time=0\n",
      "note_off channel=9 note=40 velocity=92 time=0\n",
      "note_off channel=9 note=38 velocity=92 time=0\n",
      "note_on channel=0 note=70 velocity=110 time=0.044\n",
      "note_on channel=0 note=74 velocity=110 time=0\n",
      "note_on channel=0 note=77 velocity=110 time=0\n",
      "note_on channel=1 note=62 velocity=110 time=0\n",
      "note_on channel=1 note=58 velocity=110 time=0\n",
      "note_on channel=1 note=53 velocity=110 time=0\n",
      "note_on channel=1 note=65 velocity=110 time=0\n",
      "note_on channel=2 note=46 velocity=110 time=0\n",
      "note_on channel=4 note=58 velocity=110 time=0\n",
      "note_on channel=4 note=62 velocity=110 time=0\n",
      "note_on channel=4 note=65 velocity=110 time=0\n",
      "note_on channel=9 note=40 velocity=93 time=0\n",
      "note_on channel=9 note=38 velocity=93 time=0\n",
      "note_off channel=0 note=70 velocity=110 time=0.116\n",
      "note_off channel=0 note=74 velocity=110 time=0\n",
      "note_off channel=0 note=77 velocity=110 time=0\n",
      "note_off channel=1 note=62 velocity=110 time=0\n",
      "note_off channel=1 note=58 velocity=110 time=0\n",
      "note_off channel=1 note=53 velocity=110 time=0\n",
      "note_off channel=1 note=65 velocity=110 time=0\n",
      "note_off channel=2 note=46 velocity=110 time=0\n",
      "note_off channel=4 note=58 velocity=110 time=0\n",
      "note_off channel=4 note=62 velocity=110 time=0\n",
      "note_off channel=4 note=65 velocity=110 time=0\n",
      "note_off channel=9 note=40 velocity=93 time=0\n",
      "note_off channel=9 note=38 velocity=93 time=0\n",
      "note_on channel=0 note=71 velocity=110 time=0.044\n",
      "note_on channel=0 note=75 velocity=110 time=0\n",
      "note_on channel=0 note=78 velocity=110 time=0\n",
      "note_on channel=1 note=63 velocity=110 time=0\n",
      "note_on channel=1 note=59 velocity=110 time=0\n",
      "note_on channel=1 note=54 velocity=110 time=0\n",
      "note_on channel=1 note=66 velocity=110 time=0\n",
      "note_on channel=2 note=47 velocity=110 time=0\n",
      "note_on channel=4 note=59 velocity=110 time=0\n",
      "note_on channel=4 note=63 velocity=110 time=0\n",
      "note_on channel=4 note=66 velocity=110 time=0\n",
      "note_on channel=9 note=40 velocity=93 time=0\n",
      "note_on channel=9 note=38 velocity=93 time=0\n",
      "note_off channel=0 note=71 velocity=110 time=0.116\n",
      "note_off channel=0 note=75 velocity=110 time=0\n",
      "note_off channel=0 note=78 velocity=110 time=0\n",
      "note_off channel=1 note=63 velocity=110 time=0\n",
      "note_off channel=1 note=59 velocity=110 time=0\n",
      "note_off channel=1 note=54 velocity=110 time=0\n",
      "note_off channel=1 note=66 velocity=110 time=0\n",
      "note_off channel=2 note=47 velocity=110 time=0\n",
      "note_off channel=4 note=59 velocity=110 time=0\n",
      "note_off channel=4 note=63 velocity=110 time=0\n",
      "note_off channel=4 note=66 velocity=110 time=0\n",
      "note_off channel=9 note=40 velocity=93 time=0\n",
      "note_off channel=9 note=38 velocity=93 time=0\n",
      "note_on channel=0 note=70 velocity=110 time=0.044\n",
      "note_on channel=0 note=74 velocity=110 time=0\n",
      "note_on channel=0 note=77 velocity=110 time=0\n",
      "note_on channel=1 note=62 velocity=110 time=0\n",
      "note_on channel=1 note=58 velocity=110 time=0\n",
      "note_on channel=1 note=53 velocity=110 time=0\n",
      "note_on channel=1 note=65 velocity=110 time=0\n",
      "note_on channel=2 note=46 velocity=110 time=0\n",
      "note_on channel=4 note=58 velocity=110 time=0\n",
      "note_on channel=4 note=62 velocity=110 time=0\n",
      "note_on channel=4 note=65 velocity=110 time=0\n",
      "note_on channel=9 note=40 velocity=93 time=0\n",
      "note_on channel=9 note=38 velocity=93 time=0\n",
      "note_off channel=0 note=70 velocity=110 time=0.116\n",
      "note_off channel=0 note=74 velocity=110 time=0\n",
      "note_off channel=0 note=77 velocity=110 time=0\n",
      "note_off channel=1 note=62 velocity=110 time=0\n",
      "note_off channel=1 note=58 velocity=110 time=0\n",
      "note_off channel=1 note=53 velocity=110 time=0\n",
      "note_off channel=1 note=65 velocity=110 time=0\n",
      "note_off channel=2 note=46 velocity=110 time=0\n",
      "note_off channel=4 note=58 velocity=110 time=0\n",
      "note_off channel=4 note=62 velocity=110 time=0\n",
      "note_off channel=4 note=65 velocity=110 time=0\n",
      "note_off channel=9 note=40 velocity=93 time=0\n",
      "note_off channel=9 note=38 velocity=93 time=0\n",
      "note_on channel=0 note=71 velocity=110 time=0.044\n",
      "note_on channel=0 note=75 velocity=110 time=0\n",
      "note_on channel=0 note=78 velocity=110 time=0\n",
      "note_on channel=1 note=63 velocity=110 time=0\n",
      "note_on channel=1 note=59 velocity=110 time=0\n",
      "note_on channel=1 note=54 velocity=110 time=0\n",
      "note_on channel=1 note=66 velocity=110 time=0\n",
      "note_on channel=2 note=47 velocity=110 time=0\n",
      "note_on channel=4 note=59 velocity=110 time=0\n",
      "note_on channel=4 note=63 velocity=110 time=0\n",
      "note_on channel=4 note=66 velocity=110 time=0\n",
      "note_on channel=9 note=40 velocity=89 time=0\n",
      "note_on channel=9 note=38 velocity=89 time=0\n",
      "note_off channel=0 note=71 velocity=110 time=0.116\n",
      "note_off channel=0 note=75 velocity=110 time=0\n",
      "note_off channel=0 note=78 velocity=110 time=0\n",
      "note_off channel=1 note=63 velocity=110 time=0\n",
      "note_off channel=1 note=59 velocity=110 time=0\n",
      "note_off channel=1 note=54 velocity=110 time=0\n",
      "note_off channel=1 note=66 velocity=110 time=0\n",
      "note_off channel=2 note=47 velocity=110 time=0\n",
      "note_off channel=4 note=59 velocity=110 time=0\n",
      "note_off channel=4 note=63 velocity=110 time=0\n",
      "note_off channel=4 note=66 velocity=110 time=0\n",
      "note_off channel=9 note=40 velocity=89 time=0\n",
      "note_off channel=9 note=38 velocity=89 time=0\n",
      "note_on channel=0 note=74 velocity=123 time=0.044\n",
      "note_on channel=0 note=70 velocity=123 time=0\n",
      "note_on channel=0 note=77 velocity=123 time=0\n",
      "note_on channel=1 note=62 velocity=110 time=0\n",
      "note_on channel=1 note=58 velocity=110 time=0\n",
      "note_on channel=1 note=53 velocity=110 time=0\n",
      "note_on channel=1 note=65 velocity=110 time=0\n",
      "note_on channel=2 note=46 velocity=110 time=0\n",
      "note_on channel=4 note=62 velocity=123 time=0\n",
      "note_on channel=4 note=58 velocity=123 time=0\n",
      "note_on channel=4 note=65 velocity=123 time=0\n",
      "note_on channel=9 note=40 velocity=110 time=0\n",
      "note_on channel=9 note=38 velocity=110 time=0\n",
      "note_off channel=0 note=74 velocity=123 time=0.156\n",
      "note_off channel=0 note=70 velocity=123 time=0\n",
      "note_off channel=0 note=77 velocity=123 time=0\n",
      "note_off channel=1 note=62 velocity=110 time=0\n",
      "note_off channel=1 note=58 velocity=110 time=0\n",
      "note_off channel=1 note=53 velocity=110 time=0\n",
      "note_off channel=1 note=65 velocity=110 time=0\n",
      "note_off channel=2 note=46 velocity=110 time=0\n",
      "note_off channel=4 note=62 velocity=123 time=0\n",
      "note_off channel=4 note=58 velocity=123 time=0\n",
      "note_off channel=4 note=65 velocity=123 time=0\n",
      "note_off channel=9 note=40 velocity=110 time=0.04\n",
      "note_off channel=9 note=38 velocity=110 time=0\n",
      "note_on channel=0 note=70 velocity=91 time=0.124\n",
      "note_on channel=0 note=74 velocity=91 time=0\n",
      "note_on channel=0 note=77 velocity=91 time=0\n",
      "note_on channel=1 note=62 velocity=91 time=0\n",
      "note_on channel=1 note=58 velocity=91 time=0\n",
      "note_on channel=1 note=53 velocity=91 time=0\n",
      "note_on channel=1 note=65 velocity=91 time=0\n",
      "note_on channel=2 note=46 velocity=88 time=0\n",
      "note_on channel=4 note=58 velocity=91 time=0\n",
      "note_on channel=4 note=62 velocity=91 time=0\n",
      "note_on channel=4 note=65 velocity=91 time=0\n",
      "note_on channel=9 note=40 velocity=93 time=0\n",
      "note_on channel=9 note=38 velocity=93 time=0\n",
      "note_off channel=0 note=70 velocity=91 time=0.056\n",
      "note_off channel=0 note=74 velocity=91 time=0\n",
      "note_off channel=0 note=77 velocity=91 time=0\n",
      "note_off channel=1 note=62 velocity=91 time=0\n",
      "note_off channel=1 note=58 velocity=91 time=0\n",
      "note_off channel=1 note=53 velocity=91 time=0\n",
      "note_off channel=1 note=65 velocity=91 time=0\n",
      "note_off channel=2 note=46 velocity=88 time=0\n",
      "note_off channel=4 note=58 velocity=91 time=0\n",
      "note_off channel=4 note=62 velocity=91 time=0\n",
      "note_off channel=4 note=65 velocity=91 time=0\n",
      "note_off channel=9 note=40 velocity=93 time=0\n",
      "note_off channel=9 note=38 velocity=93 time=0\n",
      "note_on channel=0 note=70 velocity=91 time=0.024\n",
      "note_on channel=0 note=74 velocity=91 time=0\n",
      "note_on channel=0 note=77 velocity=91 time=0\n",
      "note_on channel=1 note=62 velocity=91 time=0\n",
      "note_on channel=1 note=58 velocity=91 time=0\n",
      "note_on channel=1 note=53 velocity=91 time=0\n",
      "note_on channel=1 note=65 velocity=91 time=0\n",
      "note_on channel=2 note=46 velocity=88 time=0\n",
      "note_on channel=4 note=58 velocity=91 time=0\n",
      "note_on channel=4 note=62 velocity=91 time=0\n",
      "note_on channel=4 note=65 velocity=91 time=0\n",
      "note_on channel=9 note=40 velocity=93 time=0\n",
      "note_on channel=9 note=38 velocity=93 time=0\n",
      "note_off channel=0 note=70 velocity=91 time=0.056\n",
      "note_off channel=0 note=74 velocity=91 time=0\n",
      "note_off channel=0 note=77 velocity=91 time=0\n",
      "note_off channel=1 note=62 velocity=91 time=0\n",
      "note_off channel=1 note=58 velocity=91 time=0\n",
      "note_off channel=1 note=53 velocity=91 time=0\n",
      "note_off channel=1 note=65 velocity=91 time=0\n",
      "note_off channel=2 note=46 velocity=88 time=0\n",
      "note_off channel=4 note=58 velocity=91 time=0\n",
      "note_off channel=4 note=62 velocity=91 time=0\n",
      "note_off channel=4 note=65 velocity=91 time=0\n",
      "note_off channel=9 note=40 velocity=93 time=0\n",
      "note_off channel=9 note=38 velocity=93 time=0\n",
      "note_on channel=0 note=70 velocity=110 time=0.024\n",
      "note_on channel=0 note=74 velocity=110 time=0\n",
      "note_on channel=0 note=77 velocity=110 time=0\n",
      "note_on channel=1 note=53 velocity=110 time=0\n",
      "note_on channel=1 note=58 velocity=110 time=0\n",
      "note_on channel=1 note=65 velocity=110 time=0\n",
      "note_on channel=1 note=62 velocity=110 time=0\n",
      "note_on channel=2 note=46 velocity=110 time=0\n",
      "note_on channel=4 note=58 velocity=110 time=0\n",
      "note_on channel=4 note=62 velocity=110 time=0\n",
      "note_on channel=4 note=65 velocity=110 time=0\n",
      "note_on channel=9 note=40 velocity=91 time=0\n",
      "note_on channel=9 note=38 velocity=91 time=0\n",
      "note_off channel=0 note=70 velocity=110 time=0.116\n",
      "note_off channel=0 note=74 velocity=110 time=0\n",
      "note_off channel=0 note=77 velocity=110 time=0\n",
      "note_off channel=1 note=53 velocity=110 time=0\n",
      "note_off channel=1 note=58 velocity=110 time=0\n",
      "note_off channel=1 note=65 velocity=110 time=0\n",
      "note_off channel=1 note=62 velocity=110 time=0\n",
      "note_off channel=2 note=46 velocity=110 time=0\n",
      "note_off channel=4 note=58 velocity=110 time=0\n",
      "note_off channel=4 note=62 velocity=110 time=0\n",
      "note_off channel=4 note=65 velocity=110 time=0\n",
      "note_off channel=9 note=40 velocity=91 time=0\n",
      "note_off channel=9 note=38 velocity=91 time=0\n",
      "note_on channel=0 note=70 velocity=110 time=0.044\n",
      "note_on channel=0 note=74 velocity=110 time=0\n",
      "note_on channel=0 note=77 velocity=110 time=0\n",
      "note_on channel=1 note=62 velocity=110 time=0\n",
      "note_on channel=1 note=58 velocity=110 time=0\n",
      "note_on channel=1 note=53 velocity=110 time=0\n",
      "note_on channel=1 note=65 velocity=110 time=0\n",
      "note_on channel=2 note=46 velocity=110 time=0\n",
      "note_on channel=4 note=58 velocity=110 time=0\n",
      "note_on channel=4 note=62 velocity=110 time=0\n",
      "note_on channel=4 note=65 velocity=110 time=0\n",
      "note_on channel=9 note=40 velocity=88 time=0\n",
      "note_on channel=9 note=38 velocity=88 time=0\n",
      "note_off channel=0 note=70 velocity=110 time=0.116\n",
      "note_off channel=0 note=74 velocity=110 time=0\n",
      "note_off channel=0 note=77 velocity=110 time=0\n",
      "note_off channel=1 note=62 velocity=110 time=0\n",
      "note_off channel=1 note=58 velocity=110 time=0\n",
      "note_off channel=1 note=53 velocity=110 time=0\n",
      "note_off channel=1 note=65 velocity=110 time=0\n",
      "note_off channel=2 note=46 velocity=110 time=0\n",
      "note_off channel=4 note=58 velocity=110 time=0\n",
      "note_off channel=4 note=62 velocity=110 time=0\n",
      "note_off channel=4 note=65 velocity=110 time=0\n",
      "note_off channel=9 note=40 velocity=88 time=0\n",
      "note_off channel=9 note=38 velocity=88 time=0\n",
      "note_on channel=0 note=70 velocity=110 time=0.044\n",
      "note_on channel=0 note=74 velocity=110 time=0\n",
      "note_on channel=0 note=77 velocity=110 time=0\n",
      "note_on channel=1 note=62 velocity=110 time=0\n",
      "note_on channel=1 note=58 velocity=110 time=0\n",
      "note_on channel=1 note=53 velocity=110 time=0\n",
      "note_on channel=1 note=65 velocity=110 time=0\n",
      "note_on channel=2 note=46 velocity=110 time=0\n",
      "note_on channel=4 note=58 velocity=110 time=0\n",
      "note_on channel=4 note=62 velocity=110 time=0\n",
      "note_on channel=4 note=65 velocity=110 time=0\n",
      "note_on channel=9 note=40 velocity=90 time=0\n",
      "note_on channel=9 note=38 velocity=90 time=0\n",
      "note_off channel=0 note=70 velocity=110 time=0.116\n",
      "note_off channel=0 note=74 velocity=110 time=0\n",
      "note_off channel=0 note=77 velocity=110 time=0\n",
      "note_off channel=1 note=62 velocity=110 time=0\n",
      "note_off channel=1 note=58 velocity=110 time=0\n",
      "note_off channel=1 note=53 velocity=110 time=0\n",
      "note_off channel=1 note=65 velocity=110 time=0\n",
      "note_off channel=2 note=46 velocity=110 time=0\n",
      "note_off channel=4 note=58 velocity=110 time=0\n",
      "note_off channel=4 note=62 velocity=110 time=0\n",
      "note_off channel=4 note=65 velocity=110 time=0\n",
      "note_off channel=9 note=40 velocity=90 time=0\n",
      "note_off channel=9 note=38 velocity=90 time=0\n",
      "note_on channel=0 note=70 velocity=110 time=0.044\n",
      "note_on channel=0 note=74 velocity=110 time=0\n",
      "note_on channel=0 note=77 velocity=110 time=0\n",
      "note_on channel=1 note=58 velocity=110 time=0\n",
      "note_on channel=1 note=53 velocity=110 time=0\n",
      "note_on channel=1 note=65 velocity=110 time=0\n",
      "note_on channel=1 note=62 velocity=110 time=0\n",
      "note_on channel=2 note=46 velocity=110 time=0\n",
      "note_on channel=4 note=58 velocity=110 time=0\n",
      "note_on channel=4 note=62 velocity=110 time=0\n",
      "note_on channel=4 note=65 velocity=110 time=0\n",
      "note_on channel=9 note=40 velocity=90 time=0\n",
      "note_on channel=9 note=38 velocity=90 time=0\n",
      "note_off channel=0 note=70 velocity=110 time=0.116\n",
      "note_off channel=0 note=74 velocity=110 time=0\n",
      "note_off channel=0 note=77 velocity=110 time=0\n",
      "note_off channel=1 note=58 velocity=110 time=0\n",
      "note_off channel=1 note=53 velocity=110 time=0\n",
      "note_off channel=1 note=65 velocity=110 time=0\n",
      "note_off channel=1 note=62 velocity=110 time=0\n",
      "note_off channel=2 note=46 velocity=110 time=0\n",
      "note_off channel=4 note=58 velocity=110 time=0\n",
      "note_off channel=4 note=62 velocity=110 time=0\n",
      "note_off channel=4 note=65 velocity=110 time=0\n",
      "note_off channel=9 note=40 velocity=90 time=0\n",
      "note_off channel=9 note=38 velocity=90 time=0\n",
      "note_on channel=0 note=70 velocity=110 time=0.044\n",
      "note_on channel=0 note=74 velocity=110 time=0\n",
      "note_on channel=0 note=77 velocity=110 time=0\n",
      "note_on channel=1 note=62 velocity=110 time=0\n",
      "note_on channel=1 note=58 velocity=110 time=0\n",
      "note_on channel=1 note=53 velocity=110 time=0\n",
      "note_on channel=1 note=65 velocity=110 time=0\n",
      "note_on channel=2 note=46 velocity=110 time=0\n",
      "note_on channel=4 note=58 velocity=110 time=0\n",
      "note_on channel=4 note=62 velocity=110 time=0\n",
      "note_on channel=4 note=65 velocity=110 time=0\n",
      "note_on channel=9 note=40 velocity=88 time=0\n",
      "note_on channel=9 note=38 velocity=88 time=0\n",
      "note_off channel=0 note=70 velocity=110 time=0.116\n",
      "note_off channel=0 note=74 velocity=110 time=0\n",
      "note_off channel=0 note=77 velocity=110 time=0\n",
      "note_off channel=1 note=62 velocity=110 time=0\n",
      "note_off channel=1 note=58 velocity=110 time=0\n",
      "note_off channel=1 note=53 velocity=110 time=0\n",
      "note_off channel=1 note=65 velocity=110 time=0\n",
      "note_off channel=2 note=46 velocity=110 time=0\n",
      "note_off channel=4 note=58 velocity=110 time=0\n",
      "note_off channel=4 note=62 velocity=110 time=0\n",
      "note_off channel=4 note=65 velocity=110 time=0\n",
      "note_off channel=9 note=40 velocity=88 time=0\n",
      "note_off channel=9 note=38 velocity=88 time=0\n",
      "note_on channel=0 note=70 velocity=110 time=0.044\n",
      "note_on channel=0 note=74 velocity=110 time=0\n",
      "note_on channel=0 note=77 velocity=110 time=0\n",
      "note_on channel=1 note=62 velocity=110 time=0\n",
      "note_on channel=1 note=58 velocity=110 time=0\n",
      "note_on channel=1 note=53 velocity=110 time=0\n",
      "note_on channel=1 note=65 velocity=110 time=0\n",
      "note_on channel=2 note=46 velocity=110 time=0\n",
      "note_on channel=4 note=58 velocity=110 time=0\n",
      "note_on channel=4 note=62 velocity=110 time=0\n",
      "note_on channel=4 note=65 velocity=110 time=0\n",
      "note_on channel=9 note=40 velocity=89 time=0\n",
      "note_on channel=9 note=38 velocity=89 time=0\n",
      "note_off channel=0 note=70 velocity=110 time=0.116\n",
      "note_off channel=0 note=74 velocity=110 time=0\n",
      "note_off channel=0 note=77 velocity=110 time=0\n",
      "note_off channel=1 note=62 velocity=110 time=0\n",
      "note_off channel=1 note=58 velocity=110 time=0\n",
      "note_off channel=1 note=53 velocity=110 time=0\n",
      "note_off channel=1 note=65 velocity=110 time=0\n",
      "note_off channel=2 note=46 velocity=110 time=0\n",
      "note_off channel=4 note=58 velocity=110 time=0\n",
      "note_off channel=4 note=62 velocity=110 time=0\n",
      "note_off channel=4 note=65 velocity=110 time=0\n",
      "note_off channel=9 note=40 velocity=89 time=0\n",
      "note_off channel=9 note=38 velocity=89 time=0\n",
      "note_on channel=0 note=70 velocity=110 time=0.044\n",
      "note_on channel=0 note=74 velocity=110 time=0\n",
      "note_on channel=0 note=77 velocity=110 time=0\n",
      "note_on channel=1 note=58 velocity=110 time=0\n",
      "note_on channel=1 note=53 velocity=110 time=0\n",
      "note_on channel=1 note=62 velocity=110 time=0\n",
      "note_on channel=1 note=65 velocity=110 time=0\n",
      "note_on channel=2 note=46 velocity=110 time=0\n",
      "note_on channel=4 note=58 velocity=110 time=0\n",
      "note_on channel=4 note=62 velocity=110 time=0\n",
      "note_on channel=4 note=65 velocity=110 time=0\n",
      "note_on channel=9 note=40 velocity=91 time=0\n",
      "note_on channel=9 note=38 velocity=91 time=0\n",
      "note_off channel=0 note=70 velocity=110 time=0.116\n",
      "note_off channel=0 note=74 velocity=110 time=0\n",
      "note_off channel=0 note=77 velocity=110 time=0\n",
      "note_off channel=1 note=58 velocity=110 time=0\n",
      "note_off channel=1 note=53 velocity=110 time=0\n",
      "note_off channel=1 note=62 velocity=110 time=0\n",
      "note_off channel=1 note=65 velocity=110 time=0\n",
      "note_off channel=2 note=46 velocity=110 time=0\n",
      "note_off channel=4 note=58 velocity=110 time=0\n",
      "note_off channel=4 note=62 velocity=110 time=0\n",
      "note_off channel=4 note=65 velocity=110 time=0\n",
      "note_off channel=9 note=40 velocity=91 time=0\n",
      "note_off channel=9 note=38 velocity=91 time=0\n",
      "note_on channel=0 note=70 velocity=110 time=0.044\n",
      "note_on channel=0 note=74 velocity=110 time=0\n",
      "note_on channel=1 note=58 velocity=110 time=0\n",
      "note_on channel=1 note=53 velocity=110 time=0\n",
      "note_on channel=1 note=50 velocity=110 time=0\n",
      "note_on channel=1 note=62 velocity=110 time=0\n",
      "note_on channel=2 note=41 velocity=110 time=0\n",
      "note_on channel=4 note=58 velocity=110 time=0\n",
      "note_on channel=4 note=62 velocity=110 time=0\n",
      "note_on channel=9 note=40 velocity=89 time=0\n",
      "note_on channel=9 note=38 velocity=89 time=0\n",
      "note_off channel=0 note=70 velocity=110 time=0.116\n",
      "note_off channel=0 note=74 velocity=110 time=0\n",
      "note_off channel=1 note=58 velocity=110 time=0\n",
      "note_off channel=1 note=53 velocity=110 time=0\n",
      "note_off channel=1 note=50 velocity=110 time=0\n",
      "note_off channel=1 note=62 velocity=110 time=0\n",
      "note_off channel=2 note=41 velocity=110 time=0\n",
      "note_off channel=4 note=58 velocity=110 time=0\n",
      "note_off channel=4 note=62 velocity=110 time=0\n",
      "note_off channel=9 note=40 velocity=89 time=0\n",
      "note_off channel=9 note=38 velocity=89 time=0\n",
      "note_on channel=0 note=70 velocity=110 time=0.044\n",
      "note_on channel=0 note=75 velocity=110 time=0\n",
      "note_on channel=1 note=60 velocity=110 time=0\n",
      "note_on channel=1 note=63 velocity=110 time=0\n",
      "note_on channel=2 note=45 velocity=110 time=0\n",
      "note_on channel=4 note=58 velocity=110 time=0\n",
      "note_on channel=4 note=63 velocity=110 time=0\n",
      "note_on channel=9 note=40 velocity=89 time=0\n",
      "note_on channel=9 note=38 velocity=89 time=0\n",
      "note_off channel=0 note=70 velocity=110 time=0.116\n",
      "note_off channel=0 note=75 velocity=110 time=0\n",
      "note_off channel=1 note=60 velocity=110 time=0\n",
      "note_off channel=1 note=63 velocity=110 time=0\n",
      "note_off channel=2 note=45 velocity=110 time=0\n",
      "note_off channel=4 note=58 velocity=110 time=0\n",
      "note_off channel=4 note=63 velocity=110 time=0\n",
      "note_off channel=9 note=40 velocity=89 time=0\n",
      "note_off channel=9 note=38 velocity=89 time=0\n",
      "note_on channel=0 note=70 velocity=120 time=0.044\n",
      "note_on channel=0 note=74 velocity=120 time=0\n",
      "note_on channel=0 note=77 velocity=120 time=0\n",
      "note_on channel=1 note=62 velocity=110 time=0\n",
      "note_on channel=1 note=58 velocity=110 time=0\n",
      "note_on channel=1 note=53 velocity=110 time=0\n",
      "note_on channel=1 note=65 velocity=110 time=0\n",
      "note_on channel=2 note=46 velocity=110 time=0\n",
      "note_on channel=4 note=58 velocity=120 time=0\n",
      "note_on channel=4 note=62 velocity=120 time=0\n",
      "note_on channel=4 note=65 velocity=120 time=0\n",
      "note_on channel=9 note=40 velocity=108 time=0\n",
      "note_on channel=9 note=38 velocity=108 time=0\n",
      "note_off channel=0 note=70 velocity=120 time=0.156\n",
      "note_off channel=0 note=74 velocity=120 time=0\n",
      "note_off channel=0 note=77 velocity=120 time=0\n",
      "note_off channel=1 note=62 velocity=110 time=0\n",
      "note_off channel=1 note=58 velocity=110 time=0\n",
      "note_off channel=1 note=53 velocity=110 time=0\n",
      "note_off channel=1 note=65 velocity=110 time=0\n",
      "note_off channel=2 note=46 velocity=110 time=0\n",
      "note_off channel=4 note=58 velocity=120 time=0\n",
      "note_off channel=4 note=62 velocity=120 time=0\n",
      "note_off channel=4 note=65 velocity=120 time=0\n",
      "note_off channel=9 note=40 velocity=108 time=0.04\n",
      "note_off channel=9 note=38 velocity=108 time=0\n",
      "note_on channel=0 note=70 velocity=91 time=0.124\n",
      "note_on channel=0 note=74 velocity=91 time=0\n",
      "note_on channel=0 note=77 velocity=91 time=0\n",
      "note_on channel=1 note=62 velocity=89 time=0\n",
      "note_on channel=1 note=58 velocity=89 time=0\n",
      "note_on channel=1 note=53 velocity=89 time=0\n",
      "note_on channel=1 note=65 velocity=89 time=0\n",
      "note_on channel=2 note=46 velocity=92 time=0\n",
      "note_on channel=4 note=58 velocity=91 time=0\n",
      "note_on channel=4 note=62 velocity=91 time=0\n",
      "note_on channel=4 note=65 velocity=91 time=0\n",
      "note_on channel=9 note=40 velocity=91 time=0\n",
      "note_on channel=9 note=38 velocity=91 time=0\n",
      "note_off channel=9 note=40 velocity=91 time=0.036000000000000004\n",
      "note_off channel=9 note=38 velocity=91 time=0\n",
      "note_off channel=0 note=70 velocity=91 time=0.02\n",
      "note_off channel=0 note=74 velocity=91 time=0\n",
      "note_off channel=0 note=77 velocity=91 time=0\n",
      "note_off channel=1 note=62 velocity=89 time=0\n",
      "note_off channel=1 note=58 velocity=89 time=0\n",
      "note_off channel=1 note=53 velocity=89 time=0\n",
      "note_off channel=1 note=65 velocity=89 time=0\n",
      "note_off channel=2 note=46 velocity=92 time=0\n",
      "note_off channel=4 note=58 velocity=91 time=0\n",
      "note_off channel=4 note=62 velocity=91 time=0\n",
      "note_off channel=4 note=65 velocity=91 time=0\n",
      "note_on channel=0 note=77 velocity=91 time=0.024\n",
      "note_on channel=0 note=70 velocity=91 time=0\n",
      "note_on channel=0 note=74 velocity=91 time=0\n",
      "note_on channel=1 note=62 velocity=89 time=0\n",
      "note_on channel=1 note=58 velocity=89 time=0\n",
      "note_on channel=1 note=53 velocity=89 time=0\n",
      "note_on channel=1 note=65 velocity=89 time=0\n",
      "note_on channel=2 note=46 velocity=91 time=0\n",
      "note_on channel=4 note=65 velocity=91 time=0\n",
      "note_on channel=4 note=58 velocity=91 time=0\n",
      "note_on channel=4 note=62 velocity=91 time=0\n",
      "note_on channel=9 note=38 velocity=91 time=0\n",
      "note_on channel=9 note=40 velocity=91 time=0\n",
      "note_off channel=9 note=40 velocity=91 time=0.036000000000000004\n",
      "note_off channel=0 note=77 velocity=91 time=0.02\n",
      "note_off channel=0 note=70 velocity=91 time=0\n",
      "note_off channel=0 note=74 velocity=91 time=0\n",
      "note_off channel=1 note=62 velocity=89 time=0\n",
      "note_off channel=1 note=58 velocity=89 time=0\n",
      "note_off channel=1 note=53 velocity=89 time=0\n",
      "note_off channel=1 note=65 velocity=89 time=0\n",
      "note_off channel=2 note=46 velocity=91 time=0\n",
      "note_off channel=4 note=65 velocity=91 time=0\n",
      "note_off channel=4 note=58 velocity=91 time=0\n",
      "note_off channel=4 note=62 velocity=91 time=0\n",
      "note_off channel=9 note=38 velocity=91 time=0\n",
      "note_on channel=0 note=70 velocity=110 time=0.024\n",
      "note_on channel=0 note=74 velocity=110 time=0\n",
      "note_on channel=0 note=77 velocity=110 time=0\n",
      "note_on channel=1 note=58 velocity=110 time=0\n",
      "note_on channel=1 note=53 velocity=110 time=0\n",
      "note_on channel=1 note=65 velocity=110 time=0\n",
      "note_on channel=1 note=62 velocity=110 time=0\n",
      "note_on channel=2 note=46 velocity=110 time=0\n",
      "note_on channel=4 note=58 velocity=110 time=0\n",
      "note_on channel=4 note=62 velocity=110 time=0\n",
      "note_on channel=4 note=65 velocity=110 time=0\n",
      "control_change channel=9 control=7 value=60 time=0\n",
      "note_on channel=9 note=36 velocity=110 time=0\n",
      "note_on channel=9 note=35 velocity=110 time=0\n",
      "note_on channel=9 note=40 velocity=110 time=0\n",
      "note_on channel=9 note=38 velocity=110 time=0\n",
      "control_change channel=9 control=7 value=61 time=0.008\n",
      "control_change channel=9 control=7 value=62 time=0.012\n",
      "control_change channel=9 control=7 value=63 time=0.012\n",
      "note_off channel=9 note=40 velocity=110 time=0.004\n",
      "note_off channel=9 note=38 velocity=110 time=0\n",
      "control_change channel=9 control=7 value=64 time=0.008\n",
      "control_change channel=9 control=7 value=65 time=0.012\n",
      "note_on channel=9 note=40 velocity=110 time=0.004\n",
      "note_on channel=9 note=38 velocity=110 time=0\n",
      "control_change channel=9 control=7 value=66 time=0.008\n",
      "control_change channel=9 control=7 value=67 time=0.012\n",
      "control_change channel=9 control=7 value=68 time=0.012\n",
      "note_off channel=9 note=40 velocity=110 time=0.004\n",
      "note_off channel=9 note=38 velocity=110 time=0\n",
      "control_change channel=9 control=7 value=69 time=0.008\n",
      "control_change channel=9 control=7 value=70 time=0.012\n",
      "note_on channel=9 note=40 velocity=110 time=0.004\n",
      "note_on channel=9 note=38 velocity=110 time=0\n",
      "control_change channel=9 control=7 value=71 time=0.008\n",
      "control_change channel=9 control=7 value=72 time=0.012\n",
      "control_change channel=9 control=7 value=73 time=0.012\n",
      "note_off channel=9 note=40 velocity=110 time=0.004\n",
      "note_off channel=9 note=38 velocity=110 time=0\n",
      "control_change channel=9 control=7 value=74 time=0.008\n",
      "control_change channel=9 control=7 value=75 time=0.012\n",
      "note_on channel=9 note=38 velocity=110 time=0.004\n",
      "note_on channel=9 note=40 velocity=110 time=0\n",
      "control_change channel=9 control=7 value=76 time=0.008\n",
      "note_off channel=9 note=36 velocity=110 time=0.008\n",
      "note_off channel=9 note=35 velocity=110 time=0\n",
      "control_change channel=9 control=7 value=77 time=0.004\n",
      "control_change channel=9 control=7 value=78 time=0.012\n",
      "note_off channel=9 note=38 velocity=110 time=0.004\n",
      "note_off channel=9 note=40 velocity=110 time=0\n",
      "control_change channel=9 control=7 value=79 time=0.008\n",
      "control_change channel=9 control=7 value=80 time=0.012\n",
      "note_on channel=9 note=40 velocity=110 time=0.004\n",
      "note_on channel=9 note=38 velocity=110 time=0\n",
      "control_change channel=9 control=7 value=81 time=0.008\n",
      "control_change channel=9 control=7 value=82 time=0.012\n",
      "control_change channel=9 control=7 value=83 time=0.012\n",
      "note_off channel=9 note=40 velocity=110 time=0.004\n",
      "note_off channel=9 note=38 velocity=110 time=0\n",
      "control_change channel=9 control=7 value=84 time=0.008\n",
      "control_change channel=9 control=7 value=85 time=0.012\n",
      "note_on channel=9 note=40 velocity=110 time=0.004\n",
      "note_on channel=9 note=38 velocity=110 time=0\n",
      "control_change channel=9 control=7 value=86 time=0.008\n",
      "control_change channel=9 control=7 value=87 time=0.012\n",
      "control_change channel=9 control=7 value=88 time=0.012\n",
      "note_off channel=9 note=40 velocity=110 time=0.004\n",
      "note_off channel=9 note=38 velocity=110 time=0\n",
      "control_change channel=9 control=7 value=89 time=0.008\n",
      "control_change channel=9 control=7 value=90 time=0.012\n",
      "note_on channel=9 note=40 velocity=110 time=0.004\n",
      "note_on channel=9 note=38 velocity=110 time=0\n",
      "control_change channel=9 control=7 value=91 time=0.008\n",
      "control_change channel=9 control=7 value=92 time=0.012\n",
      "control_change channel=9 control=7 value=93 time=0.012\n",
      "note_off channel=9 note=40 velocity=110 time=0.004\n",
      "note_off channel=9 note=38 velocity=110 time=0\n",
      "control_change channel=9 control=7 value=94 time=0.008\n",
      "control_change channel=9 control=7 value=95 time=0.012\n",
      "note_on channel=9 note=40 velocity=110 time=0.004\n",
      "note_on channel=9 note=38 velocity=110 time=0\n",
      "control_change channel=9 control=7 value=96 time=0.008\n",
      "control_change channel=9 control=7 value=97 time=0.012\n",
      "control_change channel=9 control=7 value=98 time=0.012\n",
      "note_off channel=9 note=40 velocity=110 time=0.004\n",
      "note_off channel=9 note=38 velocity=110 time=0\n",
      "control_change channel=9 control=7 value=99 time=0.008\n",
      "control_change channel=9 control=7 value=100 time=0.012\n",
      "note_on channel=9 note=36 velocity=110 time=0.004\n",
      "note_on channel=9 note=38 velocity=110 time=0\n",
      "note_on channel=9 note=40 velocity=110 time=0\n",
      "note_on channel=9 note=35 velocity=110 time=0\n",
      "note_on channel=9 note=49 velocity=110 time=0\n",
      "note_off channel=0 note=70 velocity=110 time=0.116\n",
      "note_off channel=0 note=74 velocity=110 time=0\n",
      "note_off channel=0 note=77 velocity=110 time=0\n",
      "note_off channel=1 note=58 velocity=110 time=0\n",
      "note_off channel=1 note=53 velocity=110 time=0\n",
      "note_off channel=1 note=65 velocity=110 time=0\n",
      "note_off channel=1 note=62 velocity=110 time=0\n",
      "note_off channel=2 note=46 velocity=110 time=0\n",
      "note_off channel=4 note=58 velocity=110 time=0\n",
      "note_off channel=4 note=62 velocity=110 time=0\n",
      "note_off channel=4 note=65 velocity=110 time=0\n",
      "note_off channel=9 note=36 velocity=110 time=0.08\n",
      "note_off channel=9 note=38 velocity=110 time=0\n",
      "note_off channel=9 note=40 velocity=110 time=0\n",
      "note_off channel=9 note=35 velocity=110 time=0\n",
      "note_off channel=9 note=49 velocity=110 time=0\n",
      "<meta message set_tempo tempo=483870 time=0.276>\n",
      "note_on channel=3 note=70 velocity=110 time=0.0080645\n",
      "note_on channel=3 note=58 velocity=110 time=0\n",
      "note_on channel=3 note=46 velocity=110 time=0\n",
      "<meta message set_tempo tempo=487804 time=0.0080645>\n",
      "<meta message set_tempo tempo=495867 time=0.008130066666666666>\n",
      "<meta message set_tempo tempo=504201 time=0.00826445>\n",
      "<meta message set_tempo tempo=508474 time=0.00840335>\n",
      "<meta message set_tempo tempo=512820 time=0.01694913333333333>\n",
      "note_off channel=3 note=70 velocity=110 time=0.0726495\n",
      "note_off channel=3 note=58 velocity=110 time=0\n",
      "note_off channel=3 note=46 velocity=110 time=0\n",
      "note_on channel=3 note=74 velocity=110 time=0.0470085\n",
      "note_on channel=3 note=50 velocity=110 time=0\n",
      "note_on channel=3 note=62 velocity=110 time=0\n",
      "note_off channel=3 note=74 velocity=110 time=0.12393150000000001\n",
      "note_off channel=3 note=50 velocity=110 time=0\n",
      "note_off channel=3 note=62 velocity=110 time=0\n",
      "note_on channel=3 note=77 velocity=110 time=0.0470085\n",
      "note_on channel=3 note=53 velocity=110 time=0\n",
      "note_on channel=3 note=65 velocity=110 time=0\n",
      "note_off channel=3 note=77 velocity=110 time=0.12393150000000001\n",
      "note_off channel=3 note=53 velocity=110 time=0\n",
      "note_off channel=3 note=65 velocity=110 time=0\n",
      "note_on channel=3 note=79 velocity=110 time=0.0470085\n",
      "note_on channel=3 note=55 velocity=110 time=0\n",
      "note_on channel=3 note=67 velocity=110 time=0\n",
      "note_on channel=0 note=75 velocity=120 time=0.51282\n",
      "note_on channel=0 note=67 velocity=120 time=0\n",
      "note_on channel=0 note=72 velocity=120 time=0\n",
      "note_on channel=1 note=48 velocity=110 time=0\n",
      "note_on channel=1 note=63 velocity=110 time=0\n",
      "note_on channel=1 note=60 velocity=110 time=0\n",
      "note_on channel=1 note=55 velocity=110 time=0\n",
      "note_on channel=2 note=48 velocity=110 time=0\n",
      "note_on channel=4 note=63 velocity=120 time=0\n",
      "note_on channel=4 note=55 velocity=120 time=0\n",
      "note_on channel=4 note=60 velocity=120 time=0\n",
      "control_change channel=9 control=7 value=80 time=0\n",
      "note_on channel=9 note=38 velocity=110 time=0\n",
      "note_on channel=9 note=40 velocity=110 time=0\n",
      "note_off channel=0 note=75 velocity=120 time=0.16666650000000002\n",
      "note_off channel=0 note=67 velocity=120 time=0\n",
      "note_off channel=0 note=72 velocity=120 time=0\n",
      "note_off channel=4 note=63 velocity=120 time=0\n",
      "note_off channel=4 note=55 velocity=120 time=0\n",
      "note_off channel=4 note=60 velocity=120 time=0\n",
      "note_off channel=2 note=48 velocity=110 time=0.0213675\n",
      "note_off channel=1 note=48 velocity=110 time=0.0213675\n",
      "note_off channel=1 note=63 velocity=110 time=0\n",
      "note_off channel=1 note=60 velocity=110 time=0\n",
      "note_off channel=1 note=55 velocity=110 time=0\n",
      "note_off channel=9 note=38 velocity=110 time=0\n",
      "note_off channel=9 note=40 velocity=110 time=0\n",
      "note_on channel=0 note=75 velocity=91 time=0.1324785\n",
      "note_on channel=0 note=72 velocity=91 time=0\n",
      "note_on channel=0 note=67 velocity=91 time=0\n",
      "note_on channel=1 note=48 velocity=91 time=0\n",
      "note_on channel=1 note=55 velocity=91 time=0\n",
      "note_on channel=1 note=60 velocity=91 time=0\n",
      "note_on channel=1 note=63 velocity=91 time=0\n",
      "note_on channel=2 note=48 velocity=91 time=0\n",
      "note_on channel=4 note=63 velocity=91 time=0\n",
      "note_on channel=4 note=60 velocity=91 time=0\n",
      "note_on channel=4 note=55 velocity=91 time=0\n",
      "note_on channel=9 note=38 velocity=92 time=0\n",
      "note_on channel=9 note=40 velocity=92 time=0\n",
      "note_off channel=9 note=38 velocity=92 time=0.0384615\n",
      "note_off channel=9 note=40 velocity=92 time=0\n",
      "note_off channel=0 note=75 velocity=91 time=0.0213675\n",
      "note_off channel=0 note=72 velocity=91 time=0\n",
      "note_off channel=0 note=67 velocity=91 time=0\n",
      "note_off channel=1 note=48 velocity=91 time=0\n",
      "note_off channel=1 note=55 velocity=91 time=0\n",
      "note_off channel=1 note=60 velocity=91 time=0\n",
      "note_off channel=1 note=63 velocity=91 time=0\n",
      "note_off channel=2 note=48 velocity=91 time=0\n",
      "note_off channel=4 note=63 velocity=91 time=0\n",
      "note_off channel=4 note=60 velocity=91 time=0\n",
      "note_off channel=4 note=55 velocity=91 time=0\n",
      "note_on channel=0 note=75 velocity=91 time=0.025641000000000004\n",
      "note_on channel=0 note=67 velocity=91 time=0\n",
      "note_on channel=0 note=72 velocity=91 time=0\n",
      "note_on channel=1 note=55 velocity=93 time=0\n",
      "note_on channel=1 note=48 velocity=93 time=0\n",
      "note_on channel=1 note=63 velocity=93 time=0\n",
      "note_on channel=1 note=60 velocity=93 time=0\n",
      "note_on channel=2 note=48 velocity=91 time=0\n",
      "note_on channel=4 note=63 velocity=91 time=0\n",
      "note_on channel=4 note=55 velocity=91 time=0\n",
      "note_on channel=4 note=60 velocity=91 time=0\n",
      "note_on channel=9 note=38 velocity=91 time=0\n",
      "note_on channel=9 note=40 velocity=91 time=0\n",
      "note_off channel=9 note=38 velocity=91 time=0.0384615\n",
      "note_off channel=9 note=40 velocity=91 time=0\n",
      "note_off channel=0 note=75 velocity=91 time=0.0213675\n",
      "note_off channel=0 note=67 velocity=91 time=0\n",
      "note_off channel=0 note=72 velocity=91 time=0\n",
      "note_off channel=1 note=55 velocity=93 time=0\n",
      "note_off channel=1 note=48 velocity=93 time=0\n",
      "note_off channel=1 note=63 velocity=93 time=0\n",
      "note_off channel=1 note=60 velocity=93 time=0\n",
      "note_off channel=2 note=48 velocity=91 time=0\n",
      "note_off channel=4 note=63 velocity=91 time=0\n",
      "note_off channel=4 note=55 velocity=91 time=0\n",
      "note_off channel=4 note=60 velocity=91 time=0\n",
      "note_on channel=0 note=75 velocity=110 time=0.025641000000000004\n",
      "note_on channel=0 note=67 velocity=110 time=0\n",
      "note_on channel=0 note=72 velocity=110 time=0\n",
      "note_on channel=1 note=55 velocity=110 time=0\n",
      "note_on channel=1 note=48 velocity=110 time=0\n",
      "note_on channel=1 note=63 velocity=110 time=0\n",
      "note_on channel=1 note=60 velocity=110 time=0\n",
      "note_on channel=2 note=48 velocity=91 time=0\n",
      "note_on channel=4 note=63 velocity=110 time=0\n",
      "note_on channel=4 note=55 velocity=110 time=0\n",
      "note_on channel=4 note=60 velocity=110 time=0\n",
      "control_change channel=9 control=7 value=80 time=0\n",
      "note_on channel=9 note=38 velocity=111 time=0\n",
      "note_on channel=9 note=40 velocity=111 time=0\n",
      "control_change channel=9 control=7 value=79 time=0.008547\n",
      "control_change channel=9 control=7 value=78 time=0.008547\n",
      "control_change channel=9 control=7 value=77 time=0.008547\n",
      "control_change channel=9 control=7 value=76 time=0.008547\n",
      "note_off channel=9 note=38 velocity=111 time=0.0042735\n",
      "note_off channel=9 note=40 velocity=111 time=0\n",
      "control_change channel=9 control=7 value=75 time=0.008547\n",
      "control_change channel=9 control=7 value=74 time=0.008547\n",
      "control_change channel=9 control=7 value=73 time=0.008547\n",
      "note_on channel=9 note=38 velocity=108 time=0\n",
      "note_on channel=9 note=40 velocity=108 time=0\n",
      "control_change channel=9 control=7 value=72 time=0.008547\n",
      "control_change channel=9 control=7 value=71 time=0.012820500000000002\n",
      "control_change channel=9 control=7 value=70 time=0.008547\n",
      "control_change channel=9 control=7 value=69 time=0.008547\n",
      "note_off channel=9 note=38 velocity=108 time=0\n",
      "note_off channel=9 note=40 velocity=108 time=0\n",
      "control_change channel=9 control=7 value=68 time=0.008547\n",
      "control_change channel=9 control=7 value=67 time=0.012820500000000002\n",
      "note_on channel=9 note=38 velocity=105 time=0.0042735\n",
      "note_on channel=9 note=40 velocity=105 time=0\n",
      "control_change channel=9 control=7 value=66 time=0.0042735\n",
      "control_change channel=9 control=7 value=65 time=0.008547\n",
      "control_change channel=9 control=7 value=64 time=0.008547\n",
      "control_change channel=9 control=7 value=63 time=0.012820500000000002\n",
      "note_off channel=9 note=38 velocity=105 time=0.0042735\n",
      "note_off channel=9 note=40 velocity=105 time=0\n",
      "control_change channel=9 control=7 value=62 time=0.0042735\n",
      "control_change channel=9 control=7 value=61 time=0.008547\n",
      "control_change channel=9 control=7 value=60 time=0.008547\n",
      "note_on channel=9 note=38 velocity=103 time=0.0042735\n",
      "note_on channel=9 note=40 velocity=103 time=0\n",
      "control_change channel=9 control=7 value=59 time=0.0042735\n",
      "control_change channel=9 control=7 value=58 time=0.012820500000000002\n",
      "control_change channel=9 control=7 value=57 time=0.008547\n",
      "control_change channel=9 control=7 value=56 time=0.008547\n",
      "note_off channel=9 note=38 velocity=103 time=0.0042735\n",
      "note_off channel=9 note=40 velocity=103 time=0\n",
      "control_change channel=9 control=7 value=55 time=0.0042735\n",
      "control_change channel=9 control=7 value=54 time=0.012820500000000002\n",
      "control_change channel=9 control=7 value=53 time=0.008547\n",
      "note_on channel=9 note=38 velocity=100 time=0\n",
      "note_on channel=9 note=40 velocity=100 time=0\n",
      "control_change channel=9 control=7 value=52 time=0.008547\n",
      "control_change channel=9 control=7 value=51 time=0.008547\n",
      "control_change channel=9 control=7 value=50 time=0.012820500000000002\n",
      "control_change channel=9 control=7 value=49 time=0.008547\n",
      "note_off channel=9 note=38 velocity=100 time=0\n",
      "note_off channel=9 note=40 velocity=100 time=0\n",
      "control_change channel=9 control=7 value=48 time=0.008547\n",
      "control_change channel=9 control=7 value=47 time=0.008547\n",
      "note_on channel=9 note=38 velocity=97 time=0.008547\n",
      "note_on channel=9 note=40 velocity=97 time=0\n",
      "control_change channel=9 control=7 value=46 time=0.0042735\n",
      "control_change channel=9 control=7 value=45 time=0.008547\n",
      "control_change channel=9 control=7 value=44 time=0.008547\n",
      "control_change channel=9 control=7 value=43 time=0.008547\n",
      "note_off channel=9 note=38 velocity=97 time=0.008547\n",
      "note_off channel=9 note=40 velocity=97 time=0\n",
      "control_change channel=9 control=7 value=42 time=0.0042735\n",
      "control_change channel=9 control=7 value=41 time=0.008547\n",
      "control_change channel=9 control=7 value=40 time=0.008547\n",
      "note_on channel=9 note=38 velocity=96 time=0.0042735\n",
      "note_on channel=9 note=40 velocity=96 time=0\n",
      "control_change channel=9 control=7 value=39 time=0.0042735\n",
      "control_change channel=9 control=7 value=38 time=0.008547\n",
      "control_change channel=9 control=7 value=37 time=0.012820500000000002\n",
      "control_change channel=9 control=7 value=36 time=0.008547\n",
      "note_off channel=9 note=38 velocity=96 time=0.0042735\n",
      "note_off channel=9 note=40 velocity=96 time=0\n",
      "control_change channel=9 control=7 value=35 time=0.0042735\n",
      "control_change channel=9 control=7 value=34 time=0.008547\n",
      "control_change channel=9 control=7 value=33 time=0.012820500000000002\n",
      "note_on channel=9 note=40 velocity=94 time=0\n",
      "note_on channel=9 note=38 velocity=94 time=0\n",
      "control_change channel=9 control=7 value=32 time=0.008547\n",
      "control_change channel=9 control=7 value=31 time=0.008547\n",
      "control_change channel=9 control=7 value=30 time=0.008547\n",
      "control_change channel=9 control=7 value=29 time=0.012820500000000002\n",
      "note_off channel=9 note=38 velocity=94 time=0\n",
      "control_change channel=9 control=7 value=28 time=0.008547\n",
      "control_change channel=9 control=7 value=27 time=0.008547\n",
      "note_off channel=0 note=75 velocity=110 time=0.0042735\n",
      "note_off channel=0 note=67 velocity=110 time=0\n",
      "note_off channel=0 note=72 velocity=110 time=0\n",
      "note_off channel=1 note=55 velocity=110 time=0\n",
      "note_off channel=1 note=48 velocity=110 time=0\n",
      "note_off channel=1 note=63 velocity=110 time=0\n",
      "note_off channel=1 note=60 velocity=110 time=0\n",
      "note_off channel=2 note=48 velocity=91 time=0\n",
      "note_off channel=3 note=79 velocity=110 time=0\n",
      "note_off channel=3 note=55 velocity=110 time=0\n",
      "note_off channel=3 note=67 velocity=110 time=0\n",
      "note_off channel=4 note=63 velocity=110 time=0\n",
      "note_off channel=4 note=55 velocity=110 time=0\n",
      "note_off channel=4 note=60 velocity=110 time=0\n",
      "note_off channel=9 note=40 velocity=94 time=0\n",
      "note_on channel=3 note=72 velocity=110 time=0.0042735\n",
      "note_on channel=3 note=48 velocity=110 time=0\n",
      "note_on channel=3 note=60 velocity=110 time=0\n",
      "control_change channel=9 control=7 value=60 time=0\n",
      "note_on channel=9 note=38 velocity=90 time=0\n",
      "note_on channel=9 note=40 velocity=90 time=0\n",
      "note_off channel=3 note=72 velocity=110 time=0.12393150000000001\n",
      "note_off channel=3 note=48 velocity=110 time=0\n",
      "note_off channel=3 note=60 velocity=110 time=0\n",
      "note_off channel=9 note=38 velocity=90 time=0\n",
      "note_off channel=9 note=40 velocity=90 time=0\n",
      "note_on channel=3 note=75 velocity=110 time=0.0470085\n",
      "note_on channel=3 note=51 velocity=110 time=0\n",
      "note_on channel=3 note=63 velocity=110 time=0\n",
      "note_off channel=3 note=75 velocity=110 time=0.12393150000000001\n",
      "note_off channel=3 note=51 velocity=110 time=0\n",
      "note_off channel=3 note=63 velocity=110 time=0\n",
      "note_on channel=3 note=79 velocity=110 time=0.0470085\n",
      "note_on channel=3 note=55 velocity=110 time=0\n",
      "note_on channel=3 note=67 velocity=110 time=0\n",
      "note_off channel=3 note=79 velocity=110 time=0.12393150000000001\n",
      "note_off channel=3 note=55 velocity=110 time=0\n",
      "note_off channel=3 note=67 velocity=110 time=0\n",
      "note_on channel=3 note=82 velocity=110 time=0.0470085\n",
      "note_on channel=3 note=70 velocity=110 time=0\n",
      "note_on channel=3 note=58 velocity=110 time=0\n",
      "note_on channel=0 note=67 velocity=122 time=0.51282\n",
      "note_on channel=0 note=70 velocity=122 time=0\n",
      "note_on channel=0 note=75 velocity=122 time=0\n",
      "note_on channel=1 note=58 velocity=110 time=0\n",
      "note_on channel=1 note=55 velocity=110 time=0\n",
      "note_on channel=1 note=51 velocity=110 time=0\n",
      "note_on channel=1 note=63 velocity=110 time=0\n",
      "note_on channel=2 note=41 velocity=91 time=0\n",
      "note_on channel=4 note=55 velocity=122 time=0\n",
      "note_on channel=4 note=58 velocity=122 time=0\n",
      "note_on channel=4 note=63 velocity=122 time=0\n",
      "control_change channel=9 control=7 value=80 time=0\n",
      "note_on channel=9 note=38 velocity=111 time=0\n",
      "note_on channel=9 note=40 velocity=111 time=0\n",
      "note_off channel=0 note=67 velocity=122 time=0.16666650000000002\n",
      "note_off channel=0 note=70 velocity=122 time=0\n",
      "note_off channel=0 note=75 velocity=122 time=0\n",
      "note_off channel=4 note=55 velocity=122 time=0\n",
      "note_off channel=4 note=58 velocity=122 time=0\n",
      "note_off channel=4 note=63 velocity=122 time=0\n",
      "note_off channel=1 note=58 velocity=110 time=0.042735\n",
      "note_off channel=1 note=55 velocity=110 time=0\n",
      "note_off channel=1 note=51 velocity=110 time=0\n",
      "note_off channel=1 note=63 velocity=110 time=0\n",
      "note_off channel=2 note=41 velocity=91 time=0\n",
      "note_off channel=9 note=38 velocity=111 time=0\n",
      "note_off channel=9 note=40 velocity=111 time=0\n",
      "note_on channel=0 note=67 velocity=88 time=0.1324785\n",
      "note_on channel=0 note=70 velocity=88 time=0\n",
      "note_on channel=0 note=75 velocity=88 time=0\n",
      "note_on channel=1 note=51 velocity=90 time=0\n",
      "note_on channel=1 note=55 velocity=90 time=0\n",
      "note_on channel=1 note=58 velocity=90 time=0\n",
      "note_on channel=1 note=63 velocity=90 time=0\n",
      "note_on channel=2 note=41 velocity=91 time=0\n",
      "note_on channel=4 note=55 velocity=88 time=0\n",
      "note_on channel=4 note=58 velocity=88 time=0\n",
      "note_on channel=4 note=63 velocity=88 time=0\n",
      "note_on channel=9 note=38 velocity=91 time=0\n",
      "note_on channel=9 note=40 velocity=91 time=0\n",
      "note_off channel=9 note=38 velocity=91 time=0.0384615\n",
      "note_off channel=9 note=40 velocity=91 time=0\n",
      "note_off channel=0 note=67 velocity=88 time=0.0213675\n",
      "note_off channel=0 note=70 velocity=88 time=0\n",
      "note_off channel=0 note=75 velocity=88 time=0\n",
      "note_off channel=1 note=51 velocity=90 time=0\n",
      "note_off channel=1 note=55 velocity=90 time=0\n",
      "note_off channel=1 note=58 velocity=90 time=0\n",
      "note_off channel=1 note=63 velocity=90 time=0\n",
      "note_off channel=2 note=41 velocity=91 time=0\n",
      "note_off channel=4 note=55 velocity=88 time=0\n",
      "note_off channel=4 note=58 velocity=88 time=0\n",
      "note_off channel=4 note=63 velocity=88 time=0\n",
      "note_on channel=0 note=67 velocity=88 time=0.025641000000000004\n",
      "note_on channel=0 note=70 velocity=88 time=0\n",
      "note_on channel=0 note=75 velocity=88 time=0\n",
      "note_on channel=1 note=51 velocity=90 time=0\n",
      "note_on channel=1 note=55 velocity=90 time=0\n",
      "note_on channel=1 note=58 velocity=90 time=0\n",
      "note_on channel=1 note=63 velocity=90 time=0\n",
      "note_on channel=2 note=41 velocity=91 time=0\n",
      "note_on channel=4 note=55 velocity=88 time=0\n",
      "note_on channel=4 note=58 velocity=88 time=0\n",
      "note_on channel=4 note=63 velocity=88 time=0\n",
      "note_on channel=9 note=38 velocity=91 time=0\n",
      "note_on channel=9 note=40 velocity=91 time=0\n",
      "note_off channel=9 note=38 velocity=91 time=0.0384615\n",
      "note_off channel=9 note=40 velocity=91 time=0\n",
      "note_off channel=0 note=67 velocity=88 time=0.0213675\n",
      "note_off channel=0 note=70 velocity=88 time=0\n",
      "note_off channel=0 note=75 velocity=88 time=0\n",
      "note_off channel=1 note=51 velocity=90 time=0\n",
      "note_off channel=1 note=55 velocity=90 time=0\n",
      "note_off channel=1 note=58 velocity=90 time=0\n",
      "note_off channel=1 note=63 velocity=90 time=0\n",
      "note_off channel=2 note=41 velocity=91 time=0\n",
      "note_off channel=4 note=55 velocity=88 time=0\n",
      "note_off channel=4 note=58 velocity=88 time=0\n",
      "note_off channel=4 note=63 velocity=88 time=0\n",
      "note_on channel=0 note=65 velocity=110 time=0.025641000000000004\n",
      "note_on channel=0 note=69 velocity=110 time=0\n",
      "note_on channel=0 note=75 velocity=110 time=0\n",
      "note_on channel=1 note=53 velocity=110 time=0\n",
      "note_on channel=1 note=57 velocity=110 time=0\n",
      "note_on channel=1 note=63 velocity=110 time=0\n",
      "note_on channel=2 note=41 velocity=91 time=0\n",
      "note_on channel=4 note=53 velocity=110 time=0\n",
      "note_on channel=4 note=63 velocity=110 time=0\n",
      "note_on channel=4 note=60 velocity=110 time=0\n",
      "note_on channel=4 note=57 velocity=110 time=0\n",
      "control_change channel=9 control=7 value=80 time=0\n",
      "note_on channel=9 note=38 velocity=110 time=0\n",
      "note_on channel=9 note=40 velocity=110 time=0\n",
      "control_change channel=9 control=7 value=79 time=0.008547\n",
      "control_change channel=9 control=7 value=78 time=0.008547\n",
      "control_change channel=9 control=7 value=77 time=0.008547\n",
      "control_change channel=9 control=7 value=76 time=0.008547\n",
      "note_off channel=9 note=38 velocity=110 time=0.0042735\n",
      "note_off channel=9 note=40 velocity=110 time=0\n",
      "control_change channel=9 control=7 value=75 time=0.008547\n",
      "control_change channel=9 control=7 value=74 time=0.008547\n",
      "control_change channel=9 control=7 value=73 time=0.008547\n",
      "note_on channel=9 note=38 velocity=108 time=0\n",
      "note_on channel=9 note=40 velocity=108 time=0\n",
      "control_change channel=9 control=7 value=72 time=0.008547\n",
      "control_change channel=9 control=7 value=71 time=0.012820500000000002\n",
      "control_change channel=9 control=7 value=70 time=0.008547\n",
      "control_change channel=9 control=7 value=69 time=0.008547\n",
      "note_off channel=9 note=38 velocity=108 time=0\n",
      "note_off channel=9 note=40 velocity=108 time=0\n",
      "control_change channel=9 control=7 value=68 time=0.008547\n",
      "control_change channel=9 control=7 value=67 time=0.012820500000000002\n",
      "note_on channel=9 note=38 velocity=104 time=0.0042735\n",
      "note_on channel=9 note=40 velocity=104 time=0\n",
      "control_change channel=9 control=7 value=66 time=0.0042735\n",
      "control_change channel=9 control=7 value=65 time=0.008547\n",
      "control_change channel=9 control=7 value=64 time=0.008547\n",
      "control_change channel=9 control=7 value=63 time=0.012820500000000002\n",
      "note_off channel=9 note=38 velocity=104 time=0.0042735\n",
      "note_off channel=9 note=40 velocity=104 time=0\n",
      "control_change channel=9 control=7 value=62 time=0.0042735\n",
      "control_change channel=9 control=7 value=61 time=0.008547\n",
      "control_change channel=9 control=7 value=60 time=0.008547\n",
      "note_on channel=9 note=38 velocity=100 time=0.0042735\n",
      "note_on channel=9 note=40 velocity=100 time=0\n",
      "control_change channel=9 control=7 value=59 time=0.0042735\n",
      "control_change channel=9 control=7 value=58 time=0.012820500000000002\n",
      "control_change channel=9 control=7 value=57 time=0.008547\n",
      "control_change channel=9 control=7 value=56 time=0.008547\n",
      "note_off channel=9 note=38 velocity=100 time=0.0042735\n",
      "note_off channel=9 note=40 velocity=100 time=0\n",
      "control_change channel=9 control=7 value=55 time=0.0042735\n",
      "control_change channel=9 control=7 value=54 time=0.012820500000000002\n",
      "control_change channel=9 control=7 value=53 time=0.008547\n",
      "note_on channel=9 note=40 velocity=98 time=0\n",
      "note_on channel=9 note=38 velocity=98 time=0\n",
      "control_change channel=9 control=7 value=52 time=0.008547\n",
      "control_change channel=9 control=7 value=51 time=0.008547\n",
      "control_change channel=9 control=7 value=50 time=0.012820500000000002\n",
      "control_change channel=9 control=7 value=49 time=0.008547\n",
      "note_off channel=9 note=40 velocity=98 time=0\n",
      "note_off channel=9 note=38 velocity=98 time=0\n",
      "control_change channel=9 control=7 value=48 time=0.008547\n",
      "control_change channel=9 control=7 value=47 time=0.008547\n",
      "note_on channel=9 note=38 velocity=95 time=0.008547\n",
      "note_on channel=9 note=40 velocity=95 time=0\n",
      "control_change channel=9 control=7 value=46 time=0.0042735\n",
      "control_change channel=9 control=7 value=45 time=0.008547\n",
      "control_change channel=9 control=7 value=44 time=0.008547\n",
      "control_change channel=9 control=7 value=43 time=0.008547\n",
      "note_off channel=9 note=38 velocity=95 time=0.008547\n",
      "note_off channel=9 note=40 velocity=95 time=0\n",
      "control_change channel=9 control=7 value=42 time=0.0042735\n",
      "control_change channel=9 control=7 value=41 time=0.008547\n",
      "control_change channel=9 control=7 value=40 time=0.008547\n",
      "note_on channel=9 note=38 velocity=92 time=0.0042735\n",
      "note_on channel=9 note=40 velocity=92 time=0\n",
      "control_change channel=9 control=7 value=39 time=0.0042735\n",
      "control_change channel=9 control=7 value=38 time=0.008547\n",
      "control_change channel=9 control=7 value=37 time=0.012820500000000002\n",
      "control_change channel=9 control=7 value=36 time=0.008547\n",
      "note_off channel=9 note=38 velocity=92 time=0.0042735\n",
      "note_off channel=9 note=40 velocity=92 time=0\n",
      "control_change channel=9 control=7 value=35 time=0.0042735\n",
      "control_change channel=9 control=7 value=34 time=0.008547\n",
      "control_change channel=9 control=7 value=33 time=0.012820500000000002\n",
      "note_on channel=9 note=40 velocity=91 time=0\n",
      "note_on channel=9 note=38 velocity=91 time=0\n",
      "control_change channel=9 control=7 value=32 time=0.008547\n",
      "control_change channel=9 control=7 value=31 time=0.008547\n",
      "control_change channel=9 control=7 value=30 time=0.008547\n",
      "control_change channel=9 control=7 value=29 time=0.012820500000000002\n",
      "note_off channel=9 note=38 velocity=91 time=0\n",
      "control_change channel=9 control=7 value=28 time=0.008547\n",
      "<meta message set_tempo tempo=550458 time=0.008547>\n",
      "control_change channel=9 control=7 value=27 time=0\n",
      "note_off channel=0 note=65 velocity=110 time=0.00458715\n",
      "note_off channel=0 note=69 velocity=110 time=0\n",
      "note_off channel=0 note=75 velocity=110 time=0\n",
      "note_off channel=1 note=53 velocity=110 time=0\n",
      "note_off channel=1 note=57 velocity=110 time=0\n",
      "note_off channel=1 note=63 velocity=110 time=0\n",
      "note_off channel=2 note=41 velocity=91 time=0\n",
      "note_off channel=3 note=82 velocity=110 time=0\n",
      "note_off channel=3 note=70 velocity=110 time=0\n",
      "note_off channel=3 note=58 velocity=110 time=0\n",
      "note_off channel=4 note=53 velocity=110 time=0\n",
      "note_off channel=4 note=63 velocity=110 time=0\n",
      "note_off channel=4 note=60 velocity=110 time=0\n",
      "note_off channel=4 note=57 velocity=110 time=0\n",
      "note_off channel=9 note=40 velocity=91 time=0\n",
      "<meta message set_tempo tempo=555555 time=0.00458715>\n",
      "note_on channel=3 note=48 velocity=110 time=0\n",
      "note_on channel=3 note=60 velocity=110 time=0\n",
      "note_on channel=3 note=72 velocity=110 time=0\n",
      "control_change channel=9 control=7 value=60 time=0\n",
      "note_on channel=9 note=38 velocity=91 time=0\n",
      "note_on channel=9 note=40 velocity=91 time=0\n",
      "<meta message set_tempo tempo=566037 time=0.00925925>\n",
      "<meta message set_tempo tempo=571428 time=0.0188679>\n",
      "<meta message set_tempo tempo=576923 time=0.0190476>\n",
      "<meta message set_tempo tempo=582524 time=0.009615383333333333>\n",
      "<meta message set_tempo tempo=588235 time=0.019417466666666668>\n",
      "<meta message set_tempo tempo=594059 time=0.03921566666666666>\n",
      "<meta message set_tempo tempo=600000 time=0.019801966666666667>\n",
      "note_off channel=3 note=48 velocity=110 time=0.005\n",
      "note_off channel=3 note=60 velocity=110 time=0\n",
      "note_off channel=3 note=72 velocity=110 time=0\n",
      "note_off channel=9 note=38 velocity=91 time=0\n",
      "note_off channel=9 note=40 velocity=91 time=0\n",
      "<meta message set_tempo tempo=606060 time=0.045>\n",
      "note_on channel=3 note=51 velocity=110 time=0.010101\n",
      "note_on channel=3 note=63 velocity=110 time=0\n",
      "note_on channel=3 note=75 velocity=110 time=0\n",
      "<meta message set_tempo tempo=612244 time=0.010101>\n",
      "<meta message set_tempo tempo=618556 time=0.010204066666666668>\n",
      "<meta message set_tempo tempo=625000 time=0.061855600000000004>\n",
      "note_off channel=3 note=51 velocity=110 time=0.06770833333333333\n",
      "note_off channel=3 note=63 velocity=110 time=0\n",
      "note_off channel=3 note=75 velocity=110 time=0\n",
      "<meta message set_tempo tempo=631578 time=0.005208333333333333>\n",
      "note_on channel=3 note=54 velocity=110 time=0.0526315\n",
      "note_on channel=3 note=66 velocity=110 time=0\n",
      "note_on channel=3 note=78 velocity=110 time=0\n",
      "note_off channel=3 note=54 velocity=110 time=0.15263134999999997\n",
      "note_off channel=3 note=66 velocity=110 time=0\n",
      "note_off channel=3 note=78 velocity=110 time=0\n",
      "note_on channel=3 note=58 velocity=110 time=0.05789464999999999\n",
      "note_on channel=3 note=70 velocity=110 time=0\n",
      "note_on channel=3 note=82 velocity=110 time=0\n",
      "<meta message set_tempo tempo=625000 time=0.08421039999999999>\n",
      "<meta message set_tempo tempo=666666 time=0.5416666666666666>\n",
      "note_on channel=0 note=70 velocity=110 time=0\n",
      "note_on channel=0 note=74 velocity=110 time=0\n",
      "note_on channel=0 note=77 velocity=110 time=0\n",
      "note_on channel=1 note=62 velocity=110 time=0\n",
      "note_on channel=1 note=58 velocity=110 time=0\n",
      "note_on channel=1 note=53 velocity=110 time=0\n",
      "note_on channel=1 note=65 velocity=110 time=0\n",
      "note_on channel=2 note=41 velocity=91 time=0\n",
      "note_on channel=4 note=58 velocity=110 time=0\n",
      "note_on channel=4 note=62 velocity=110 time=0\n",
      "note_on channel=4 note=65 velocity=110 time=0\n",
      "note_off channel=0 note=70 velocity=110 time=0.16111095\n",
      "note_off channel=0 note=74 velocity=110 time=0\n",
      "note_off channel=0 note=77 velocity=110 time=0\n",
      "note_off channel=1 note=62 velocity=110 time=0\n",
      "note_off channel=1 note=58 velocity=110 time=0\n",
      "note_off channel=1 note=53 velocity=110 time=0\n",
      "note_off channel=1 note=65 velocity=110 time=0\n",
      "note_off channel=2 note=41 velocity=91 time=0\n",
      "note_off channel=4 note=58 velocity=110 time=0\n",
      "note_off channel=4 note=62 velocity=110 time=0\n",
      "note_off channel=4 note=65 velocity=110 time=0\n",
      "note_on channel=0 note=70 velocity=110 time=0.06111105\n",
      "note_on channel=0 note=65 velocity=110 time=0\n",
      "note_on channel=0 note=74 velocity=110 time=0\n",
      "note_on channel=1 note=58 velocity=110 time=0\n",
      "note_on channel=1 note=53 velocity=110 time=0\n",
      "note_on channel=1 note=50 velocity=110 time=0\n",
      "note_on channel=1 note=62 velocity=110 time=0\n",
      "note_on channel=2 note=41 velocity=91 time=0\n",
      "note_on channel=4 note=58 velocity=110 time=0\n",
      "note_on channel=4 note=53 velocity=110 time=0\n",
      "note_on channel=4 note=62 velocity=110 time=0\n",
      "note_off channel=0 note=70 velocity=110 time=0.16111095\n",
      "note_off channel=0 note=65 velocity=110 time=0\n",
      "note_off channel=0 note=74 velocity=110 time=0\n",
      "note_off channel=1 note=58 velocity=110 time=0\n",
      "note_off channel=1 note=53 velocity=110 time=0\n",
      "note_off channel=1 note=50 velocity=110 time=0\n",
      "note_off channel=1 note=62 velocity=110 time=0\n",
      "note_off channel=2 note=41 velocity=91 time=0\n",
      "note_off channel=4 note=58 velocity=110 time=0\n",
      "note_off channel=4 note=53 velocity=110 time=0\n",
      "note_off channel=4 note=62 velocity=110 time=0\n",
      "note_on channel=0 note=72 velocity=110 time=0.06111105\n",
      "note_on channel=0 note=69 velocity=110 time=0\n",
      "note_on channel=0 note=75 velocity=110 time=0\n",
      "note_on channel=1 note=60 velocity=110 time=0\n",
      "note_on channel=1 note=57 velocity=110 time=0\n",
      "note_on channel=1 note=51 velocity=110 time=0\n",
      "note_on channel=1 note=63 velocity=110 time=0\n",
      "note_on channel=2 note=41 velocity=91 time=0\n",
      "note_on channel=4 note=60 velocity=110 time=0\n",
      "note_on channel=4 note=57 velocity=110 time=0\n",
      "note_on channel=4 note=63 velocity=110 time=0\n",
      "note_off channel=0 note=72 velocity=110 time=0.16111095\n",
      "note_off channel=0 note=69 velocity=110 time=0\n",
      "note_off channel=0 note=75 velocity=110 time=0\n",
      "note_off channel=1 note=60 velocity=110 time=0\n",
      "note_off channel=1 note=57 velocity=110 time=0\n",
      "note_off channel=1 note=51 velocity=110 time=0\n",
      "note_off channel=1 note=63 velocity=110 time=0\n",
      "note_off channel=2 note=41 velocity=91 time=0\n",
      "note_off channel=4 note=60 velocity=110 time=0\n",
      "note_off channel=4 note=57 velocity=110 time=0\n",
      "note_off channel=4 note=63 velocity=110 time=0\n",
      "<meta message set_tempo tempo=714285 time=0.06111105>\n",
      "note_on channel=0 note=77 velocity=110 time=0\n",
      "note_on channel=0 note=70 velocity=110 time=0\n",
      "note_on channel=0 note=74 velocity=110 time=0\n",
      "note_on channel=1 note=62 velocity=110 time=0\n",
      "note_on channel=1 note=53 velocity=110 time=0\n",
      "note_on channel=1 note=46 velocity=110 time=0\n",
      "note_on channel=1 note=58 velocity=110 time=0\n",
      "note_on channel=1 note=65 velocity=110 time=0\n",
      "note_on channel=2 note=34 velocity=91 time=0\n",
      "note_on channel=4 note=65 velocity=110 time=0\n",
      "note_on channel=4 note=58 velocity=110 time=0\n",
      "note_on channel=4 note=62 velocity=110 time=0\n",
      "control_change channel=9 control=7 value=80 time=0\n",
      "note_on channel=9 note=36 velocity=109 time=0\n",
      "note_on channel=9 note=35 velocity=109 time=0\n",
      "note_on channel=9 note=38 velocity=109 time=0\n",
      "note_on channel=9 note=40 velocity=109 time=0\n",
      "control_change channel=9 control=7 value=79 time=0.029761874999999997\n",
      "note_off channel=9 note=40 velocity=109 time=0.023809499999999997\n",
      "control_change channel=9 control=7 value=78 time=0.011904749999999999\n",
      "note_off channel=9 note=38 velocity=109 time=0.017857124999999998\n",
      "note_on channel=9 note=38 velocity=106 time=0.005952374999999999\n",
      "note_on channel=9 note=40 velocity=106 time=0\n",
      "control_change channel=9 control=7 value=77 time=0.011904749999999999\n",
      "control_change channel=9 control=7 value=76 time=0.035714249999999996\n",
      "control_change channel=9 control=7 value=75 time=0.035714249999999996\n",
      "note_off channel=9 note=38 velocity=106 time=0\n",
      "note_off channel=9 note=40 velocity=106 time=0\n",
      "note_on channel=9 note=38 velocity=102 time=0.005952374999999999\n",
      "note_on channel=9 note=40 velocity=102 time=0\n",
      "control_change channel=9 control=7 value=74 time=0.029761874999999997\n",
      "control_change channel=9 control=7 value=73 time=0.035714249999999996\n",
      "note_off channel=9 note=36 velocity=109 time=0.017857124999999998\n",
      "note_off channel=9 note=35 velocity=109 time=0\n",
      "note_off channel=9 note=38 velocity=102 time=0\n",
      "note_off channel=9 note=40 velocity=102 time=0\n",
      "note_on channel=9 note=38 velocity=101 time=0.005952374999999999\n",
      "note_on channel=9 note=40 velocity=101 time=0\n",
      "control_change channel=9 control=7 value=72 time=0.011904749999999999\n",
      "control_change channel=9 control=7 value=71 time=0.035714249999999996\n",
      "control_change channel=9 control=7 value=70 time=0.035714249999999996\n",
      "note_off channel=9 note=38 velocity=101 time=0\n",
      "note_off channel=9 note=40 velocity=101 time=0\n",
      "note_on channel=9 note=38 velocity=100 time=0.005952374999999999\n",
      "note_on channel=9 note=40 velocity=100 time=0\n",
      "control_change channel=9 control=7 value=69 time=0.029761874999999997\n",
      "control_change channel=9 control=7 value=68 time=0.035714249999999996\n",
      "note_off channel=9 note=38 velocity=100 time=0.017857124999999998\n",
      "note_off channel=9 note=40 velocity=100 time=0\n",
      "note_on channel=9 note=38 velocity=100 time=0.005952374999999999\n",
      "note_on channel=9 note=40 velocity=100 time=0\n",
      "control_change channel=9 control=7 value=67 time=0.011904749999999999\n",
      "control_change channel=9 control=7 value=66 time=0.035714249999999996\n",
      "control_change channel=9 control=7 value=65 time=0.035714249999999996\n",
      "note_off channel=9 note=38 velocity=100 time=0\n",
      "note_off channel=9 note=40 velocity=100 time=0\n",
      "note_on channel=9 note=38 velocity=98 time=0.005952374999999999\n",
      "note_on channel=9 note=40 velocity=98 time=0\n",
      "control_change channel=9 control=7 value=64 time=0.029761874999999997\n",
      "control_change channel=9 control=7 value=63 time=0.035714249999999996\n",
      "note_off channel=9 note=38 velocity=98 time=0.017857124999999998\n",
      "note_off channel=9 note=40 velocity=98 time=0\n",
      "note_on channel=9 note=38 velocity=98 time=0.005952374999999999\n",
      "note_on channel=9 note=40 velocity=98 time=0\n",
      "control_change channel=9 control=7 value=62 time=0.011904749999999999\n",
      "control_change channel=9 control=7 value=61 time=0.035714249999999996\n",
      "control_change channel=9 control=7 value=60 time=0.035714249999999996\n",
      "note_off channel=9 note=38 velocity=98 time=0\n",
      "note_off channel=9 note=40 velocity=98 time=0\n",
      "<meta message set_tempo tempo=769230 time=0.005952374999999999>\n",
      "control_change channel=9 control=7 value=60 time=0\n",
      "note_on channel=9 note=38 velocity=97 time=0\n",
      "note_on channel=9 note=40 velocity=97 time=0\n",
      "control_change channel=9 control=7 value=59 time=0.03205125\n",
      "control_change channel=9 control=7 value=58 time=0.0384615\n",
      "note_off channel=9 note=38 velocity=97 time=0.01923075\n",
      "note_off channel=9 note=40 velocity=97 time=0\n",
      "note_on channel=9 note=38 velocity=97 time=0.00641025\n",
      "note_on channel=9 note=40 velocity=97 time=0\n",
      "control_change channel=9 control=7 value=57 time=0.0128205\n",
      "control_change channel=9 control=7 value=56 time=0.0384615\n",
      "control_change channel=9 control=7 value=55 time=0.0384615\n",
      "note_off channel=9 note=38 velocity=97 time=0\n",
      "note_off channel=9 note=40 velocity=97 time=0\n",
      "note_on channel=9 note=38 velocity=97 time=0.00641025\n",
      "note_on channel=9 note=40 velocity=97 time=0\n",
      "control_change channel=9 control=7 value=54 time=0.03205125\n",
      "control_change channel=9 control=7 value=53 time=0.0384615\n",
      "note_off channel=9 note=38 velocity=97 time=0.01923075\n",
      "note_off channel=9 note=40 velocity=97 time=0\n",
      "note_on channel=9 note=38 velocity=96 time=0.00641025\n",
      "note_on channel=9 note=40 velocity=96 time=0\n",
      "control_change channel=9 control=7 value=52 time=0.0128205\n",
      "control_change channel=9 control=7 value=51 time=0.0384615\n",
      "control_change channel=9 control=7 value=50 time=0.0384615\n",
      "note_off channel=9 note=38 velocity=96 time=0\n",
      "note_off channel=9 note=40 velocity=96 time=0\n",
      "note_on channel=9 note=38 velocity=94 time=0.00641025\n",
      "note_on channel=9 note=40 velocity=94 time=0\n",
      "control_change channel=9 control=7 value=49 time=0.03205125\n",
      "control_change channel=9 control=7 value=48 time=0.0384615\n",
      "note_off channel=9 note=38 velocity=94 time=0.01923075\n",
      "note_off channel=9 note=40 velocity=94 time=0\n",
      "note_on channel=9 note=38 velocity=92 time=0.00641025\n",
      "note_on channel=9 note=40 velocity=92 time=0\n",
      "control_change channel=9 control=7 value=47 time=0.0128205\n",
      "control_change channel=9 control=7 value=46 time=0.0384615\n",
      "control_change channel=9 control=7 value=45 time=0.0384615\n",
      "note_off channel=9 note=38 velocity=92 time=0\n",
      "note_off channel=9 note=40 velocity=92 time=0\n",
      "note_on channel=9 note=38 velocity=90 time=0.00641025\n",
      "note_on channel=9 note=40 velocity=90 time=0\n",
      "control_change channel=9 control=7 value=44 time=0.03205125\n",
      "control_change channel=9 control=7 value=43 time=0.0384615\n",
      "note_off channel=9 note=38 velocity=90 time=0.01923075\n",
      "note_off channel=9 note=40 velocity=90 time=0\n",
      "note_on channel=9 note=38 velocity=90 time=0.00641025\n",
      "note_on channel=9 note=40 velocity=90 time=0\n",
      "control_change channel=9 control=7 value=42 time=0.0128205\n",
      "control_change channel=9 control=7 value=41 time=0.0384615\n",
      "note_off channel=0 note=77 velocity=110 time=0.0384615\n",
      "note_off channel=0 note=70 velocity=110 time=0\n",
      "note_off channel=0 note=74 velocity=110 time=0\n",
      "note_off channel=1 note=62 velocity=110 time=0\n",
      "note_off channel=1 note=53 velocity=110 time=0\n",
      "note_off channel=1 note=46 velocity=110 time=0\n",
      "note_off channel=1 note=58 velocity=110 time=0\n",
      "note_off channel=1 note=65 velocity=110 time=0\n",
      "note_off channel=2 note=34 velocity=91 time=0\n",
      "note_off channel=3 note=58 velocity=110 time=0\n",
      "note_off channel=3 note=70 velocity=110 time=0\n",
      "note_off channel=3 note=82 velocity=110 time=0\n",
      "note_off channel=4 note=65 velocity=110 time=0\n",
      "note_off channel=4 note=58 velocity=110 time=0\n",
      "note_off channel=4 note=62 velocity=110 time=0\n",
      "control_change channel=9 control=7 value=40 time=0\n",
      "<meta message set_tempo tempo=983606 time=0.00641025>\n",
      "note_on channel=9 note=38 velocity=91 time=0\n",
      "note_on channel=9 note=35 velocity=91 time=0\n",
      "note_on channel=9 note=46 velocity=91 time=0\n",
      "note_on channel=9 note=36 velocity=91 time=0\n",
      "note_on channel=9 note=40 velocity=91 time=0\n",
      "note_off channel=9 note=38 velocity=90 time=0\n",
      "note_off channel=9 note=40 velocity=90 time=0\n",
      "note_off channel=9 note=38 velocity=91 time=0.2377047833333333\n",
      "note_off channel=9 note=35 velocity=91 time=0\n",
      "note_off channel=9 note=46 velocity=91 time=0\n",
      "note_off channel=9 note=36 velocity=91 time=0\n",
      "note_off channel=9 note=40 velocity=91 time=0\n",
      "<meta message end_of_track time=3.6967192166666663>\n"
     ]
    }
   ],
   "source": [
    "for m in mid:\n",
    "    print(m)"
   ]
  },
  {
   "cell_type": "code",
   "execution_count": 21,
   "metadata": {
    "collapsed": false
   },
   "outputs": [
    {
     "name": "stdout",
     "output_type": "stream",
     "text": [
      "0.0\n",
      "0.0\n",
      "0.0\n",
      "0.0\n",
      "0.0\n",
      "0.0\n",
      "0.0\n",
      "0.0\n",
      "0.0\n",
      "0.0\n",
      "0.0\n",
      "0.0\n",
      "0.0\n",
      "0.0\n",
      "0.0\n",
      "0.0\n",
      "0.0\n",
      "0.0\n",
      "0.0\n",
      "0.0\n",
      "0.0\n",
      "0.0\n",
      "0.0\n",
      "0.0\n",
      "0.0\n",
      "0.0\n",
      "0.0\n",
      "0.0\n",
      "0.0\n",
      "0.0\n",
      "0.0\n",
      "0.0\n",
      "0.0\n",
      "0.0\n",
      "0.0\n",
      "0.0\n",
      "0.0\n",
      "0.0\n",
      "0.0\n",
      "0.0\n",
      "0.0\n",
      "0.0\n",
      "0.0\n",
      "0.0\n",
      "0.0\n",
      "0.0\n",
      "0.0\n",
      "0.0\n",
      "0.0\n",
      "0.0\n",
      "0.0\n",
      "0.01\n",
      "0.005\n",
      "0.005\n",
      "0.005\n",
      "0.005\n",
      "0.005\n",
      "0.005\n",
      "0.005\n",
      "0.005\n",
      "0.005\n",
      "0.005\n",
      "0.005\n",
      "0.005\n",
      "0.005\n",
      "0.005\n",
      "0.005\n",
      "0.005\n",
      "0.005\n",
      "0.005\n",
      "0.005\n",
      "0.005\n",
      "0.005\n",
      "0.005\n",
      "0.005\n",
      "1.615\n",
      "0.0\n",
      "0.056\n",
      "0.0\n",
      "0.004\n",
      "0.0\n",
      "0.056\n",
      "0.0\n",
      "0.004\n",
      "0.0\n",
      "0.06\n",
      "0.0\n",
      "0.0\n",
      "0.0\n",
      "0.0\n",
      "0.0\n",
      "0.0\n",
      "0.0\n",
      "0.196\n",
      "0.0\n",
      "0.0\n",
      "0.0\n",
      "0.0\n",
      "0.044\n",
      "0.0\n",
      "0.0\n",
      "0.0\n",
      "0.0\n",
      "0.196\n",
      "0.0\n",
      "0.0\n",
      "0.0\n",
      "0.0\n",
      "0.344\n",
      "0.0\n",
      "0.0\n",
      "0.004\n",
      "0.004\n",
      "0.004\n",
      "0.004\n",
      "0.004\n",
      "0.004\n",
      "0.004\n",
      "0.004\n",
      "0.004\n",
      "0.008\n",
      "0.004\n",
      "0.004\n",
      "0.004\n",
      "0.0\n",
      "0.0\n",
      "0.004\n",
      "0.0\n",
      "0.0\n",
      "0.004\n",
      "0.004\n",
      "0.004\n",
      "0.004\n",
      "0.004\n",
      "0.008\n",
      "0.004\n",
      "0.004\n",
      "0.004\n",
      "0.004\n",
      "0.004\n",
      "0.004\n",
      "0.004\n",
      "0.0\n",
      "0.0\n",
      "0.004\n",
      "0.0\n",
      "0.0\n",
      "0.004\n",
      "0.008\n",
      "0.004\n",
      "0.004\n",
      "0.004\n",
      "0.004\n",
      "0.004\n",
      "0.004\n",
      "0.004\n",
      "0.004\n",
      "0.004\n",
      "0.008\n",
      "0.0\n",
      "0.0\n",
      "0.004\n",
      "0.0\n",
      "0.0\n",
      "0.0\n",
      "0.0\n",
      "0.196\n",
      "0.0\n",
      "0.0\n",
      "0.0\n",
      "0.0\n",
      "0.044\n",
      "0.0\n",
      "0.0\n",
      "0.0\n",
      "0.0\n",
      "0.196\n",
      "0.0\n",
      "0.0\n",
      "0.0\n",
      "0.0\n",
      "0.524\n",
      "0.0\n",
      "0.0\n",
      "0.0\n",
      "0.0\n",
      "0.0\n",
      "0.004\n",
      "0.004\n",
      "0.008\n",
      "0.004\n",
      "0.008\n",
      "0.004\n",
      "0.008\n",
      "0.004\n",
      "0.008\n",
      "0.004\n",
      "0.0\n",
      "0.0\n",
      "0.004\n",
      "0.0\n",
      "0.004\n",
      "0.004\n",
      "0.008\n",
      "0.004\n",
      "0.008\n",
      "0.004\n",
      "0.008\n",
      "0.004\n",
      "0.008\n",
      "0.004\n",
      "0.0\n",
      "0.0\n",
      "0.004\n",
      "0.0\n",
      "0.0\n",
      "0.008\n",
      "0.004\n",
      "0.008\n",
      "0.004\n",
      "0.008\n",
      "0.004\n",
      "0.008\n",
      "0.004\n",
      "0.008\n",
      "0.0\n",
      "0.0\n",
      "0.004\n",
      "0.0\n",
      "0.0\n",
      "0.008\n",
      "0.004\n",
      "0.004\n",
      "0.0\n",
      "0.0\n",
      "0.004\n",
      "0.004\n",
      "0.008\n",
      "0.004\n",
      "0.008\n",
      "0.004\n",
      "0.008\n",
      "0.0\n",
      "0.0\n",
      "0.004\n",
      "0.0\n",
      "0.056\n",
      "0.0\n",
      "0.004\n",
      "0.0\n",
      "0.056\n",
      "0.0\n",
      "0.004\n",
      "0.0\n",
      "0.056\n",
      "0.0\n",
      "0.004\n",
      "0.0\n",
      "0.056\n",
      "0.0\n",
      "0.004\n",
      "0.0\n",
      "0.056\n",
      "0.0\n",
      "0.004\n",
      "0.0\n",
      "0.056\n",
      "0.0\n",
      "0.004\n",
      "0.0\n",
      "0.056\n",
      "0.0\n",
      "0.004\n",
      "0.0\n",
      "0.056\n",
      "0.0\n",
      "0.004\n",
      "0.0\n",
      "0.0\n",
      "0.004\n",
      "0.004\n",
      "0.008\n",
      "0.004\n",
      "0.008\n",
      "0.004\n",
      "0.008\n",
      "0.004\n",
      "0.008\n",
      "0.004\n",
      "0.0\n",
      "0.0\n",
      "0.004\n",
      "0.0\n",
      "0.004\n",
      "0.004\n",
      "0.008\n",
      "0.004\n",
      "0.008\n",
      "0.004\n",
      "0.008\n",
      "0.004\n",
      "0.008\n",
      "0.004\n",
      "0.0\n",
      "0.0\n",
      "0.004\n",
      "0.0\n",
      "0.0\n",
      "0.008\n",
      "0.004\n",
      "0.008\n",
      "0.004\n",
      "0.008\n",
      "0.004\n",
      "0.008\n",
      "0.004\n",
      "0.008\n",
      "0.0\n",
      "0.0\n",
      "0.004\n",
      "0.0\n",
      "0.0\n",
      "0.008\n",
      "0.004\n",
      "0.008\n",
      "0.004\n",
      "0.008\n",
      "0.004\n",
      "0.008\n",
      "0.004\n",
      "0.008\n",
      "0.0\n",
      "0.0\n",
      "0.004\n",
      "0.0\n",
      "0.0\n",
      "0.0\n",
      "0.0\n",
      "0.196\n",
      "0.0\n",
      "0.0\n",
      "0.0\n",
      "0.0\n",
      "0.044\n",
      "0.0\n",
      "0.0\n",
      "0.0\n",
      "0.0\n",
      "0.196\n",
      "0.0\n",
      "0.0\n",
      "0.0\n",
      "0.0\n",
      "0.252\n",
      "0.272\n",
      "0.0\n",
      "0.0\n",
      "0.0\n",
      "0.0\n",
      "0.0\n",
      "0.0\n",
      "0.0\n",
      "0.0\n",
      "0.0\n",
      "0.0\n",
      "0.0\n",
      "0.0\n",
      "0.176\n",
      "0.0\n",
      "0.0\n",
      "0.0\n",
      "0.0\n",
      "0.0\n",
      "0.0\n",
      "0.0\n",
      "0.0\n",
      "0.0\n",
      "0.0\n",
      "0.02\n",
      "0.0\n",
      "0.124\n",
      "0.0\n",
      "0.0\n",
      "0.0\n",
      "0.0\n",
      "0.0\n",
      "0.0\n",
      "0.0\n",
      "0.0\n",
      "0.0\n",
      "0.0\n",
      "0.0\n",
      "0.0\n",
      "0.056\n",
      "0.0\n",
      "0.0\n",
      "0.0\n",
      "0.0\n",
      "0.0\n",
      "0.0\n",
      "0.0\n",
      "0.0\n",
      "0.0\n",
      "0.0\n",
      "0.0\n",
      "0.0\n",
      "0.024\n",
      "0.0\n",
      "0.0\n",
      "0.0\n",
      "0.0\n",
      "0.0\n",
      "0.0\n",
      "0.0\n",
      "0.0\n",
      "0.0\n",
      "0.0\n",
      "0.0\n",
      "0.0\n",
      "0.056\n",
      "0.0\n",
      "0.0\n",
      "0.0\n",
      "0.0\n",
      "0.0\n",
      "0.0\n",
      "0.0\n",
      "0.0\n",
      "0.0\n",
      "0.0\n",
      "0.0\n",
      "0.0\n",
      "0.024\n",
      "0.0\n",
      "0.0\n",
      "0.0\n",
      "0.0\n",
      "0.0\n",
      "0.0\n",
      "0.0\n",
      "0.0\n",
      "0.0\n",
      "0.0\n",
      "0.0\n",
      "0.0\n",
      "0.196\n",
      "0.0\n",
      "0.4\n",
      "0.0\n",
      "0.0\n",
      "0.0\n",
      "0.0\n",
      "0.0\n",
      "0.0\n",
      "0.0\n",
      "0.0\n",
      "0.0\n",
      "0.0\n",
      "0.044\n",
      "0.0\n",
      "0.0\n",
      "0.0\n",
      "0.0\n",
      "0.0\n",
      "0.0\n",
      "0.0\n",
      "0.0\n",
      "0.0\n",
      "0.0\n",
      "0.0\n",
      "0.0\n",
      "0.116\n",
      "0.0\n",
      "0.0\n",
      "0.0\n",
      "0.0\n",
      "0.0\n",
      "0.0\n",
      "0.0\n",
      "0.0\n",
      "0.0\n",
      "0.0\n",
      "0.0\n",
      "0.0\n",
      "0.044\n",
      "0.0\n",
      "0.0\n",
      "0.0\n",
      "0.0\n",
      "0.0\n",
      "0.0\n",
      "0.0\n",
      "0.0\n",
      "0.0\n",
      "0.0\n",
      "0.0\n",
      "0.0\n",
      "0.116\n",
      "0.0\n",
      "0.0\n",
      "0.0\n",
      "0.0\n",
      "0.0\n",
      "0.0\n",
      "0.0\n",
      "0.0\n",
      "0.0\n",
      "0.0\n",
      "0.0\n",
      "0.0\n",
      "0.044\n",
      "0.0\n",
      "0.0\n",
      "0.0\n",
      "0.0\n",
      "0.0\n",
      "0.0\n",
      "0.0\n",
      "0.0\n",
      "0.0\n",
      "0.0\n",
      "0.0\n",
      "0.0\n",
      "0.116\n",
      "0.0\n",
      "0.0\n",
      "0.0\n",
      "0.0\n",
      "0.0\n",
      "0.0\n",
      "0.0\n",
      "0.0\n",
      "0.0\n",
      "0.0\n",
      "0.0\n",
      "0.0\n",
      "0.044\n",
      "0.0\n",
      "0.0\n",
      "0.0\n",
      "0.0\n",
      "0.0\n",
      "0.0\n",
      "0.0\n",
      "0.0\n",
      "0.0\n",
      "0.0\n",
      "0.0\n",
      "0.0\n",
      "0.116\n",
      "0.0\n",
      "0.0\n",
      "0.0\n",
      "0.0\n",
      "0.0\n",
      "0.0\n",
      "0.0\n",
      "0.0\n",
      "0.0\n",
      "0.0\n",
      "0.0\n",
      "0.0\n",
      "0.044\n",
      "0.0\n",
      "0.0\n",
      "0.0\n",
      "0.0\n",
      "0.0\n",
      "0.0\n",
      "0.0\n",
      "0.0\n",
      "0.0\n",
      "0.0\n",
      "0.0\n",
      "0.0\n",
      "0.116\n",
      "0.0\n",
      "0.0\n",
      "0.0\n",
      "0.0\n",
      "0.0\n",
      "0.0\n",
      "0.0\n",
      "0.0\n",
      "0.0\n",
      "0.0\n",
      "0.0\n",
      "0.0\n",
      "0.044\n",
      "0.0\n",
      "0.0\n",
      "0.0\n",
      "0.0\n",
      "0.0\n",
      "0.0\n",
      "0.0\n",
      "0.0\n",
      "0.0\n",
      "0.0\n",
      "0.0\n",
      "0.0\n",
      "0.156\n",
      "0.0\n",
      "0.0\n",
      "0.0\n",
      "0.0\n",
      "0.0\n",
      "0.0\n",
      "0.0\n",
      "0.0\n",
      "0.0\n",
      "0.0\n",
      "0.04\n",
      "0.0\n",
      "0.124\n",
      "0.0\n",
      "0.0\n",
      "0.0\n",
      "0.0\n",
      "0.0\n",
      "0.0\n",
      "0.0\n",
      "0.0\n",
      "0.0\n",
      "0.0\n",
      "0.0\n",
      "0.0\n",
      "0.056\n",
      "0.0\n",
      "0.0\n",
      "0.0\n",
      "0.0\n",
      "0.0\n",
      "0.0\n",
      "0.0\n",
      "0.0\n",
      "0.0\n",
      "0.0\n",
      "0.0\n",
      "0.0\n",
      "0.024\n",
      "0.0\n",
      "0.0\n",
      "0.0\n",
      "0.0\n",
      "0.0\n",
      "0.0\n",
      "0.0\n",
      "0.0\n",
      "0.0\n",
      "0.0\n",
      "0.0\n",
      "0.0\n",
      "0.056\n",
      "0.0\n",
      "0.0\n",
      "0.0\n",
      "0.0\n",
      "0.0\n",
      "0.0\n",
      "0.0\n",
      "0.0\n",
      "0.0\n",
      "0.0\n",
      "0.0\n",
      "0.0\n",
      "0.024\n",
      "0.0\n",
      "0.0\n",
      "0.0\n",
      "0.0\n",
      "0.0\n",
      "0.0\n",
      "0.0\n",
      "0.0\n",
      "0.0\n",
      "0.0\n",
      "0.0\n",
      "0.0\n",
      "0.116\n",
      "0.0\n",
      "0.0\n",
      "0.0\n",
      "0.0\n",
      "0.0\n",
      "0.0\n",
      "0.0\n",
      "0.0\n",
      "0.0\n",
      "0.0\n",
      "0.0\n",
      "0.0\n",
      "0.044\n",
      "0.0\n",
      "0.0\n",
      "0.0\n",
      "0.0\n",
      "0.0\n",
      "0.0\n",
      "0.0\n",
      "0.0\n",
      "0.0\n",
      "0.0\n",
      "0.0\n",
      "0.0\n",
      "0.116\n",
      "0.0\n",
      "0.0\n",
      "0.0\n",
      "0.0\n",
      "0.0\n",
      "0.0\n",
      "0.0\n",
      "0.0\n",
      "0.0\n",
      "0.0\n",
      "0.0\n",
      "0.0\n",
      "0.044\n",
      "0.0\n",
      "0.0\n",
      "0.0\n",
      "0.0\n",
      "0.0\n",
      "0.0\n",
      "0.0\n",
      "0.0\n",
      "0.0\n",
      "0.0\n",
      "0.0\n",
      "0.0\n",
      "0.116\n",
      "0.0\n",
      "0.0\n",
      "0.0\n",
      "0.0\n",
      "0.0\n",
      "0.0\n",
      "0.0\n",
      "0.0\n",
      "0.0\n",
      "0.0\n",
      "0.0\n",
      "0.0\n",
      "0.044\n",
      "0.0\n",
      "0.0\n",
      "0.0\n",
      "0.0\n",
      "0.0\n",
      "0.0\n",
      "0.0\n",
      "0.0\n",
      "0.0\n",
      "0.0\n",
      "0.0\n",
      "0.0\n",
      "0.116\n",
      "0.0\n",
      "0.0\n",
      "0.0\n",
      "0.0\n",
      "0.0\n",
      "0.0\n",
      "0.0\n",
      "0.0\n",
      "0.0\n",
      "0.0\n",
      "0.0\n",
      "0.0\n",
      "0.044\n",
      "0.0\n",
      "0.0\n",
      "0.0\n",
      "0.0\n",
      "0.0\n",
      "0.0\n",
      "0.0\n",
      "0.0\n",
      "0.0\n",
      "0.0\n",
      "0.0\n",
      "0.0\n",
      "0.116\n",
      "0.0\n",
      "0.0\n",
      "0.0\n",
      "0.0\n",
      "0.0\n",
      "0.0\n",
      "0.0\n",
      "0.0\n",
      "0.0\n",
      "0.0\n",
      "0.0\n",
      "0.0\n",
      "0.044\n",
      "0.0\n",
      "0.0\n",
      "0.0\n",
      "0.0\n",
      "0.0\n",
      "0.0\n",
      "0.0\n",
      "0.0\n",
      "0.0\n",
      "0.0\n",
      "0.0\n",
      "0.0\n",
      "0.116\n",
      "0.0\n",
      "0.0\n",
      "0.0\n",
      "0.0\n",
      "0.0\n",
      "0.0\n",
      "0.0\n",
      "0.0\n",
      "0.0\n",
      "0.0\n",
      "0.0\n",
      "0.0\n",
      "0.044\n",
      "0.0\n",
      "0.0\n",
      "0.0\n",
      "0.0\n",
      "0.0\n",
      "0.0\n",
      "0.0\n",
      "0.0\n",
      "0.0\n",
      "0.0\n",
      "0.0\n",
      "0.0\n",
      "0.116\n",
      "0.0\n",
      "0.0\n",
      "0.0\n",
      "0.0\n",
      "0.0\n",
      "0.0\n",
      "0.0\n",
      "0.0\n",
      "0.0\n",
      "0.0\n",
      "0.0\n",
      "0.0\n",
      "0.044\n",
      "0.0\n",
      "0.0\n",
      "0.0\n",
      "0.0\n",
      "0.0\n",
      "0.0\n",
      "0.0\n",
      "0.0\n",
      "0.0\n",
      "0.0\n",
      "0.116\n",
      "0.0\n",
      "0.0\n",
      "0.0\n",
      "0.0\n",
      "0.0\n",
      "0.0\n",
      "0.0\n",
      "0.0\n",
      "0.0\n",
      "0.0\n",
      "0.044\n",
      "0.0\n",
      "0.0\n",
      "0.0\n",
      "0.0\n",
      "0.0\n",
      "0.0\n",
      "0.0\n",
      "0.0\n",
      "0.116\n",
      "0.0\n",
      "0.0\n",
      "0.0\n",
      "0.0\n",
      "0.0\n",
      "0.0\n",
      "0.0\n",
      "0.0\n",
      "0.044\n",
      "0.0\n",
      "0.0\n",
      "0.0\n",
      "0.0\n",
      "0.0\n",
      "0.0\n",
      "0.0\n",
      "0.0\n",
      "0.0\n",
      "0.0\n",
      "0.0\n",
      "0.0\n",
      "0.156\n",
      "0.0\n",
      "0.0\n",
      "0.0\n",
      "0.0\n",
      "0.0\n",
      "0.0\n",
      "0.0\n",
      "0.0\n",
      "0.0\n",
      "0.0\n",
      "0.04\n",
      "0.0\n",
      "0.124\n",
      "0.0\n",
      "0.0\n",
      "0.0\n",
      "0.0\n",
      "0.0\n",
      "0.0\n",
      "0.0\n",
      "0.0\n",
      "0.0\n",
      "0.0\n",
      "0.0\n",
      "0.0\n",
      "0.036\n",
      "0.0\n",
      "0.02\n",
      "0.0\n",
      "0.0\n",
      "0.0\n",
      "0.0\n",
      "0.0\n",
      "0.0\n",
      "0.0\n",
      "0.0\n",
      "0.0\n",
      "0.0\n",
      "0.024\n",
      "0.0\n",
      "0.0\n",
      "0.0\n",
      "0.0\n",
      "0.0\n",
      "0.0\n",
      "0.0\n",
      "0.0\n",
      "0.0\n",
      "0.0\n",
      "0.0\n",
      "0.0\n",
      "0.036\n",
      "0.02\n",
      "0.0\n",
      "0.0\n",
      "0.0\n",
      "0.0\n",
      "0.0\n",
      "0.0\n",
      "0.0\n",
      "0.0\n",
      "0.0\n",
      "0.0\n",
      "0.0\n",
      "0.024\n",
      "0.0\n",
      "0.0\n",
      "0.0\n",
      "0.0\n",
      "0.0\n",
      "0.0\n",
      "0.0\n",
      "0.0\n",
      "0.0\n",
      "0.0\n",
      "0.0\n",
      "0.0\n",
      "0.0\n",
      "0.0\n",
      "0.0\n",
      "0.008\n",
      "0.012\n",
      "0.012\n",
      "0.004\n",
      "0.0\n",
      "0.008\n",
      "0.012\n",
      "0.004\n",
      "0.0\n",
      "0.008\n",
      "0.012\n",
      "0.012\n",
      "0.004\n",
      "0.0\n",
      "0.008\n",
      "0.012\n",
      "0.004\n",
      "0.0\n",
      "0.008\n",
      "0.012\n",
      "0.012\n",
      "0.004\n",
      "0.0\n",
      "0.008\n",
      "0.012\n",
      "0.004\n",
      "0.0\n",
      "0.008\n",
      "0.008\n",
      "0.0\n",
      "0.004\n",
      "0.012\n",
      "0.004\n",
      "0.0\n",
      "0.008\n",
      "0.012\n",
      "0.004\n",
      "0.0\n",
      "0.008\n",
      "0.012\n",
      "0.012\n",
      "0.004\n",
      "0.0\n",
      "0.008\n",
      "0.012\n",
      "0.004\n",
      "0.0\n",
      "0.008\n",
      "0.012\n",
      "0.012\n",
      "0.004\n",
      "0.0\n",
      "0.008\n",
      "0.012\n",
      "0.004\n",
      "0.0\n",
      "0.008\n",
      "0.012\n",
      "0.012\n",
      "0.004\n",
      "0.0\n",
      "0.008\n",
      "0.012\n",
      "0.004\n",
      "0.0\n",
      "0.008\n",
      "0.012\n",
      "0.012\n",
      "0.004\n",
      "0.0\n",
      "0.008\n",
      "0.012\n",
      "0.004\n",
      "0.0\n",
      "0.0\n",
      "0.0\n",
      "0.0\n",
      "0.116\n",
      "0.0\n",
      "0.0\n",
      "0.0\n",
      "0.0\n",
      "0.0\n",
      "0.0\n",
      "0.0\n",
      "0.0\n",
      "0.0\n",
      "0.0\n",
      "0.08\n",
      "0.0\n",
      "0.0\n",
      "0.0\n",
      "0.0\n",
      "0.276\n",
      "0.008\n",
      "0.0\n",
      "0.0\n",
      "0.008\n",
      "0.008\n",
      "0.008\n",
      "0.008\n",
      "0.016\n",
      "0.068\n",
      "0.0\n",
      "0.0\n",
      "0.044\n",
      "0.0\n",
      "0.0\n",
      "0.116\n",
      "0.0\n",
      "0.0\n",
      "0.044\n",
      "0.0\n",
      "0.0\n",
      "0.116\n",
      "0.0\n",
      "0.0\n",
      "0.044\n",
      "0.0\n",
      "0.0\n",
      "0.48\n",
      "0.0\n",
      "0.0\n",
      "0.0\n",
      "0.0\n",
      "0.0\n",
      "0.0\n",
      "0.0\n",
      "0.0\n",
      "0.0\n",
      "0.0\n",
      "0.0\n",
      "0.0\n",
      "0.0\n",
      "0.156\n",
      "0.0\n",
      "0.0\n",
      "0.0\n",
      "0.0\n",
      "0.0\n",
      "0.02\n",
      "0.02\n",
      "0.0\n",
      "0.0\n",
      "0.0\n",
      "0.0\n",
      "0.0\n",
      "0.124\n",
      "0.0\n",
      "0.0\n",
      "0.0\n",
      "0.0\n",
      "0.0\n",
      "0.0\n",
      "0.0\n",
      "0.0\n",
      "0.0\n",
      "0.0\n",
      "0.0\n",
      "0.0\n",
      "0.036\n",
      "0.0\n",
      "0.02\n",
      "0.0\n",
      "0.0\n",
      "0.0\n",
      "0.0\n",
      "0.0\n",
      "0.0\n",
      "0.0\n",
      "0.0\n",
      "0.0\n",
      "0.0\n",
      "0.024\n",
      "0.0\n",
      "0.0\n",
      "0.0\n",
      "0.0\n",
      "0.0\n",
      "0.0\n",
      "0.0\n",
      "0.0\n",
      "0.0\n",
      "0.0\n",
      "0.0\n",
      "0.0\n",
      "0.036\n",
      "0.0\n",
      "0.02\n",
      "0.0\n",
      "0.0\n",
      "0.0\n",
      "0.0\n",
      "0.0\n",
      "0.0\n",
      "0.0\n",
      "0.0\n",
      "0.0\n",
      "0.0\n",
      "0.024\n",
      "0.0\n",
      "0.0\n",
      "0.0\n",
      "0.0\n",
      "0.0\n",
      "0.0\n",
      "0.0\n",
      "0.0\n",
      "0.0\n",
      "0.0\n",
      "0.0\n",
      "0.0\n",
      "0.0\n",
      "0.008\n",
      "0.008\n",
      "0.008\n",
      "0.008\n",
      "0.004\n",
      "0.0\n",
      "0.008\n",
      "0.008\n",
      "0.008\n",
      "0.0\n",
      "0.0\n",
      "0.008\n",
      "0.012\n",
      "0.008\n",
      "0.008\n",
      "0.0\n",
      "0.0\n",
      "0.008\n",
      "0.012\n",
      "0.004\n",
      "0.0\n",
      "0.004\n",
      "0.008\n",
      "0.008\n",
      "0.012\n",
      "0.004\n",
      "0.0\n",
      "0.004\n",
      "0.008\n",
      "0.008\n",
      "0.004\n",
      "0.0\n",
      "0.004\n",
      "0.012\n",
      "0.008\n",
      "0.008\n",
      "0.004\n",
      "0.0\n",
      "0.004\n",
      "0.012\n",
      "0.008\n",
      "0.0\n",
      "0.0\n",
      "0.008\n",
      "0.008\n",
      "0.012\n",
      "0.008\n",
      "0.0\n",
      "0.0\n",
      "0.008\n",
      "0.008\n",
      "0.008\n",
      "0.0\n",
      "0.004\n",
      "0.008\n",
      "0.008\n",
      "0.008\n",
      "0.008\n",
      "0.0\n",
      "0.004\n",
      "0.008\n",
      "0.008\n",
      "0.004\n",
      "0.0\n",
      "0.004\n",
      "0.008\n",
      "0.012\n",
      "0.008\n",
      "0.004\n",
      "0.0\n",
      "0.004\n",
      "0.008\n",
      "0.012\n",
      "0.0\n",
      "0.0\n",
      "0.008\n",
      "0.008\n",
      "0.008\n",
      "0.012\n",
      "0.0\n",
      "0.008\n",
      "0.008\n",
      "0.004\n",
      "0.0\n",
      "0.0\n",
      "0.0\n",
      "0.0\n",
      "0.0\n",
      "0.0\n",
      "0.0\n",
      "0.0\n",
      "0.0\n",
      "0.0\n",
      "0.0\n",
      "0.0\n",
      "0.0\n",
      "0.0\n",
      "0.004\n",
      "0.0\n",
      "0.0\n",
      "0.0\n",
      "0.0\n",
      "0.0\n",
      "0.116\n",
      "0.0\n",
      "0.0\n",
      "0.0\n",
      "0.0\n",
      "0.044\n",
      "0.0\n",
      "0.0\n",
      "0.116\n",
      "0.0\n",
      "0.0\n",
      "0.044\n",
      "0.0\n",
      "0.0\n",
      "0.116\n",
      "0.0\n",
      "0.0\n",
      "0.044\n",
      "0.0\n",
      "0.0\n",
      "0.48\n",
      "0.0\n",
      "0.0\n",
      "0.0\n",
      "0.0\n",
      "0.0\n",
      "0.0\n",
      "0.0\n",
      "0.0\n",
      "0.0\n",
      "0.0\n",
      "0.0\n",
      "0.0\n",
      "0.0\n",
      "0.156\n",
      "0.0\n",
      "0.0\n",
      "0.0\n",
      "0.0\n",
      "0.0\n",
      "0.04\n",
      "0.0\n",
      "0.0\n",
      "0.0\n",
      "0.0\n",
      "0.0\n",
      "0.0\n",
      "0.124\n",
      "0.0\n",
      "0.0\n",
      "0.0\n",
      "0.0\n",
      "0.0\n",
      "0.0\n",
      "0.0\n",
      "0.0\n",
      "0.0\n",
      "0.0\n",
      "0.0\n",
      "0.0\n",
      "0.036\n",
      "0.0\n",
      "0.02\n",
      "0.0\n",
      "0.0\n",
      "0.0\n",
      "0.0\n",
      "0.0\n",
      "0.0\n",
      "0.0\n",
      "0.0\n",
      "0.0\n",
      "0.0\n",
      "0.024\n",
      "0.0\n",
      "0.0\n",
      "0.0\n",
      "0.0\n",
      "0.0\n",
      "0.0\n",
      "0.0\n",
      "0.0\n",
      "0.0\n",
      "0.0\n",
      "0.0\n",
      "0.0\n",
      "0.036\n",
      "0.0\n",
      "0.02\n",
      "0.0\n",
      "0.0\n",
      "0.0\n",
      "0.0\n",
      "0.0\n",
      "0.0\n",
      "0.0\n",
      "0.0\n",
      "0.0\n",
      "0.0\n",
      "0.024\n",
      "0.0\n",
      "0.0\n",
      "0.0\n",
      "0.0\n",
      "0.0\n",
      "0.0\n",
      "0.0\n",
      "0.0\n",
      "0.0\n",
      "0.0\n",
      "0.0\n",
      "0.0\n",
      "0.0\n",
      "0.008\n",
      "0.008\n",
      "0.008\n",
      "0.008\n",
      "0.004\n",
      "0.0\n",
      "0.008\n",
      "0.008\n",
      "0.008\n",
      "0.0\n",
      "0.0\n",
      "0.008\n",
      "0.012\n",
      "0.008\n",
      "0.008\n",
      "0.0\n",
      "0.0\n",
      "0.008\n",
      "0.012\n",
      "0.004\n",
      "0.0\n",
      "0.004\n",
      "0.008\n",
      "0.008\n",
      "0.012\n",
      "0.004\n",
      "0.0\n",
      "0.004\n",
      "0.008\n",
      "0.008\n",
      "0.004\n",
      "0.0\n",
      "0.004\n",
      "0.012\n",
      "0.008\n",
      "0.008\n",
      "0.004\n",
      "0.0\n",
      "0.004\n",
      "0.012\n",
      "0.008\n",
      "0.0\n",
      "0.0\n",
      "0.008\n",
      "0.008\n",
      "0.012\n",
      "0.008\n",
      "0.0\n",
      "0.0\n",
      "0.008\n",
      "0.008\n",
      "0.008\n",
      "0.0\n",
      "0.004\n",
      "0.008\n",
      "0.008\n",
      "0.008\n",
      "0.008\n",
      "0.0\n",
      "0.004\n",
      "0.008\n",
      "0.008\n",
      "0.004\n",
      "0.0\n",
      "0.004\n",
      "0.008\n",
      "0.012\n",
      "0.008\n",
      "0.004\n",
      "0.0\n",
      "0.004\n",
      "0.008\n",
      "0.012\n",
      "0.0\n",
      "0.0\n",
      "0.008\n",
      "0.008\n",
      "0.008\n",
      "0.012\n",
      "0.0\n",
      "0.008\n",
      "0.008\n",
      "0.0\n",
      "0.004\n",
      "0.0\n",
      "0.0\n",
      "0.0\n",
      "0.0\n",
      "0.0\n",
      "0.0\n",
      "0.0\n",
      "0.0\n",
      "0.0\n",
      "0.0\n",
      "0.0\n",
      "0.0\n",
      "0.0\n",
      "0.0\n",
      "0.004\n",
      "0.0\n",
      "0.0\n",
      "0.0\n",
      "0.0\n",
      "0.0\n",
      "0.0\n",
      "0.008\n",
      "0.016\n",
      "0.016\n",
      "0.008\n",
      "0.016\n",
      "0.032\n",
      "0.016\n",
      "0.004\n",
      "0.0\n",
      "0.0\n",
      "0.0\n",
      "0.0\n",
      "0.036\n",
      "0.008\n",
      "0.0\n",
      "0.0\n",
      "0.008\n",
      "0.008\n",
      "0.048\n",
      "0.052\n",
      "0.0\n",
      "0.0\n",
      "0.004\n",
      "0.04\n",
      "0.0\n",
      "0.0\n",
      "0.116\n",
      "0.0\n",
      "0.0\n",
      "0.044\n",
      "0.0\n",
      "0.0\n",
      "0.064\n",
      "0.416\n",
      "0.0\n",
      "0.0\n",
      "0.0\n",
      "0.0\n",
      "0.0\n",
      "0.0\n",
      "0.0\n",
      "0.0\n",
      "0.0\n",
      "0.0\n",
      "0.0\n",
      "0.116\n",
      "0.0\n",
      "0.0\n",
      "0.0\n",
      "0.0\n",
      "0.0\n",
      "0.0\n",
      "0.0\n",
      "0.0\n",
      "0.0\n",
      "0.0\n",
      "0.044\n",
      "0.0\n",
      "0.0\n",
      "0.0\n",
      "0.0\n",
      "0.0\n",
      "0.0\n",
      "0.0\n",
      "0.0\n",
      "0.0\n",
      "0.0\n",
      "0.116\n",
      "0.0\n",
      "0.0\n",
      "0.0\n",
      "0.0\n",
      "0.0\n",
      "0.0\n",
      "0.0\n",
      "0.0\n",
      "0.0\n",
      "0.0\n",
      "0.044\n",
      "0.0\n",
      "0.0\n",
      "0.0\n",
      "0.0\n",
      "0.0\n",
      "0.0\n",
      "0.0\n",
      "0.0\n",
      "0.0\n",
      "0.0\n",
      "0.116\n",
      "0.0\n",
      "0.0\n",
      "0.0\n",
      "0.0\n",
      "0.0\n",
      "0.0\n",
      "0.0\n",
      "0.0\n",
      "0.0\n",
      "0.0\n",
      "0.044\n",
      "0.0\n",
      "0.0\n",
      "0.0\n",
      "0.0\n",
      "0.0\n",
      "0.0\n",
      "0.0\n",
      "0.0\n",
      "0.0\n",
      "0.0\n",
      "0.0\n",
      "0.0\n",
      "0.0\n",
      "0.0\n",
      "0.0\n",
      "0.0\n",
      "0.0\n",
      "0.02\n",
      "0.016\n",
      "0.008\n",
      "0.012\n",
      "0.004\n",
      "0.0\n",
      "0.008\n",
      "0.024\n",
      "0.024\n",
      "0.0\n",
      "0.0\n",
      "0.004\n",
      "0.0\n",
      "0.02\n",
      "0.024\n",
      "0.012\n",
      "0.0\n",
      "0.0\n",
      "0.0\n",
      "0.004\n",
      "0.0\n",
      "0.008\n",
      "0.024\n",
      "0.024\n",
      "0.0\n",
      "0.0\n",
      "0.004\n",
      "0.0\n",
      "0.02\n",
      "0.024\n",
      "0.012\n",
      "0.0\n",
      "0.004\n",
      "0.0\n",
      "0.008\n",
      "0.024\n",
      "0.024\n",
      "0.0\n",
      "0.0\n",
      "0.004\n",
      "0.0\n",
      "0.02\n",
      "0.024\n",
      "0.012\n",
      "0.0\n",
      "0.004\n",
      "0.0\n",
      "0.008\n",
      "0.024\n",
      "0.024\n",
      "0.0\n",
      "0.0\n",
      "0.004\n",
      "0.0\n",
      "0.0\n",
      "0.0\n",
      "0.02\n",
      "0.024\n",
      "0.012\n",
      "0.0\n",
      "0.004\n",
      "0.0\n",
      "0.008\n",
      "0.024\n",
      "0.024\n",
      "0.0\n",
      "0.0\n",
      "0.004\n",
      "0.0\n",
      "0.02\n",
      "0.024\n",
      "0.012\n",
      "0.0\n",
      "0.004\n",
      "0.0\n",
      "0.008\n",
      "0.024\n",
      "0.024\n",
      "0.0\n",
      "0.0\n",
      "0.004\n",
      "0.0\n",
      "0.02\n",
      "0.024\n",
      "0.012\n",
      "0.0\n",
      "0.004\n",
      "0.0\n",
      "0.008\n",
      "0.024\n",
      "0.024\n",
      "0.0\n",
      "0.0\n",
      "0.004\n",
      "0.0\n",
      "0.02\n",
      "0.024\n",
      "0.012\n",
      "0.0\n",
      "0.004\n",
      "0.0\n",
      "0.008\n",
      "0.024\n",
      "0.024\n",
      "0.0\n",
      "0.0\n",
      "0.0\n",
      "0.0\n",
      "0.0\n",
      "0.0\n",
      "0.0\n",
      "0.0\n",
      "0.0\n",
      "0.0\n",
      "0.0\n",
      "0.0\n",
      "0.0\n",
      "0.0\n",
      "0.0\n",
      "0.004\n",
      "0.0\n",
      "0.0\n",
      "0.0\n",
      "0.0\n",
      "0.0\n",
      "0.0\n",
      "0.0\n",
      "0.116\n",
      "0.0\n",
      "0.0\n",
      "0.0\n",
      "0.0\n",
      "1.804\n"
     ]
    }
   ],
   "source": [
    "# looks like the only differences is almost 1000\n",
    "\n",
    "for msg in mido.merge_tracks(mid.tracks):\n",
    "    notes = 127\n",
    "    tempo = 500000\n",
    "    seconds_per_beat = tempo / 1000000.0\n",
    "    seconds_per_tick = seconds_per_beat / 480\n",
    "    print(msg.time/1000)\n",
    "    #print(msg.time*seconds_per_tick)"
   ]
  },
  {
   "cell_type": "code",
   "execution_count": 10,
   "metadata": {
    "collapsed": true
   },
   "outputs": [],
   "source": [
    "notes = 127\n",
    "tempo = 500000\n",
    "seconds_per_beat = tempo / 1000000.0\n",
    "seconds_per_tick = seconds_per_beat / 480"
   ]
  },
  {
   "cell_type": "code",
   "execution_count": 11,
   "metadata": {
    "collapsed": false
   },
   "outputs": [
    {
     "data": {
      "text/plain": [
       "5.984375"
      ]
     },
     "execution_count": 11,
     "metadata": {},
     "output_type": "execute_result"
    }
   ],
   "source": [
    "5745*seconds_per_tick"
   ]
  },
  {
   "cell_type": "code",
   "execution_count": 19,
   "metadata": {
    "collapsed": false
   },
   "outputs": [
    {
     "name": "stdout",
     "output_type": "stream",
     "text": [
      "0 0 0.0010416666666666667\n",
      "0 0 0.0010416666666666667\n",
      "0 0 0.0010416666666666667\n",
      "0 0 0.0010416666666666667\n",
      "0 0 0.0010416666666666667\n",
      "0 0 0.0010416666666666667\n",
      "0 0 0.0010416666666666667\n",
      "0 0 0.0010416666666666667\n",
      "0 0 0.0010416666666666667\n",
      "0 0 0.0010416666666666667\n",
      "0 0 0.0010416666666666667\n",
      "0 0 0.0010416666666666667\n",
      "0 0 0.0010416666666666667\n",
      "0 0 0.0010416666666666667\n",
      "0 0 0.0010416666666666667\n",
      "0 0 0.0010416666666666667\n",
      "0 0 0.0010416666666666667\n",
      "0 0 0.0010416666666666667\n",
      "0 0 0.0010416666666666667\n",
      "0 0 0.0010416666666666667\n",
      "0 0 0.0010416666666666667\n",
      "0 0 0.0010416666666666667\n",
      "0 0 0.0010416666666666667\n",
      "0 0 0.0010416666666666667\n",
      "0 0 0.0010416666666666667\n",
      "0 0 0.0010416666666666667\n",
      "0 0 0.0010416666666666667\n",
      "0 0 0.0010416666666666667\n",
      "0 0 0.0010416666666666667\n",
      "0 0 0.0010416666666666667\n",
      "0 0 0.0010416666666666667\n",
      "0 0 0.0010416666666666667\n",
      "0 0 0.0010416666666666667\n",
      "0 0 0.0010416666666666667\n",
      "0 0 0.0010416666666666667\n",
      "0 0 0.0010416666666666667\n",
      "0 0 0.0010416666666666667\n",
      "0 0 0.0010416666666666667\n",
      "0 0 0.0010416666666666667\n",
      "0 0 0.0010416666666666667\n",
      "0 0 0.0010416666666666667\n",
      "0 0 0.0010416666666666667\n",
      "0 0 0.0010416666666666667\n",
      "0 0 0.0010416666666666667\n",
      "0 0 0.0010416666666666667\n",
      "0 0 0.0010416666666666667\n",
      "0 0 0.0010416666666666667\n",
      "0 0 0.0010416666666666667\n",
      "0 0 0.0010416666666666667\n",
      "0 0 0.0010416666666666667\n",
      "0 0 0.0010416666666666667\n",
      "0.01 10 0.0010416666666666667\n",
      "0.005 5 0.0010416666666666667\n",
      "0.005 5 0.0010416666666666667\n",
      "0.005 5 0.0010416666666666667\n",
      "0.005 5 0.0010416666666666667\n",
      "0.005 5 0.0010416666666666667\n",
      "0.005 5 0.0010416666666666667\n",
      "0.005 5 0.0010416666666666667\n",
      "0.005 5 0.0010416666666666667\n",
      "0.005 5 0.0010416666666666667\n",
      "0.005 5 0.0010416666666666667\n",
      "0.005 5 0.0010416666666666667\n",
      "0.005 5 0.0010416666666666667\n",
      "0.005 5 0.0010416666666666667\n",
      "0.005 5 0.0010416666666666667\n",
      "0.005 5 0.0010416666666666667\n",
      "0.005 5 0.0010416666666666667\n",
      "0.005 5 0.0010416666666666667\n",
      "0.005 5 0.0010416666666666667\n",
      "0.005 5 0.0010416666666666667\n",
      "0.005 5 0.0010416666666666667\n",
      "0.005 5 0.0010416666666666667\n",
      "0.005 5 0.0010416666666666667\n",
      "0.005 5 0.0010416666666666667\n",
      "1.615 1550 0.0010416666666666667\n",
      "0 0 0.0010416666666666667\n",
      "0.056 54 0.0010416666666666667\n",
      "0 0 0.0010416666666666667\n",
      "0.004 4 0.0010416666666666667\n",
      "0 0 0.0010416666666666667\n",
      "0.056 54 0.0010416666666666667\n",
      "0 0 0.0010416666666666667\n",
      "0.004 4 0.0010416666666666667\n",
      "0 0 0.0010416666666666667\n",
      "0.06 58 0.0010416666666666667\n",
      "0 0 0.0010416666666666667\n",
      "0 0 0.0010416666666666667\n",
      "0 0 0.0010416666666666667\n",
      "0 0 0.0010416666666666667\n",
      "0 0 0.0010416666666666667\n",
      "0 0 0.0010416666666666667\n",
      "0 0 0.0010416666666666667\n",
      "0.196 188 0.0010416666666666667\n",
      "0 0 0.0010416666666666667\n",
      "0 0 0.0010416666666666667\n",
      "0 0 0.0010416666666666667\n",
      "0 0 0.0010416666666666667\n",
      "0.044 42 0.0010416666666666667\n",
      "0 0 0.0010416666666666667\n",
      "0 0 0.0010416666666666667\n",
      "0 0 0.0010416666666666667\n",
      "0 0 0.0010416666666666667\n",
      "0.196 188 0.0010416666666666667\n",
      "0 0 0.0010416666666666667\n",
      "0 0 0.0010416666666666667\n",
      "0 0 0.0010416666666666667\n",
      "0 0 0.0010416666666666667\n",
      "0.34400000000000003 330 0.0010416666666666667\n",
      "0 0 0.0010416666666666667\n",
      "0 0 0.0010416666666666667\n",
      "0.004 4 0.0010416666666666667\n",
      "0.004 4 0.0010416666666666667\n",
      "0.004 4 0.0010416666666666667\n",
      "0.004 4 0.0010416666666666667\n",
      "0.004 4 0.0010416666666666667\n",
      "0.004 4 0.0010416666666666667\n",
      "0.004 4 0.0010416666666666667\n",
      "0.004 4 0.0010416666666666667\n",
      "0.004 4 0.0010416666666666667\n",
      "0.008 8 0.0010416666666666667\n",
      "0.004 4 0.0010416666666666667\n",
      "0.004 4 0.0010416666666666667\n",
      "0.004 4 0.0010416666666666667\n",
      "0 0 0.0010416666666666667\n",
      "0 0 0.0010416666666666667\n",
      "0.004 4 0.0010416666666666667\n",
      "0 0 0.0010416666666666667\n",
      "0 0 0.0010416666666666667\n",
      "0.004 4 0.0010416666666666667\n",
      "0.004 4 0.0010416666666666667\n",
      "0.004 4 0.0010416666666666667\n",
      "0.004 4 0.0010416666666666667\n",
      "0.004 4 0.0010416666666666667\n",
      "0.008 8 0.0010416666666666667\n",
      "0.004 4 0.0010416666666666667\n",
      "0.004 4 0.0010416666666666667\n",
      "0.004 4 0.0010416666666666667\n",
      "0.004 4 0.0010416666666666667\n",
      "0.004 4 0.0010416666666666667\n",
      "0.004 4 0.0010416666666666667\n",
      "0.004 4 0.0010416666666666667\n",
      "0 0 0.0010416666666666667\n",
      "0 0 0.0010416666666666667\n",
      "0.004 4 0.0010416666666666667\n",
      "0 0 0.0010416666666666667\n",
      "0 0 0.0010416666666666667\n",
      "0.004 4 0.0010416666666666667\n",
      "0.008 8 0.0010416666666666667\n",
      "0.004 4 0.0010416666666666667\n",
      "0.004 4 0.0010416666666666667\n",
      "0.004 4 0.0010416666666666667\n",
      "0.004 4 0.0010416666666666667\n",
      "0.004 4 0.0010416666666666667\n",
      "0.004 4 0.0010416666666666667\n",
      "0.004 4 0.0010416666666666667\n",
      "0.004 4 0.0010416666666666667\n",
      "0.004 4 0.0010416666666666667\n",
      "0.008 8 0.0010416666666666667\n",
      "0 0 0.0010416666666666667\n",
      "0 0 0.0010416666666666667\n",
      "0.004 4 0.0010416666666666667\n",
      "0 0 0.0010416666666666667\n",
      "0 0 0.0010416666666666667\n",
      "0 0 0.0010416666666666667\n",
      "0 0 0.0010416666666666667\n",
      "0.196 188 0.0010416666666666667\n",
      "0 0 0.0010416666666666667\n",
      "0 0 0.0010416666666666667\n",
      "0 0 0.0010416666666666667\n",
      "0 0 0.0010416666666666667\n",
      "0.044 42 0.0010416666666666667\n",
      "0 0 0.0010416666666666667\n",
      "0 0 0.0010416666666666667\n",
      "0 0 0.0010416666666666667\n",
      "0 0 0.0010416666666666667\n",
      "0.196 188 0.0010416666666666667\n",
      "0 0 0.0010416666666666667\n",
      "0 0 0.0010416666666666667\n",
      "0 0 0.0010416666666666667\n",
      "0 0 0.0010416666666666667\n",
      "0.524 503 0.0010416666666666667\n",
      "0 0 0.0010416666666666667\n",
      "0 0 0.0010416666666666667\n",
      "0 0 0.0010416666666666667\n",
      "0 0 0.0010416666666666667\n",
      "0 0 0.0010416666666666667\n",
      "0.004 4 0.0010416666666666667\n",
      "0.004 4 0.0010416666666666667\n",
      "0.008 8 0.0010416666666666667\n",
      "0.004 4 0.0010416666666666667\n",
      "0.008 8 0.0010416666666666667\n",
      "0.004 4 0.0010416666666666667\n",
      "0.008 8 0.0010416666666666667\n",
      "0.004 4 0.0010416666666666667\n",
      "0.008 8 0.0010416666666666667\n",
      "0.004 4 0.0010416666666666667\n",
      "0 0 0.0010416666666666667\n",
      "0 0 0.0010416666666666667\n",
      "0.004 4 0.0010416666666666667\n",
      "0 0 0.0010416666666666667\n",
      "0.004 4 0.0010416666666666667\n",
      "0.004 4 0.0010416666666666667\n",
      "0.008 8 0.0010416666666666667\n",
      "0.004 4 0.0010416666666666667\n",
      "0.008 8 0.0010416666666666667\n",
      "0.004 4 0.0010416666666666667\n",
      "0.008 8 0.0010416666666666667\n",
      "0.004 4 0.0010416666666666667\n",
      "0.008 8 0.0010416666666666667\n",
      "0.004 4 0.0010416666666666667\n",
      "0 0 0.0010416666666666667\n",
      "0 0 0.0010416666666666667\n",
      "0.004 4 0.0010416666666666667\n",
      "0 0 0.0010416666666666667\n",
      "0 0 0.0010416666666666667\n",
      "0.008 8 0.0010416666666666667\n",
      "0.004 4 0.0010416666666666667\n",
      "0.008 8 0.0010416666666666667\n",
      "0.004 4 0.0010416666666666667\n",
      "0.008 8 0.0010416666666666667\n",
      "0.004 4 0.0010416666666666667\n",
      "0.008 8 0.0010416666666666667\n",
      "0.004 4 0.0010416666666666667\n",
      "0.008 8 0.0010416666666666667\n",
      "0 0 0.0010416666666666667\n",
      "0 0 0.0010416666666666667\n",
      "0.004 4 0.0010416666666666667\n",
      "0 0 0.0010416666666666667\n",
      "0 0 0.0010416666666666667\n",
      "0.008 8 0.0010416666666666667\n",
      "0.004 4 0.0010416666666666667\n",
      "0.004 4 0.0010416666666666667\n",
      "0 0 0.0010416666666666667\n",
      "0 0 0.0010416666666666667\n",
      "0.004 4 0.0010416666666666667\n",
      "0.004 4 0.0010416666666666667\n",
      "0.008 8 0.0010416666666666667\n",
      "0.004 4 0.0010416666666666667\n",
      "0.008 8 0.0010416666666666667\n",
      "0.004 4 0.0010416666666666667\n",
      "0.008 8 0.0010416666666666667\n",
      "0 0 0.0010416666666666667\n",
      "0 0 0.0010416666666666667\n",
      "0.004 4 0.0010416666666666667\n",
      "0 0 0.0010416666666666667\n",
      "0.056 54 0.0010416666666666667\n",
      "0 0 0.0010416666666666667\n",
      "0.004 4 0.0010416666666666667\n",
      "0 0 0.0010416666666666667\n",
      "0.056 54 0.0010416666666666667\n",
      "0 0 0.0010416666666666667\n",
      "0.004 4 0.0010416666666666667\n",
      "0 0 0.0010416666666666667\n",
      "0.056 54 0.0010416666666666667\n",
      "0 0 0.0010416666666666667\n",
      "0.004 4 0.0010416666666666667\n",
      "0 0 0.0010416666666666667\n",
      "0.056 54 0.0010416666666666667\n",
      "0 0 0.0010416666666666667\n",
      "0.004 4 0.0010416666666666667\n",
      "0 0 0.0010416666666666667\n",
      "0.056 54 0.0010416666666666667\n",
      "0 0 0.0010416666666666667\n",
      "0.004 4 0.0010416666666666667\n",
      "0 0 0.0010416666666666667\n",
      "0.056 54 0.0010416666666666667\n",
      "0 0 0.0010416666666666667\n",
      "0.004 4 0.0010416666666666667\n",
      "0 0 0.0010416666666666667\n",
      "0.056 54 0.0010416666666666667\n",
      "0 0 0.0010416666666666667\n",
      "0.004 4 0.0010416666666666667\n",
      "0 0 0.0010416666666666667\n",
      "0.056 54 0.0010416666666666667\n",
      "0 0 0.0010416666666666667\n",
      "0.004 4 0.0010416666666666667\n",
      "0 0 0.0010416666666666667\n",
      "0 0 0.0010416666666666667\n",
      "0.004 4 0.0010416666666666667\n",
      "0.004 4 0.0010416666666666667\n",
      "0.008 8 0.0010416666666666667\n",
      "0.004 4 0.0010416666666666667\n",
      "0.008 8 0.0010416666666666667\n",
      "0.004 4 0.0010416666666666667\n",
      "0.008 8 0.0010416666666666667\n",
      "0.004 4 0.0010416666666666667\n",
      "0.008 8 0.0010416666666666667\n",
      "0.004 4 0.0010416666666666667\n",
      "0 0 0.0010416666666666667\n",
      "0 0 0.0010416666666666667\n",
      "0.004 4 0.0010416666666666667\n",
      "0 0 0.0010416666666666667\n",
      "0.004 4 0.0010416666666666667\n",
      "0.004 4 0.0010416666666666667\n",
      "0.008 8 0.0010416666666666667\n",
      "0.004 4 0.0010416666666666667\n",
      "0.008 8 0.0010416666666666667\n",
      "0.004 4 0.0010416666666666667\n",
      "0.008 8 0.0010416666666666667\n",
      "0.004 4 0.0010416666666666667\n",
      "0.008 8 0.0010416666666666667\n",
      "0.004 4 0.0010416666666666667\n",
      "0 0 0.0010416666666666667\n",
      "0 0 0.0010416666666666667\n",
      "0.004 4 0.0010416666666666667\n",
      "0 0 0.0010416666666666667\n",
      "0 0 0.0010416666666666667\n",
      "0.008 8 0.0010416666666666667\n",
      "0.004 4 0.0010416666666666667\n",
      "0.008 8 0.0010416666666666667\n",
      "0.004 4 0.0010416666666666667\n",
      "0.008 8 0.0010416666666666667\n",
      "0.004 4 0.0010416666666666667\n",
      "0.008 8 0.0010416666666666667\n",
      "0.004 4 0.0010416666666666667\n",
      "0.008 8 0.0010416666666666667\n",
      "0 0 0.0010416666666666667\n",
      "0 0 0.0010416666666666667\n",
      "0.004 4 0.0010416666666666667\n",
      "0 0 0.0010416666666666667\n",
      "0 0 0.0010416666666666667\n",
      "0.008 8 0.0010416666666666667\n",
      "0.004 4 0.0010416666666666667\n",
      "0.008 8 0.0010416666666666667\n",
      "0.004 4 0.0010416666666666667\n",
      "0.008 8 0.0010416666666666667\n",
      "0.004 4 0.0010416666666666667\n",
      "0.008 8 0.0010416666666666667\n",
      "0.004 4 0.0010416666666666667\n",
      "0.008 8 0.0010416666666666667\n",
      "0 0 0.0010416666666666667\n",
      "0 0 0.0010416666666666667\n",
      "0.004 4 0.0010416666666666667\n",
      "0 0 0.0010416666666666667\n",
      "0 0 0.0010416666666666667\n",
      "0 0 0.0010416666666666667\n",
      "0 0 0.0010416666666666667\n",
      "0.196 188 0.0010416666666666667\n",
      "0 0 0.0010416666666666667\n",
      "0 0 0.0010416666666666667\n",
      "0 0 0.0010416666666666667\n",
      "0 0 0.0010416666666666667\n",
      "0.044 42 0.0010416666666666667\n",
      "0 0 0.0010416666666666667\n",
      "0 0 0.0010416666666666667\n",
      "0 0 0.0010416666666666667\n",
      "0 0 0.0010416666666666667\n",
      "0.196 188 0.0010416666666666667\n",
      "0 0 0.0010416666666666667\n",
      "0 0 0.0010416666666666667\n",
      "0 0 0.0010416666666666667\n",
      "0 0 0.0010416666666666667\n",
      "0.252 242 0.0010416666666666667\n",
      "0.272 261 0.0010416666666666667\n",
      "0 0 0.0010416666666666667\n",
      "0 0 0.0010416666666666667\n",
      "0 0 0.0010416666666666667\n",
      "0 0 0.0010416666666666667\n",
      "0 0 0.0010416666666666667\n",
      "0 0 0.0010416666666666667\n",
      "0 0 0.0010416666666666667\n",
      "0 0 0.0010416666666666667\n",
      "0 0 0.0010416666666666667\n",
      "0 0 0.0010416666666666667\n",
      "0 0 0.0010416666666666667\n",
      "0 0 0.0010416666666666667\n",
      "0.176 169 0.0010416666666666667\n",
      "0 0 0.0010416666666666667\n",
      "0 0 0.0010416666666666667\n",
      "0 0 0.0010416666666666667\n",
      "0 0 0.0010416666666666667\n",
      "0 0 0.0010416666666666667\n",
      "0 0 0.0010416666666666667\n",
      "0 0 0.0010416666666666667\n",
      "0 0 0.0010416666666666667\n",
      "0 0 0.0010416666666666667\n",
      "0 0 0.0010416666666666667\n",
      "0.02 19 0.0010416666666666667\n",
      "0 0 0.0010416666666666667\n",
      "0.124 119 0.0010416666666666667\n",
      "0 0 0.0010416666666666667\n",
      "0 0 0.0010416666666666667\n",
      "0 0 0.0010416666666666667\n",
      "0 0 0.0010416666666666667\n",
      "0 0 0.0010416666666666667\n",
      "0 0 0.0010416666666666667\n",
      "0 0 0.0010416666666666667\n",
      "0 0 0.0010416666666666667\n",
      "0 0 0.0010416666666666667\n",
      "0 0 0.0010416666666666667\n",
      "0 0 0.0010416666666666667\n",
      "0 0 0.0010416666666666667\n",
      "0.056 54 0.0010416666666666667\n",
      "0 0 0.0010416666666666667\n",
      "0 0 0.0010416666666666667\n",
      "0 0 0.0010416666666666667\n",
      "0 0 0.0010416666666666667\n",
      "0 0 0.0010416666666666667\n",
      "0 0 0.0010416666666666667\n",
      "0 0 0.0010416666666666667\n",
      "0 0 0.0010416666666666667\n",
      "0 0 0.0010416666666666667\n",
      "0 0 0.0010416666666666667\n",
      "0 0 0.0010416666666666667\n",
      "0 0 0.0010416666666666667\n",
      "0.024 23 0.0010416666666666667\n",
      "0 0 0.0010416666666666667\n",
      "0 0 0.0010416666666666667\n",
      "0 0 0.0010416666666666667\n",
      "0 0 0.0010416666666666667\n",
      "0 0 0.0010416666666666667\n",
      "0 0 0.0010416666666666667\n",
      "0 0 0.0010416666666666667\n",
      "0 0 0.0010416666666666667\n",
      "0 0 0.0010416666666666667\n",
      "0 0 0.0010416666666666667\n",
      "0 0 0.0010416666666666667\n",
      "0 0 0.0010416666666666667\n",
      "0.056 54 0.0010416666666666667\n",
      "0 0 0.0010416666666666667\n",
      "0 0 0.0010416666666666667\n",
      "0 0 0.0010416666666666667\n",
      "0 0 0.0010416666666666667\n",
      "0 0 0.0010416666666666667\n",
      "0 0 0.0010416666666666667\n",
      "0 0 0.0010416666666666667\n",
      "0 0 0.0010416666666666667\n",
      "0 0 0.0010416666666666667\n",
      "0 0 0.0010416666666666667\n",
      "0 0 0.0010416666666666667\n",
      "0 0 0.0010416666666666667\n",
      "0.024 23 0.0010416666666666667\n",
      "0 0 0.0010416666666666667\n",
      "0 0 0.0010416666666666667\n",
      "0 0 0.0010416666666666667\n",
      "0 0 0.0010416666666666667\n",
      "0 0 0.0010416666666666667\n",
      "0 0 0.0010416666666666667\n",
      "0 0 0.0010416666666666667\n",
      "0 0 0.0010416666666666667\n",
      "0 0 0.0010416666666666667\n",
      "0 0 0.0010416666666666667\n",
      "0 0 0.0010416666666666667\n",
      "0 0 0.0010416666666666667\n",
      "0.196 188 0.0010416666666666667\n",
      "0 0 0.0010416666666666667\n",
      "0.4 384 0.0010416666666666667\n",
      "0 0 0.0010416666666666667\n",
      "0 0 0.0010416666666666667\n",
      "0 0 0.0010416666666666667\n",
      "0 0 0.0010416666666666667\n",
      "0 0 0.0010416666666666667\n",
      "0 0 0.0010416666666666667\n",
      "0 0 0.0010416666666666667\n",
      "0 0 0.0010416666666666667\n",
      "0 0 0.0010416666666666667\n",
      "0 0 0.0010416666666666667\n",
      "0.044 42 0.0010416666666666667\n",
      "0 0 0.0010416666666666667\n",
      "0 0 0.0010416666666666667\n",
      "0 0 0.0010416666666666667\n",
      "0 0 0.0010416666666666667\n",
      "0 0 0.0010416666666666667\n",
      "0 0 0.0010416666666666667\n",
      "0 0 0.0010416666666666667\n",
      "0 0 0.0010416666666666667\n",
      "0 0 0.0010416666666666667\n",
      "0 0 0.0010416666666666667\n",
      "0 0 0.0010416666666666667\n",
      "0 0 0.0010416666666666667\n",
      "0.116 111 0.0010416666666666667\n",
      "0 0 0.0010416666666666667\n",
      "0 0 0.0010416666666666667\n",
      "0 0 0.0010416666666666667\n",
      "0 0 0.0010416666666666667\n",
      "0 0 0.0010416666666666667\n",
      "0 0 0.0010416666666666667\n",
      "0 0 0.0010416666666666667\n",
      "0 0 0.0010416666666666667\n",
      "0 0 0.0010416666666666667\n",
      "0 0 0.0010416666666666667\n",
      "0 0 0.0010416666666666667\n",
      "0 0 0.0010416666666666667\n",
      "0.044 42 0.0010416666666666667\n",
      "0 0 0.0010416666666666667\n",
      "0 0 0.0010416666666666667\n",
      "0 0 0.0010416666666666667\n",
      "0 0 0.0010416666666666667\n",
      "0 0 0.0010416666666666667\n",
      "0 0 0.0010416666666666667\n",
      "0 0 0.0010416666666666667\n",
      "0 0 0.0010416666666666667\n",
      "0 0 0.0010416666666666667\n",
      "0 0 0.0010416666666666667\n",
      "0 0 0.0010416666666666667\n",
      "0 0 0.0010416666666666667\n",
      "0.116 111 0.0010416666666666667\n",
      "0 0 0.0010416666666666667\n",
      "0 0 0.0010416666666666667\n",
      "0 0 0.0010416666666666667\n",
      "0 0 0.0010416666666666667\n",
      "0 0 0.0010416666666666667\n",
      "0 0 0.0010416666666666667\n",
      "0 0 0.0010416666666666667\n",
      "0 0 0.0010416666666666667\n",
      "0 0 0.0010416666666666667\n",
      "0 0 0.0010416666666666667\n",
      "0 0 0.0010416666666666667\n",
      "0 0 0.0010416666666666667\n",
      "0.044 42 0.0010416666666666667\n",
      "0 0 0.0010416666666666667\n",
      "0 0 0.0010416666666666667\n",
      "0 0 0.0010416666666666667\n",
      "0 0 0.0010416666666666667\n",
      "0 0 0.0010416666666666667\n",
      "0 0 0.0010416666666666667\n",
      "0 0 0.0010416666666666667\n",
      "0 0 0.0010416666666666667\n",
      "0 0 0.0010416666666666667\n",
      "0 0 0.0010416666666666667\n",
      "0 0 0.0010416666666666667\n",
      "0 0 0.0010416666666666667\n",
      "0.116 111 0.0010416666666666667\n",
      "0 0 0.0010416666666666667\n",
      "0 0 0.0010416666666666667\n",
      "0 0 0.0010416666666666667\n",
      "0 0 0.0010416666666666667\n",
      "0 0 0.0010416666666666667\n",
      "0 0 0.0010416666666666667\n",
      "0 0 0.0010416666666666667\n",
      "0 0 0.0010416666666666667\n",
      "0 0 0.0010416666666666667\n",
      "0 0 0.0010416666666666667\n",
      "0 0 0.0010416666666666667\n",
      "0 0 0.0010416666666666667\n",
      "0.044 42 0.0010416666666666667\n",
      "0 0 0.0010416666666666667\n",
      "0 0 0.0010416666666666667\n",
      "0 0 0.0010416666666666667\n",
      "0 0 0.0010416666666666667\n",
      "0 0 0.0010416666666666667\n",
      "0 0 0.0010416666666666667\n",
      "0 0 0.0010416666666666667\n",
      "0 0 0.0010416666666666667\n",
      "0 0 0.0010416666666666667\n",
      "0 0 0.0010416666666666667\n",
      "0 0 0.0010416666666666667\n",
      "0 0 0.0010416666666666667\n",
      "0.116 111 0.0010416666666666667\n",
      "0 0 0.0010416666666666667\n",
      "0 0 0.0010416666666666667\n",
      "0 0 0.0010416666666666667\n",
      "0 0 0.0010416666666666667\n",
      "0 0 0.0010416666666666667\n",
      "0 0 0.0010416666666666667\n",
      "0 0 0.0010416666666666667\n",
      "0 0 0.0010416666666666667\n",
      "0 0 0.0010416666666666667\n",
      "0 0 0.0010416666666666667\n",
      "0 0 0.0010416666666666667\n",
      "0 0 0.0010416666666666667\n",
      "0.044 42 0.0010416666666666667\n",
      "0 0 0.0010416666666666667\n",
      "0 0 0.0010416666666666667\n",
      "0 0 0.0010416666666666667\n",
      "0 0 0.0010416666666666667\n",
      "0 0 0.0010416666666666667\n",
      "0 0 0.0010416666666666667\n",
      "0 0 0.0010416666666666667\n",
      "0 0 0.0010416666666666667\n",
      "0 0 0.0010416666666666667\n",
      "0 0 0.0010416666666666667\n",
      "0 0 0.0010416666666666667\n",
      "0 0 0.0010416666666666667\n",
      "0.116 111 0.0010416666666666667\n",
      "0 0 0.0010416666666666667\n",
      "0 0 0.0010416666666666667\n",
      "0 0 0.0010416666666666667\n",
      "0 0 0.0010416666666666667\n",
      "0 0 0.0010416666666666667\n",
      "0 0 0.0010416666666666667\n",
      "0 0 0.0010416666666666667\n",
      "0 0 0.0010416666666666667\n",
      "0 0 0.0010416666666666667\n",
      "0 0 0.0010416666666666667\n",
      "0 0 0.0010416666666666667\n",
      "0 0 0.0010416666666666667\n",
      "0.044 42 0.0010416666666666667\n",
      "0 0 0.0010416666666666667\n",
      "0 0 0.0010416666666666667\n",
      "0 0 0.0010416666666666667\n",
      "0 0 0.0010416666666666667\n",
      "0 0 0.0010416666666666667\n",
      "0 0 0.0010416666666666667\n",
      "0 0 0.0010416666666666667\n",
      "0 0 0.0010416666666666667\n",
      "0 0 0.0010416666666666667\n",
      "0 0 0.0010416666666666667\n",
      "0 0 0.0010416666666666667\n",
      "0 0 0.0010416666666666667\n",
      "0.156 150 0.0010416666666666667\n",
      "0 0 0.0010416666666666667\n",
      "0 0 0.0010416666666666667\n",
      "0 0 0.0010416666666666667\n",
      "0 0 0.0010416666666666667\n",
      "0 0 0.0010416666666666667\n",
      "0 0 0.0010416666666666667\n",
      "0 0 0.0010416666666666667\n",
      "0 0 0.0010416666666666667\n",
      "0 0 0.0010416666666666667\n",
      "0 0 0.0010416666666666667\n",
      "0.04 38 0.0010416666666666667\n",
      "0 0 0.0010416666666666667\n",
      "0.124 119 0.0010416666666666667\n",
      "0 0 0.0010416666666666667\n",
      "0 0 0.0010416666666666667\n",
      "0 0 0.0010416666666666667\n",
      "0 0 0.0010416666666666667\n",
      "0 0 0.0010416666666666667\n",
      "0 0 0.0010416666666666667\n",
      "0 0 0.0010416666666666667\n",
      "0 0 0.0010416666666666667\n",
      "0 0 0.0010416666666666667\n",
      "0 0 0.0010416666666666667\n",
      "0 0 0.0010416666666666667\n",
      "0 0 0.0010416666666666667\n",
      "0.056 54 0.0010416666666666667\n",
      "0 0 0.0010416666666666667\n",
      "0 0 0.0010416666666666667\n",
      "0 0 0.0010416666666666667\n",
      "0 0 0.0010416666666666667\n",
      "0 0 0.0010416666666666667\n",
      "0 0 0.0010416666666666667\n",
      "0 0 0.0010416666666666667\n",
      "0 0 0.0010416666666666667\n",
      "0 0 0.0010416666666666667\n",
      "0 0 0.0010416666666666667\n",
      "0 0 0.0010416666666666667\n",
      "0 0 0.0010416666666666667\n",
      "0.024 23 0.0010416666666666667\n",
      "0 0 0.0010416666666666667\n",
      "0 0 0.0010416666666666667\n",
      "0 0 0.0010416666666666667\n",
      "0 0 0.0010416666666666667\n",
      "0 0 0.0010416666666666667\n",
      "0 0 0.0010416666666666667\n",
      "0 0 0.0010416666666666667\n",
      "0 0 0.0010416666666666667\n",
      "0 0 0.0010416666666666667\n",
      "0 0 0.0010416666666666667\n",
      "0 0 0.0010416666666666667\n",
      "0 0 0.0010416666666666667\n",
      "0.056 54 0.0010416666666666667\n",
      "0 0 0.0010416666666666667\n",
      "0 0 0.0010416666666666667\n",
      "0 0 0.0010416666666666667\n",
      "0 0 0.0010416666666666667\n",
      "0 0 0.0010416666666666667\n",
      "0 0 0.0010416666666666667\n",
      "0 0 0.0010416666666666667\n",
      "0 0 0.0010416666666666667\n",
      "0 0 0.0010416666666666667\n",
      "0 0 0.0010416666666666667\n",
      "0 0 0.0010416666666666667\n",
      "0 0 0.0010416666666666667\n",
      "0.024 23 0.0010416666666666667\n",
      "0 0 0.0010416666666666667\n",
      "0 0 0.0010416666666666667\n",
      "0 0 0.0010416666666666667\n",
      "0 0 0.0010416666666666667\n",
      "0 0 0.0010416666666666667\n",
      "0 0 0.0010416666666666667\n",
      "0 0 0.0010416666666666667\n",
      "0 0 0.0010416666666666667\n",
      "0 0 0.0010416666666666667\n",
      "0 0 0.0010416666666666667\n",
      "0 0 0.0010416666666666667\n",
      "0 0 0.0010416666666666667\n",
      "0.116 111 0.0010416666666666667\n",
      "0 0 0.0010416666666666667\n",
      "0 0 0.0010416666666666667\n",
      "0 0 0.0010416666666666667\n",
      "0 0 0.0010416666666666667\n",
      "0 0 0.0010416666666666667\n",
      "0 0 0.0010416666666666667\n",
      "0 0 0.0010416666666666667\n",
      "0 0 0.0010416666666666667\n",
      "0 0 0.0010416666666666667\n",
      "0 0 0.0010416666666666667\n",
      "0 0 0.0010416666666666667\n",
      "0 0 0.0010416666666666667\n",
      "0.044 42 0.0010416666666666667\n",
      "0 0 0.0010416666666666667\n",
      "0 0 0.0010416666666666667\n",
      "0 0 0.0010416666666666667\n",
      "0 0 0.0010416666666666667\n",
      "0 0 0.0010416666666666667\n",
      "0 0 0.0010416666666666667\n",
      "0 0 0.0010416666666666667\n",
      "0 0 0.0010416666666666667\n",
      "0 0 0.0010416666666666667\n",
      "0 0 0.0010416666666666667\n",
      "0 0 0.0010416666666666667\n",
      "0 0 0.0010416666666666667\n",
      "0.116 111 0.0010416666666666667\n",
      "0 0 0.0010416666666666667\n",
      "0 0 0.0010416666666666667\n",
      "0 0 0.0010416666666666667\n",
      "0 0 0.0010416666666666667\n",
      "0 0 0.0010416666666666667\n",
      "0 0 0.0010416666666666667\n",
      "0 0 0.0010416666666666667\n",
      "0 0 0.0010416666666666667\n",
      "0 0 0.0010416666666666667\n",
      "0 0 0.0010416666666666667\n",
      "0 0 0.0010416666666666667\n",
      "0 0 0.0010416666666666667\n",
      "0.044 42 0.0010416666666666667\n",
      "0 0 0.0010416666666666667\n",
      "0 0 0.0010416666666666667\n",
      "0 0 0.0010416666666666667\n",
      "0 0 0.0010416666666666667\n",
      "0 0 0.0010416666666666667\n",
      "0 0 0.0010416666666666667\n",
      "0 0 0.0010416666666666667\n",
      "0 0 0.0010416666666666667\n",
      "0 0 0.0010416666666666667\n",
      "0 0 0.0010416666666666667\n",
      "0 0 0.0010416666666666667\n",
      "0 0 0.0010416666666666667\n",
      "0.116 111 0.0010416666666666667\n",
      "0 0 0.0010416666666666667\n",
      "0 0 0.0010416666666666667\n",
      "0 0 0.0010416666666666667\n",
      "0 0 0.0010416666666666667\n",
      "0 0 0.0010416666666666667\n",
      "0 0 0.0010416666666666667\n",
      "0 0 0.0010416666666666667\n",
      "0 0 0.0010416666666666667\n",
      "0 0 0.0010416666666666667\n",
      "0 0 0.0010416666666666667\n",
      "0 0 0.0010416666666666667\n",
      "0 0 0.0010416666666666667\n",
      "0.044 42 0.0010416666666666667\n",
      "0 0 0.0010416666666666667\n",
      "0 0 0.0010416666666666667\n",
      "0 0 0.0010416666666666667\n",
      "0 0 0.0010416666666666667\n",
      "0 0 0.0010416666666666667\n",
      "0 0 0.0010416666666666667\n",
      "0 0 0.0010416666666666667\n",
      "0 0 0.0010416666666666667\n",
      "0 0 0.0010416666666666667\n",
      "0 0 0.0010416666666666667\n",
      "0 0 0.0010416666666666667\n",
      "0 0 0.0010416666666666667\n",
      "0.116 111 0.0010416666666666667\n",
      "0 0 0.0010416666666666667\n",
      "0 0 0.0010416666666666667\n",
      "0 0 0.0010416666666666667\n",
      "0 0 0.0010416666666666667\n",
      "0 0 0.0010416666666666667\n",
      "0 0 0.0010416666666666667\n",
      "0 0 0.0010416666666666667\n",
      "0 0 0.0010416666666666667\n",
      "0 0 0.0010416666666666667\n",
      "0 0 0.0010416666666666667\n",
      "0 0 0.0010416666666666667\n",
      "0 0 0.0010416666666666667\n",
      "0.044 42 0.0010416666666666667\n",
      "0 0 0.0010416666666666667\n",
      "0 0 0.0010416666666666667\n",
      "0 0 0.0010416666666666667\n",
      "0 0 0.0010416666666666667\n",
      "0 0 0.0010416666666666667\n",
      "0 0 0.0010416666666666667\n",
      "0 0 0.0010416666666666667\n",
      "0 0 0.0010416666666666667\n",
      "0 0 0.0010416666666666667\n",
      "0 0 0.0010416666666666667\n",
      "0 0 0.0010416666666666667\n",
      "0 0 0.0010416666666666667\n",
      "0.116 111 0.0010416666666666667\n",
      "0 0 0.0010416666666666667\n",
      "0 0 0.0010416666666666667\n",
      "0 0 0.0010416666666666667\n",
      "0 0 0.0010416666666666667\n",
      "0 0 0.0010416666666666667\n",
      "0 0 0.0010416666666666667\n",
      "0 0 0.0010416666666666667\n",
      "0 0 0.0010416666666666667\n",
      "0 0 0.0010416666666666667\n",
      "0 0 0.0010416666666666667\n",
      "0 0 0.0010416666666666667\n",
      "0 0 0.0010416666666666667\n",
      "0.044 42 0.0010416666666666667\n",
      "0 0 0.0010416666666666667\n",
      "0 0 0.0010416666666666667\n",
      "0 0 0.0010416666666666667\n",
      "0 0 0.0010416666666666667\n",
      "0 0 0.0010416666666666667\n",
      "0 0 0.0010416666666666667\n",
      "0 0 0.0010416666666666667\n",
      "0 0 0.0010416666666666667\n",
      "0 0 0.0010416666666666667\n",
      "0 0 0.0010416666666666667\n",
      "0 0 0.0010416666666666667\n",
      "0 0 0.0010416666666666667\n",
      "0.116 111 0.0010416666666666667\n",
      "0 0 0.0010416666666666667\n",
      "0 0 0.0010416666666666667\n",
      "0 0 0.0010416666666666667\n",
      "0 0 0.0010416666666666667\n",
      "0 0 0.0010416666666666667\n",
      "0 0 0.0010416666666666667\n",
      "0 0 0.0010416666666666667\n",
      "0 0 0.0010416666666666667\n",
      "0 0 0.0010416666666666667\n",
      "0 0 0.0010416666666666667\n",
      "0 0 0.0010416666666666667\n",
      "0 0 0.0010416666666666667\n",
      "0.044 42 0.0010416666666666667\n",
      "0 0 0.0010416666666666667\n",
      "0 0 0.0010416666666666667\n",
      "0 0 0.0010416666666666667\n",
      "0 0 0.0010416666666666667\n",
      "0 0 0.0010416666666666667\n",
      "0 0 0.0010416666666666667\n",
      "0 0 0.0010416666666666667\n",
      "0 0 0.0010416666666666667\n",
      "0 0 0.0010416666666666667\n",
      "0 0 0.0010416666666666667\n",
      "0 0 0.0010416666666666667\n",
      "0 0 0.0010416666666666667\n",
      "0.116 111 0.0010416666666666667\n",
      "0 0 0.0010416666666666667\n",
      "0 0 0.0010416666666666667\n",
      "0 0 0.0010416666666666667\n",
      "0 0 0.0010416666666666667\n",
      "0 0 0.0010416666666666667\n",
      "0 0 0.0010416666666666667\n",
      "0 0 0.0010416666666666667\n",
      "0 0 0.0010416666666666667\n",
      "0 0 0.0010416666666666667\n",
      "0 0 0.0010416666666666667\n",
      "0 0 0.0010416666666666667\n",
      "0 0 0.0010416666666666667\n",
      "0.044 42 0.0010416666666666667\n",
      "0 0 0.0010416666666666667\n",
      "0 0 0.0010416666666666667\n",
      "0 0 0.0010416666666666667\n",
      "0 0 0.0010416666666666667\n",
      "0 0 0.0010416666666666667\n",
      "0 0 0.0010416666666666667\n",
      "0 0 0.0010416666666666667\n",
      "0 0 0.0010416666666666667\n",
      "0 0 0.0010416666666666667\n",
      "0 0 0.0010416666666666667\n",
      "0.116 111 0.0010416666666666667\n",
      "0 0 0.0010416666666666667\n",
      "0 0 0.0010416666666666667\n",
      "0 0 0.0010416666666666667\n",
      "0 0 0.0010416666666666667\n",
      "0 0 0.0010416666666666667\n",
      "0 0 0.0010416666666666667\n",
      "0 0 0.0010416666666666667\n",
      "0 0 0.0010416666666666667\n",
      "0 0 0.0010416666666666667\n",
      "0 0 0.0010416666666666667\n",
      "0.044 42 0.0010416666666666667\n",
      "0 0 0.0010416666666666667\n",
      "0 0 0.0010416666666666667\n",
      "0 0 0.0010416666666666667\n",
      "0 0 0.0010416666666666667\n",
      "0 0 0.0010416666666666667\n",
      "0 0 0.0010416666666666667\n",
      "0 0 0.0010416666666666667\n",
      "0 0 0.0010416666666666667\n",
      "0.116 111 0.0010416666666666667\n",
      "0 0 0.0010416666666666667\n",
      "0 0 0.0010416666666666667\n",
      "0 0 0.0010416666666666667\n",
      "0 0 0.0010416666666666667\n",
      "0 0 0.0010416666666666667\n",
      "0 0 0.0010416666666666667\n",
      "0 0 0.0010416666666666667\n",
      "0 0 0.0010416666666666667\n",
      "0.044 42 0.0010416666666666667\n",
      "0 0 0.0010416666666666667\n",
      "0 0 0.0010416666666666667\n",
      "0 0 0.0010416666666666667\n",
      "0 0 0.0010416666666666667\n",
      "0 0 0.0010416666666666667\n",
      "0 0 0.0010416666666666667\n",
      "0 0 0.0010416666666666667\n",
      "0 0 0.0010416666666666667\n",
      "0 0 0.0010416666666666667\n",
      "0 0 0.0010416666666666667\n",
      "0 0 0.0010416666666666667\n",
      "0 0 0.0010416666666666667\n",
      "0.156 150 0.0010416666666666667\n",
      "0 0 0.0010416666666666667\n",
      "0 0 0.0010416666666666667\n",
      "0 0 0.0010416666666666667\n",
      "0 0 0.0010416666666666667\n",
      "0 0 0.0010416666666666667\n",
      "0 0 0.0010416666666666667\n",
      "0 0 0.0010416666666666667\n",
      "0 0 0.0010416666666666667\n",
      "0 0 0.0010416666666666667\n",
      "0 0 0.0010416666666666667\n",
      "0.04 38 0.0010416666666666667\n",
      "0 0 0.0010416666666666667\n",
      "0.124 119 0.0010416666666666667\n",
      "0 0 0.0010416666666666667\n",
      "0 0 0.0010416666666666667\n",
      "0 0 0.0010416666666666667\n",
      "0 0 0.0010416666666666667\n",
      "0 0 0.0010416666666666667\n",
      "0 0 0.0010416666666666667\n",
      "0 0 0.0010416666666666667\n",
      "0 0 0.0010416666666666667\n",
      "0 0 0.0010416666666666667\n",
      "0 0 0.0010416666666666667\n",
      "0 0 0.0010416666666666667\n",
      "0 0 0.0010416666666666667\n",
      "0.036000000000000004 35 0.0010416666666666667\n",
      "0 0 0.0010416666666666667\n",
      "0.02 19 0.0010416666666666667\n",
      "0 0 0.0010416666666666667\n",
      "0 0 0.0010416666666666667\n",
      "0 0 0.0010416666666666667\n",
      "0 0 0.0010416666666666667\n",
      "0 0 0.0010416666666666667\n",
      "0 0 0.0010416666666666667\n",
      "0 0 0.0010416666666666667\n",
      "0 0 0.0010416666666666667\n",
      "0 0 0.0010416666666666667\n",
      "0 0 0.0010416666666666667\n",
      "0.024 23 0.0010416666666666667\n",
      "0 0 0.0010416666666666667\n",
      "0 0 0.0010416666666666667\n",
      "0 0 0.0010416666666666667\n",
      "0 0 0.0010416666666666667\n",
      "0 0 0.0010416666666666667\n",
      "0 0 0.0010416666666666667\n",
      "0 0 0.0010416666666666667\n",
      "0 0 0.0010416666666666667\n",
      "0 0 0.0010416666666666667\n",
      "0 0 0.0010416666666666667\n",
      "0 0 0.0010416666666666667\n",
      "0 0 0.0010416666666666667\n",
      "0.036000000000000004 35 0.0010416666666666667\n",
      "0.02 19 0.0010416666666666667\n",
      "0 0 0.0010416666666666667\n",
      "0 0 0.0010416666666666667\n",
      "0 0 0.0010416666666666667\n",
      "0 0 0.0010416666666666667\n",
      "0 0 0.0010416666666666667\n",
      "0 0 0.0010416666666666667\n",
      "0 0 0.0010416666666666667\n",
      "0 0 0.0010416666666666667\n",
      "0 0 0.0010416666666666667\n",
      "0 0 0.0010416666666666667\n",
      "0 0 0.0010416666666666667\n",
      "0.024 23 0.0010416666666666667\n",
      "0 0 0.0010416666666666667\n",
      "0 0 0.0010416666666666667\n",
      "0 0 0.0010416666666666667\n",
      "0 0 0.0010416666666666667\n",
      "0 0 0.0010416666666666667\n",
      "0 0 0.0010416666666666667\n",
      "0 0 0.0010416666666666667\n",
      "0 0 0.0010416666666666667\n",
      "0 0 0.0010416666666666667\n",
      "0 0 0.0010416666666666667\n",
      "0 0 0.0010416666666666667\n",
      "0 0 0.0010416666666666667\n",
      "0 0 0.0010416666666666667\n",
      "0 0 0.0010416666666666667\n",
      "0 0 0.0010416666666666667\n",
      "0.008 8 0.0010416666666666667\n",
      "0.012 12 0.0010416666666666667\n",
      "0.012 12 0.0010416666666666667\n",
      "0.004 4 0.0010416666666666667\n",
      "0 0 0.0010416666666666667\n",
      "0.008 8 0.0010416666666666667\n",
      "0.012 12 0.0010416666666666667\n",
      "0.004 4 0.0010416666666666667\n",
      "0 0 0.0010416666666666667\n",
      "0.008 8 0.0010416666666666667\n",
      "0.012 12 0.0010416666666666667\n",
      "0.012 12 0.0010416666666666667\n",
      "0.004 4 0.0010416666666666667\n",
      "0 0 0.0010416666666666667\n",
      "0.008 8 0.0010416666666666667\n",
      "0.012 12 0.0010416666666666667\n",
      "0.004 4 0.0010416666666666667\n",
      "0 0 0.0010416666666666667\n",
      "0.008 8 0.0010416666666666667\n",
      "0.012 12 0.0010416666666666667\n",
      "0.012 12 0.0010416666666666667\n",
      "0.004 4 0.0010416666666666667\n",
      "0 0 0.0010416666666666667\n",
      "0.008 8 0.0010416666666666667\n",
      "0.012 12 0.0010416666666666667\n",
      "0.004 4 0.0010416666666666667\n",
      "0 0 0.0010416666666666667\n",
      "0.008 8 0.0010416666666666667\n",
      "0.008 8 0.0010416666666666667\n",
      "0 0 0.0010416666666666667\n",
      "0.004 4 0.0010416666666666667\n",
      "0.012 12 0.0010416666666666667\n",
      "0.004 4 0.0010416666666666667\n",
      "0 0 0.0010416666666666667\n",
      "0.008 8 0.0010416666666666667\n",
      "0.012 12 0.0010416666666666667\n",
      "0.004 4 0.0010416666666666667\n",
      "0 0 0.0010416666666666667\n",
      "0.008 8 0.0010416666666666667\n",
      "0.012 12 0.0010416666666666667\n",
      "0.012 12 0.0010416666666666667\n",
      "0.004 4 0.0010416666666666667\n",
      "0 0 0.0010416666666666667\n",
      "0.008 8 0.0010416666666666667\n",
      "0.012 12 0.0010416666666666667\n",
      "0.004 4 0.0010416666666666667\n",
      "0 0 0.0010416666666666667\n",
      "0.008 8 0.0010416666666666667\n",
      "0.012 12 0.0010416666666666667\n",
      "0.012 12 0.0010416666666666667\n",
      "0.004 4 0.0010416666666666667\n",
      "0 0 0.0010416666666666667\n",
      "0.008 8 0.0010416666666666667\n",
      "0.012 12 0.0010416666666666667\n",
      "0.004 4 0.0010416666666666667\n",
      "0 0 0.0010416666666666667\n",
      "0.008 8 0.0010416666666666667\n",
      "0.012 12 0.0010416666666666667\n",
      "0.012 12 0.0010416666666666667\n",
      "0.004 4 0.0010416666666666667\n",
      "0 0 0.0010416666666666667\n",
      "0.008 8 0.0010416666666666667\n",
      "0.012 12 0.0010416666666666667\n",
      "0.004 4 0.0010416666666666667\n",
      "0 0 0.0010416666666666667\n",
      "0.008 8 0.0010416666666666667\n",
      "0.012 12 0.0010416666666666667\n",
      "0.012 12 0.0010416666666666667\n",
      "0.004 4 0.0010416666666666667\n",
      "0 0 0.0010416666666666667\n",
      "0.008 8 0.0010416666666666667\n",
      "0.012 12 0.0010416666666666667\n",
      "0.004 4 0.0010416666666666667\n",
      "0 0 0.0010416666666666667\n",
      "0 0 0.0010416666666666667\n",
      "0 0 0.0010416666666666667\n",
      "0 0 0.0010416666666666667\n",
      "0.116 111 0.0010416666666666667\n",
      "0 0 0.0010416666666666667\n",
      "0 0 0.0010416666666666667\n",
      "0 0 0.0010416666666666667\n",
      "0 0 0.0010416666666666667\n",
      "0 0 0.0010416666666666667\n",
      "0 0 0.0010416666666666667\n",
      "0 0 0.0010416666666666667\n",
      "0 0 0.0010416666666666667\n",
      "0 0 0.0010416666666666667\n",
      "0 0 0.0010416666666666667\n",
      "0.08 77 0.0010416666666666667\n",
      "0 0 0.0010416666666666667\n",
      "0 0 0.0010416666666666667\n",
      "0 0 0.0010416666666666667\n",
      "0 0 0.0010416666666666667\n",
      "0.276 265 0.0010416666666666667\n",
      "0.0080645 8 0.0010416666666666667\n",
      "0 0 0.0010416666666666667\n",
      "0 0 0.0010416666666666667\n",
      "0.0080645 8 0.0010416666666666667\n",
      "0.008130066666666666 8 0.0010416666666666667\n",
      "0.00826445 8 0.0010416666666666667\n",
      "0.00840335 8 0.0010416666666666667\n",
      "0.01694913333333333 16 0.0010416666666666667\n",
      "0.0726495 70 0.0010416666666666667\n",
      "0 0 0.0010416666666666667\n",
      "0 0 0.0010416666666666667\n",
      "0.0470085 45 0.0010416666666666667\n",
      "0 0 0.0010416666666666667\n",
      "0 0 0.0010416666666666667\n",
      "0.12393150000000001 119 0.0010416666666666667\n",
      "0 0 0.0010416666666666667\n",
      "0 0 0.0010416666666666667\n",
      "0.0470085 45 0.0010416666666666667\n",
      "0 0 0.0010416666666666667\n",
      "0 0 0.0010416666666666667\n",
      "0.12393150000000001 119 0.0010416666666666667\n",
      "0 0 0.0010416666666666667\n",
      "0 0 0.0010416666666666667\n",
      "0.0470085 45 0.0010416666666666667\n",
      "0 0 0.0010416666666666667\n",
      "0 0 0.0010416666666666667\n",
      "0.51282 492 0.0010416666666666667\n",
      "0 0 0.0010416666666666667\n",
      "0 0 0.0010416666666666667\n",
      "0 0 0.0010416666666666667\n",
      "0 0 0.0010416666666666667\n",
      "0 0 0.0010416666666666667\n",
      "0 0 0.0010416666666666667\n",
      "0 0 0.0010416666666666667\n",
      "0 0 0.0010416666666666667\n",
      "0 0 0.0010416666666666667\n",
      "0 0 0.0010416666666666667\n",
      "0 0 0.0010416666666666667\n",
      "0 0 0.0010416666666666667\n",
      "0 0 0.0010416666666666667\n",
      "0.16666650000000002 160 0.0010416666666666667\n",
      "0 0 0.0010416666666666667\n",
      "0 0 0.0010416666666666667\n",
      "0 0 0.0010416666666666667\n",
      "0 0 0.0010416666666666667\n",
      "0 0 0.0010416666666666667\n",
      "0.0213675 21 0.0010416666666666667\n",
      "0.0213675 21 0.0010416666666666667\n",
      "0 0 0.0010416666666666667\n",
      "0 0 0.0010416666666666667\n",
      "0 0 0.0010416666666666667\n",
      "0 0 0.0010416666666666667\n",
      "0 0 0.0010416666666666667\n",
      "0.1324785 127 0.0010416666666666667\n",
      "0 0 0.0010416666666666667\n",
      "0 0 0.0010416666666666667\n",
      "0 0 0.0010416666666666667\n",
      "0 0 0.0010416666666666667\n",
      "0 0 0.0010416666666666667\n",
      "0 0 0.0010416666666666667\n",
      "0 0 0.0010416666666666667\n",
      "0 0 0.0010416666666666667\n",
      "0 0 0.0010416666666666667\n",
      "0 0 0.0010416666666666667\n",
      "0 0 0.0010416666666666667\n",
      "0 0 0.0010416666666666667\n",
      "0.0384615 37 0.0010416666666666667\n",
      "0 0 0.0010416666666666667\n",
      "0.0213675 21 0.0010416666666666667\n",
      "0 0 0.0010416666666666667\n",
      "0 0 0.0010416666666666667\n",
      "0 0 0.0010416666666666667\n",
      "0 0 0.0010416666666666667\n",
      "0 0 0.0010416666666666667\n",
      "0 0 0.0010416666666666667\n",
      "0 0 0.0010416666666666667\n",
      "0 0 0.0010416666666666667\n",
      "0 0 0.0010416666666666667\n",
      "0 0 0.0010416666666666667\n",
      "0.025641000000000004 25 0.0010416666666666667\n",
      "0 0 0.0010416666666666667\n",
      "0 0 0.0010416666666666667\n",
      "0 0 0.0010416666666666667\n",
      "0 0 0.0010416666666666667\n",
      "0 0 0.0010416666666666667\n",
      "0 0 0.0010416666666666667\n",
      "0 0 0.0010416666666666667\n",
      "0 0 0.0010416666666666667\n",
      "0 0 0.0010416666666666667\n",
      "0 0 0.0010416666666666667\n",
      "0 0 0.0010416666666666667\n",
      "0 0 0.0010416666666666667\n",
      "0.0384615 37 0.0010416666666666667\n",
      "0 0 0.0010416666666666667\n",
      "0.0213675 21 0.0010416666666666667\n",
      "0 0 0.0010416666666666667\n",
      "0 0 0.0010416666666666667\n",
      "0 0 0.0010416666666666667\n",
      "0 0 0.0010416666666666667\n",
      "0 0 0.0010416666666666667\n",
      "0 0 0.0010416666666666667\n",
      "0 0 0.0010416666666666667\n",
      "0 0 0.0010416666666666667\n",
      "0 0 0.0010416666666666667\n",
      "0 0 0.0010416666666666667\n",
      "0.025641000000000004 25 0.0010416666666666667\n",
      "0 0 0.0010416666666666667\n",
      "0 0 0.0010416666666666667\n",
      "0 0 0.0010416666666666667\n",
      "0 0 0.0010416666666666667\n",
      "0 0 0.0010416666666666667\n",
      "0 0 0.0010416666666666667\n",
      "0 0 0.0010416666666666667\n",
      "0 0 0.0010416666666666667\n",
      "0 0 0.0010416666666666667\n",
      "0 0 0.0010416666666666667\n",
      "0 0 0.0010416666666666667\n",
      "0 0 0.0010416666666666667\n",
      "0 0 0.0010416666666666667\n",
      "0.008547 8 0.0010416666666666667\n",
      "0.008547 8 0.0010416666666666667\n",
      "0.008547 8 0.0010416666666666667\n",
      "0.008547 8 0.0010416666666666667\n",
      "0.0042735 4 0.0010416666666666667\n",
      "0 0 0.0010416666666666667\n",
      "0.008547 8 0.0010416666666666667\n",
      "0.008547 8 0.0010416666666666667\n",
      "0.008547 8 0.0010416666666666667\n",
      "0 0 0.0010416666666666667\n",
      "0 0 0.0010416666666666667\n",
      "0.008547 8 0.0010416666666666667\n",
      "0.012820500000000002 12 0.0010416666666666667\n",
      "0.008547 8 0.0010416666666666667\n",
      "0.008547 8 0.0010416666666666667\n",
      "0 0 0.0010416666666666667\n",
      "0 0 0.0010416666666666667\n",
      "0.008547 8 0.0010416666666666667\n",
      "0.012820500000000002 12 0.0010416666666666667\n",
      "0.0042735 4 0.0010416666666666667\n",
      "0 0 0.0010416666666666667\n",
      "0.0042735 4 0.0010416666666666667\n",
      "0.008547 8 0.0010416666666666667\n",
      "0.008547 8 0.0010416666666666667\n",
      "0.012820500000000002 12 0.0010416666666666667\n",
      "0.0042735 4 0.0010416666666666667\n",
      "0 0 0.0010416666666666667\n",
      "0.0042735 4 0.0010416666666666667\n",
      "0.008547 8 0.0010416666666666667\n",
      "0.008547 8 0.0010416666666666667\n",
      "0.0042735 4 0.0010416666666666667\n",
      "0 0 0.0010416666666666667\n",
      "0.0042735 4 0.0010416666666666667\n",
      "0.012820500000000002 12 0.0010416666666666667\n",
      "0.008547 8 0.0010416666666666667\n",
      "0.008547 8 0.0010416666666666667\n",
      "0.0042735 4 0.0010416666666666667\n",
      "0 0 0.0010416666666666667\n",
      "0.0042735 4 0.0010416666666666667\n",
      "0.012820500000000002 12 0.0010416666666666667\n",
      "0.008547 8 0.0010416666666666667\n",
      "0 0 0.0010416666666666667\n",
      "0 0 0.0010416666666666667\n",
      "0.008547 8 0.0010416666666666667\n",
      "0.008547 8 0.0010416666666666667\n",
      "0.012820500000000002 12 0.0010416666666666667\n",
      "0.008547 8 0.0010416666666666667\n",
      "0 0 0.0010416666666666667\n",
      "0 0 0.0010416666666666667\n",
      "0.008547 8 0.0010416666666666667\n",
      "0.008547 8 0.0010416666666666667\n",
      "0.008547 8 0.0010416666666666667\n",
      "0 0 0.0010416666666666667\n",
      "0.0042735 4 0.0010416666666666667\n",
      "0.008547 8 0.0010416666666666667\n",
      "0.008547 8 0.0010416666666666667\n",
      "0.008547 8 0.0010416666666666667\n",
      "0.008547 8 0.0010416666666666667\n",
      "0 0 0.0010416666666666667\n",
      "0.0042735 4 0.0010416666666666667\n",
      "0.008547 8 0.0010416666666666667\n",
      "0.008547 8 0.0010416666666666667\n",
      "0.0042735 4 0.0010416666666666667\n",
      "0 0 0.0010416666666666667\n",
      "0.0042735 4 0.0010416666666666667\n",
      "0.008547 8 0.0010416666666666667\n",
      "0.012820500000000002 12 0.0010416666666666667\n",
      "0.008547 8 0.0010416666666666667\n",
      "0.0042735 4 0.0010416666666666667\n",
      "0 0 0.0010416666666666667\n",
      "0.0042735 4 0.0010416666666666667\n",
      "0.008547 8 0.0010416666666666667\n",
      "0.012820500000000002 12 0.0010416666666666667\n",
      "0 0 0.0010416666666666667\n",
      "0 0 0.0010416666666666667\n",
      "0.008547 8 0.0010416666666666667\n",
      "0.008547 8 0.0010416666666666667\n",
      "0.008547 8 0.0010416666666666667\n",
      "0.012820500000000002 12 0.0010416666666666667\n",
      "0 0 0.0010416666666666667\n",
      "0.008547 8 0.0010416666666666667\n",
      "0.008547 8 0.0010416666666666667\n",
      "0.0042735 4 0.0010416666666666667\n",
      "0 0 0.0010416666666666667\n",
      "0 0 0.0010416666666666667\n",
      "0 0 0.0010416666666666667\n",
      "0 0 0.0010416666666666667\n",
      "0 0 0.0010416666666666667\n",
      "0 0 0.0010416666666666667\n",
      "0 0 0.0010416666666666667\n",
      "0 0 0.0010416666666666667\n",
      "0 0 0.0010416666666666667\n",
      "0 0 0.0010416666666666667\n",
      "0 0 0.0010416666666666667\n",
      "0 0 0.0010416666666666667\n",
      "0 0 0.0010416666666666667\n",
      "0 0 0.0010416666666666667\n",
      "0.0042735 4 0.0010416666666666667\n",
      "0 0 0.0010416666666666667\n",
      "0 0 0.0010416666666666667\n",
      "0 0 0.0010416666666666667\n",
      "0 0 0.0010416666666666667\n",
      "0 0 0.0010416666666666667\n",
      "0.12393150000000001 119 0.0010416666666666667\n",
      "0 0 0.0010416666666666667\n",
      "0 0 0.0010416666666666667\n",
      "0 0 0.0010416666666666667\n",
      "0 0 0.0010416666666666667\n",
      "0.0470085 45 0.0010416666666666667\n",
      "0 0 0.0010416666666666667\n",
      "0 0 0.0010416666666666667\n",
      "0.12393150000000001 119 0.0010416666666666667\n",
      "0 0 0.0010416666666666667\n",
      "0 0 0.0010416666666666667\n",
      "0.0470085 45 0.0010416666666666667\n",
      "0 0 0.0010416666666666667\n",
      "0 0 0.0010416666666666667\n",
      "0.12393150000000001 119 0.0010416666666666667\n",
      "0 0 0.0010416666666666667\n",
      "0 0 0.0010416666666666667\n",
      "0.0470085 45 0.0010416666666666667\n",
      "0 0 0.0010416666666666667\n",
      "0 0 0.0010416666666666667\n",
      "0.51282 492 0.0010416666666666667\n",
      "0 0 0.0010416666666666667\n",
      "0 0 0.0010416666666666667\n",
      "0 0 0.0010416666666666667\n",
      "0 0 0.0010416666666666667\n",
      "0 0 0.0010416666666666667\n",
      "0 0 0.0010416666666666667\n",
      "0 0 0.0010416666666666667\n",
      "0 0 0.0010416666666666667\n",
      "0 0 0.0010416666666666667\n",
      "0 0 0.0010416666666666667\n",
      "0 0 0.0010416666666666667\n",
      "0 0 0.0010416666666666667\n",
      "0 0 0.0010416666666666667\n",
      "0.16666650000000002 160 0.0010416666666666667\n",
      "0 0 0.0010416666666666667\n",
      "0 0 0.0010416666666666667\n",
      "0 0 0.0010416666666666667\n",
      "0 0 0.0010416666666666667\n",
      "0 0 0.0010416666666666667\n",
      "0.042735 41 0.0010416666666666667\n",
      "0 0 0.0010416666666666667\n",
      "0 0 0.0010416666666666667\n",
      "0 0 0.0010416666666666667\n",
      "0 0 0.0010416666666666667\n",
      "0 0 0.0010416666666666667\n",
      "0 0 0.0010416666666666667\n",
      "0.1324785 127 0.0010416666666666667\n",
      "0 0 0.0010416666666666667\n",
      "0 0 0.0010416666666666667\n",
      "0 0 0.0010416666666666667\n",
      "0 0 0.0010416666666666667\n",
      "0 0 0.0010416666666666667\n",
      "0 0 0.0010416666666666667\n",
      "0 0 0.0010416666666666667\n",
      "0 0 0.0010416666666666667\n",
      "0 0 0.0010416666666666667\n",
      "0 0 0.0010416666666666667\n",
      "0 0 0.0010416666666666667\n",
      "0 0 0.0010416666666666667\n",
      "0.0384615 37 0.0010416666666666667\n",
      "0 0 0.0010416666666666667\n",
      "0.0213675 21 0.0010416666666666667\n",
      "0 0 0.0010416666666666667\n",
      "0 0 0.0010416666666666667\n",
      "0 0 0.0010416666666666667\n",
      "0 0 0.0010416666666666667\n",
      "0 0 0.0010416666666666667\n",
      "0 0 0.0010416666666666667\n",
      "0 0 0.0010416666666666667\n",
      "0 0 0.0010416666666666667\n",
      "0 0 0.0010416666666666667\n",
      "0 0 0.0010416666666666667\n",
      "0.025641000000000004 25 0.0010416666666666667\n",
      "0 0 0.0010416666666666667\n",
      "0 0 0.0010416666666666667\n",
      "0 0 0.0010416666666666667\n",
      "0 0 0.0010416666666666667\n",
      "0 0 0.0010416666666666667\n",
      "0 0 0.0010416666666666667\n",
      "0 0 0.0010416666666666667\n",
      "0 0 0.0010416666666666667\n",
      "0 0 0.0010416666666666667\n",
      "0 0 0.0010416666666666667\n",
      "0 0 0.0010416666666666667\n",
      "0 0 0.0010416666666666667\n",
      "0.0384615 37 0.0010416666666666667\n",
      "0 0 0.0010416666666666667\n",
      "0.0213675 21 0.0010416666666666667\n",
      "0 0 0.0010416666666666667\n",
      "0 0 0.0010416666666666667\n",
      "0 0 0.0010416666666666667\n",
      "0 0 0.0010416666666666667\n",
      "0 0 0.0010416666666666667\n",
      "0 0 0.0010416666666666667\n",
      "0 0 0.0010416666666666667\n",
      "0 0 0.0010416666666666667\n",
      "0 0 0.0010416666666666667\n",
      "0 0 0.0010416666666666667\n",
      "0.025641000000000004 25 0.0010416666666666667\n",
      "0 0 0.0010416666666666667\n",
      "0 0 0.0010416666666666667\n",
      "0 0 0.0010416666666666667\n",
      "0 0 0.0010416666666666667\n",
      "0 0 0.0010416666666666667\n",
      "0 0 0.0010416666666666667\n",
      "0 0 0.0010416666666666667\n",
      "0 0 0.0010416666666666667\n",
      "0 0 0.0010416666666666667\n",
      "0 0 0.0010416666666666667\n",
      "0 0 0.0010416666666666667\n",
      "0 0 0.0010416666666666667\n",
      "0 0 0.0010416666666666667\n",
      "0.008547 8 0.0010416666666666667\n",
      "0.008547 8 0.0010416666666666667\n",
      "0.008547 8 0.0010416666666666667\n",
      "0.008547 8 0.0010416666666666667\n",
      "0.0042735 4 0.0010416666666666667\n",
      "0 0 0.0010416666666666667\n",
      "0.008547 8 0.0010416666666666667\n",
      "0.008547 8 0.0010416666666666667\n",
      "0.008547 8 0.0010416666666666667\n",
      "0 0 0.0010416666666666667\n",
      "0 0 0.0010416666666666667\n",
      "0.008547 8 0.0010416666666666667\n",
      "0.012820500000000002 12 0.0010416666666666667\n",
      "0.008547 8 0.0010416666666666667\n",
      "0.008547 8 0.0010416666666666667\n",
      "0 0 0.0010416666666666667\n",
      "0 0 0.0010416666666666667\n",
      "0.008547 8 0.0010416666666666667\n",
      "0.012820500000000002 12 0.0010416666666666667\n",
      "0.0042735 4 0.0010416666666666667\n",
      "0 0 0.0010416666666666667\n",
      "0.0042735 4 0.0010416666666666667\n",
      "0.008547 8 0.0010416666666666667\n",
      "0.008547 8 0.0010416666666666667\n",
      "0.012820500000000002 12 0.0010416666666666667\n",
      "0.0042735 4 0.0010416666666666667\n",
      "0 0 0.0010416666666666667\n",
      "0.0042735 4 0.0010416666666666667\n",
      "0.008547 8 0.0010416666666666667\n",
      "0.008547 8 0.0010416666666666667\n",
      "0.0042735 4 0.0010416666666666667\n",
      "0 0 0.0010416666666666667\n",
      "0.0042735 4 0.0010416666666666667\n",
      "0.012820500000000002 12 0.0010416666666666667\n",
      "0.008547 8 0.0010416666666666667\n",
      "0.008547 8 0.0010416666666666667\n",
      "0.0042735 4 0.0010416666666666667\n",
      "0 0 0.0010416666666666667\n",
      "0.0042735 4 0.0010416666666666667\n",
      "0.012820500000000002 12 0.0010416666666666667\n",
      "0.008547 8 0.0010416666666666667\n",
      "0 0 0.0010416666666666667\n",
      "0 0 0.0010416666666666667\n",
      "0.008547 8 0.0010416666666666667\n",
      "0.008547 8 0.0010416666666666667\n",
      "0.012820500000000002 12 0.0010416666666666667\n",
      "0.008547 8 0.0010416666666666667\n",
      "0 0 0.0010416666666666667\n",
      "0 0 0.0010416666666666667\n",
      "0.008547 8 0.0010416666666666667\n",
      "0.008547 8 0.0010416666666666667\n",
      "0.008547 8 0.0010416666666666667\n",
      "0 0 0.0010416666666666667\n",
      "0.0042735 4 0.0010416666666666667\n",
      "0.008547 8 0.0010416666666666667\n",
      "0.008547 8 0.0010416666666666667\n",
      "0.008547 8 0.0010416666666666667\n",
      "0.008547 8 0.0010416666666666667\n",
      "0 0 0.0010416666666666667\n",
      "0.0042735 4 0.0010416666666666667\n",
      "0.008547 8 0.0010416666666666667\n",
      "0.008547 8 0.0010416666666666667\n",
      "0.0042735 4 0.0010416666666666667\n",
      "0 0 0.0010416666666666667\n",
      "0.0042735 4 0.0010416666666666667\n",
      "0.008547 8 0.0010416666666666667\n",
      "0.012820500000000002 12 0.0010416666666666667\n",
      "0.008547 8 0.0010416666666666667\n",
      "0.0042735 4 0.0010416666666666667\n",
      "0 0 0.0010416666666666667\n",
      "0.0042735 4 0.0010416666666666667\n",
      "0.008547 8 0.0010416666666666667\n",
      "0.012820500000000002 12 0.0010416666666666667\n",
      "0 0 0.0010416666666666667\n",
      "0 0 0.0010416666666666667\n",
      "0.008547 8 0.0010416666666666667\n",
      "0.008547 8 0.0010416666666666667\n",
      "0.008547 8 0.0010416666666666667\n",
      "0.012820500000000002 12 0.0010416666666666667\n",
      "0 0 0.0010416666666666667\n",
      "0.008547 8 0.0010416666666666667\n",
      "0.008547 8 0.0010416666666666667\n",
      "0 0 0.0010416666666666667\n",
      "0.00458715 4 0.0010416666666666667\n",
      "0 0 0.0010416666666666667\n",
      "0 0 0.0010416666666666667\n",
      "0 0 0.0010416666666666667\n",
      "0 0 0.0010416666666666667\n",
      "0 0 0.0010416666666666667\n",
      "0 0 0.0010416666666666667\n",
      "0 0 0.0010416666666666667\n",
      "0 0 0.0010416666666666667\n",
      "0 0 0.0010416666666666667\n",
      "0 0 0.0010416666666666667\n",
      "0 0 0.0010416666666666667\n",
      "0 0 0.0010416666666666667\n",
      "0 0 0.0010416666666666667\n",
      "0 0 0.0010416666666666667\n",
      "0.00458715 4 0.0010416666666666667\n",
      "0 0 0.0010416666666666667\n",
      "0 0 0.0010416666666666667\n",
      "0 0 0.0010416666666666667\n",
      "0 0 0.0010416666666666667\n",
      "0 0 0.0010416666666666667\n",
      "0 0 0.0010416666666666667\n",
      "0.00925925 9 0.0010416666666666667\n",
      "0.0188679 18 0.0010416666666666667\n",
      "0.0190476 18 0.0010416666666666667\n",
      "0.009615383333333333 9 0.0010416666666666667\n",
      "0.019417466666666668 19 0.0010416666666666667\n",
      "0.03921566666666666 38 0.0010416666666666667\n",
      "0.019801966666666667 19 0.0010416666666666667\n",
      "0.005 5 0.0010416666666666667\n",
      "0 0 0.0010416666666666667\n",
      "0 0 0.0010416666666666667\n",
      "0 0 0.0010416666666666667\n",
      "0 0 0.0010416666666666667\n",
      "0.045 43 0.0010416666666666667\n",
      "0.010101 10 0.0010416666666666667\n",
      "0 0 0.0010416666666666667\n",
      "0 0 0.0010416666666666667\n",
      "0.010101 10 0.0010416666666666667\n",
      "0.010204066666666668 10 0.0010416666666666667\n",
      "0.061855600000000004 59 0.0010416666666666667\n",
      "0.06770833333333333 65 0.0010416666666666667\n",
      "0 0 0.0010416666666666667\n",
      "0 0 0.0010416666666666667\n",
      "0.005208333333333333 5 0.0010416666666666667\n",
      "0.0526315 51 0.0010416666666666667\n",
      "0 0 0.0010416666666666667\n",
      "0 0 0.0010416666666666667\n",
      "0.15263134999999997 147 0.0010416666666666667\n",
      "0 0 0.0010416666666666667\n",
      "0 0 0.0010416666666666667\n",
      "0.05789464999999999 56 0.0010416666666666667\n",
      "0 0 0.0010416666666666667\n",
      "0 0 0.0010416666666666667\n",
      "0.08421039999999999 81 0.0010416666666666667\n",
      "0.5416666666666666 520 0.0010416666666666667\n",
      "0 0 0.0010416666666666667\n",
      "0 0 0.0010416666666666667\n",
      "0 0 0.0010416666666666667\n",
      "0 0 0.0010416666666666667\n",
      "0 0 0.0010416666666666667\n",
      "0 0 0.0010416666666666667\n",
      "0 0 0.0010416666666666667\n",
      "0 0 0.0010416666666666667\n",
      "0 0 0.0010416666666666667\n",
      "0 0 0.0010416666666666667\n",
      "0 0 0.0010416666666666667\n",
      "0.16111095 155 0.0010416666666666667\n",
      "0 0 0.0010416666666666667\n",
      "0 0 0.0010416666666666667\n",
      "0 0 0.0010416666666666667\n",
      "0 0 0.0010416666666666667\n",
      "0 0 0.0010416666666666667\n",
      "0 0 0.0010416666666666667\n",
      "0 0 0.0010416666666666667\n",
      "0 0 0.0010416666666666667\n",
      "0 0 0.0010416666666666667\n",
      "0 0 0.0010416666666666667\n",
      "0.06111105 59 0.0010416666666666667\n",
      "0 0 0.0010416666666666667\n",
      "0 0 0.0010416666666666667\n",
      "0 0 0.0010416666666666667\n",
      "0 0 0.0010416666666666667\n",
      "0 0 0.0010416666666666667\n",
      "0 0 0.0010416666666666667\n",
      "0 0 0.0010416666666666667\n",
      "0 0 0.0010416666666666667\n",
      "0 0 0.0010416666666666667\n",
      "0 0 0.0010416666666666667\n",
      "0.16111095 155 0.0010416666666666667\n",
      "0 0 0.0010416666666666667\n",
      "0 0 0.0010416666666666667\n",
      "0 0 0.0010416666666666667\n",
      "0 0 0.0010416666666666667\n",
      "0 0 0.0010416666666666667\n",
      "0 0 0.0010416666666666667\n",
      "0 0 0.0010416666666666667\n",
      "0 0 0.0010416666666666667\n",
      "0 0 0.0010416666666666667\n",
      "0 0 0.0010416666666666667\n",
      "0.06111105 59 0.0010416666666666667\n",
      "0 0 0.0010416666666666667\n",
      "0 0 0.0010416666666666667\n",
      "0 0 0.0010416666666666667\n",
      "0 0 0.0010416666666666667\n",
      "0 0 0.0010416666666666667\n",
      "0 0 0.0010416666666666667\n",
      "0 0 0.0010416666666666667\n",
      "0 0 0.0010416666666666667\n",
      "0 0 0.0010416666666666667\n",
      "0 0 0.0010416666666666667\n",
      "0.16111095 155 0.0010416666666666667\n",
      "0 0 0.0010416666666666667\n",
      "0 0 0.0010416666666666667\n",
      "0 0 0.0010416666666666667\n",
      "0 0 0.0010416666666666667\n",
      "0 0 0.0010416666666666667\n",
      "0 0 0.0010416666666666667\n",
      "0 0 0.0010416666666666667\n",
      "0 0 0.0010416666666666667\n",
      "0 0 0.0010416666666666667\n",
      "0 0 0.0010416666666666667\n",
      "0.06111105 59 0.0010416666666666667\n",
      "0 0 0.0010416666666666667\n",
      "0 0 0.0010416666666666667\n",
      "0 0 0.0010416666666666667\n",
      "0 0 0.0010416666666666667\n",
      "0 0 0.0010416666666666667\n",
      "0 0 0.0010416666666666667\n",
      "0 0 0.0010416666666666667\n",
      "0 0 0.0010416666666666667\n",
      "0 0 0.0010416666666666667\n",
      "0 0 0.0010416666666666667\n",
      "0 0 0.0010416666666666667\n",
      "0 0 0.0010416666666666667\n",
      "0 0 0.0010416666666666667\n",
      "0 0 0.0010416666666666667\n",
      "0 0 0.0010416666666666667\n",
      "0 0 0.0010416666666666667\n",
      "0 0 0.0010416666666666667\n",
      "0.029761874999999997 29 0.0010416666666666667\n",
      "0.023809499999999997 23 0.0010416666666666667\n",
      "0.011904749999999999 11 0.0010416666666666667\n",
      "0.017857124999999998 17 0.0010416666666666667\n",
      "0.005952374999999999 6 0.0010416666666666667\n",
      "0 0 0.0010416666666666667\n",
      "0.011904749999999999 11 0.0010416666666666667\n",
      "0.035714249999999996 34 0.0010416666666666667\n",
      "0.035714249999999996 34 0.0010416666666666667\n",
      "0 0 0.0010416666666666667\n",
      "0 0 0.0010416666666666667\n",
      "0.005952374999999999 6 0.0010416666666666667\n",
      "0 0 0.0010416666666666667\n",
      "0.029761874999999997 29 0.0010416666666666667\n",
      "0.035714249999999996 34 0.0010416666666666667\n",
      "0.017857124999999998 17 0.0010416666666666667\n",
      "0 0 0.0010416666666666667\n",
      "0 0 0.0010416666666666667\n",
      "0 0 0.0010416666666666667\n",
      "0.005952374999999999 6 0.0010416666666666667\n",
      "0 0 0.0010416666666666667\n",
      "0.011904749999999999 11 0.0010416666666666667\n",
      "0.035714249999999996 34 0.0010416666666666667\n",
      "0.035714249999999996 34 0.0010416666666666667\n",
      "0 0 0.0010416666666666667\n",
      "0 0 0.0010416666666666667\n",
      "0.005952374999999999 6 0.0010416666666666667\n",
      "0 0 0.0010416666666666667\n",
      "0.029761874999999997 29 0.0010416666666666667\n",
      "0.035714249999999996 34 0.0010416666666666667\n",
      "0.017857124999999998 17 0.0010416666666666667\n",
      "0 0 0.0010416666666666667\n",
      "0.005952374999999999 6 0.0010416666666666667\n",
      "0 0 0.0010416666666666667\n",
      "0.011904749999999999 11 0.0010416666666666667\n",
      "0.035714249999999996 34 0.0010416666666666667\n",
      "0.035714249999999996 34 0.0010416666666666667\n",
      "0 0 0.0010416666666666667\n",
      "0 0 0.0010416666666666667\n",
      "0.005952374999999999 6 0.0010416666666666667\n",
      "0 0 0.0010416666666666667\n",
      "0.029761874999999997 29 0.0010416666666666667\n",
      "0.035714249999999996 34 0.0010416666666666667\n",
      "0.017857124999999998 17 0.0010416666666666667\n",
      "0 0 0.0010416666666666667\n",
      "0.005952374999999999 6 0.0010416666666666667\n",
      "0 0 0.0010416666666666667\n",
      "0.011904749999999999 11 0.0010416666666666667\n",
      "0.035714249999999996 34 0.0010416666666666667\n",
      "0.035714249999999996 34 0.0010416666666666667\n",
      "0 0 0.0010416666666666667\n",
      "0 0 0.0010416666666666667\n",
      "0.005952374999999999 6 0.0010416666666666667\n",
      "0 0 0.0010416666666666667\n",
      "0 0 0.0010416666666666667\n",
      "0 0 0.0010416666666666667\n",
      "0.03205125 31 0.0010416666666666667\n",
      "0.0384615 37 0.0010416666666666667\n",
      "0.01923075 18 0.0010416666666666667\n",
      "0 0 0.0010416666666666667\n",
      "0.00641025 6 0.0010416666666666667\n",
      "0 0 0.0010416666666666667\n",
      "0.0128205 12 0.0010416666666666667\n",
      "0.0384615 37 0.0010416666666666667\n",
      "0.0384615 37 0.0010416666666666667\n",
      "0 0 0.0010416666666666667\n",
      "0 0 0.0010416666666666667\n",
      "0.00641025 6 0.0010416666666666667\n",
      "0 0 0.0010416666666666667\n",
      "0.03205125 31 0.0010416666666666667\n",
      "0.0384615 37 0.0010416666666666667\n",
      "0.01923075 18 0.0010416666666666667\n",
      "0 0 0.0010416666666666667\n",
      "0.00641025 6 0.0010416666666666667\n",
      "0 0 0.0010416666666666667\n",
      "0.0128205 12 0.0010416666666666667\n",
      "0.0384615 37 0.0010416666666666667\n",
      "0.0384615 37 0.0010416666666666667\n",
      "0 0 0.0010416666666666667\n",
      "0 0 0.0010416666666666667\n",
      "0.00641025 6 0.0010416666666666667\n",
      "0 0 0.0010416666666666667\n",
      "0.03205125 31 0.0010416666666666667\n",
      "0.0384615 37 0.0010416666666666667\n",
      "0.01923075 18 0.0010416666666666667\n",
      "0 0 0.0010416666666666667\n",
      "0.00641025 6 0.0010416666666666667\n",
      "0 0 0.0010416666666666667\n",
      "0.0128205 12 0.0010416666666666667\n",
      "0.0384615 37 0.0010416666666666667\n",
      "0.0384615 37 0.0010416666666666667\n",
      "0 0 0.0010416666666666667\n",
      "0 0 0.0010416666666666667\n",
      "0.00641025 6 0.0010416666666666667\n",
      "0 0 0.0010416666666666667\n",
      "0.03205125 31 0.0010416666666666667\n",
      "0.0384615 37 0.0010416666666666667\n",
      "0.01923075 18 0.0010416666666666667\n",
      "0 0 0.0010416666666666667\n",
      "0.00641025 6 0.0010416666666666667\n",
      "0 0 0.0010416666666666667\n",
      "0.0128205 12 0.0010416666666666667\n",
      "0.0384615 37 0.0010416666666666667\n",
      "0.0384615 37 0.0010416666666666667\n",
      "0 0 0.0010416666666666667\n",
      "0 0 0.0010416666666666667\n",
      "0 0 0.0010416666666666667\n",
      "0 0 0.0010416666666666667\n",
      "0 0 0.0010416666666666667\n",
      "0 0 0.0010416666666666667\n",
      "0 0 0.0010416666666666667\n",
      "0 0 0.0010416666666666667\n",
      "0 0 0.0010416666666666667\n",
      "0 0 0.0010416666666666667\n",
      "0 0 0.0010416666666666667\n",
      "0 0 0.0010416666666666667\n",
      "0 0 0.0010416666666666667\n",
      "0 0 0.0010416666666666667\n",
      "0 0 0.0010416666666666667\n",
      "0.00641025 6 0.0010416666666666667\n",
      "0 0 0.0010416666666666667\n",
      "0 0 0.0010416666666666667\n",
      "0 0 0.0010416666666666667\n",
      "0 0 0.0010416666666666667\n",
      "0 0 0.0010416666666666667\n",
      "0 0 0.0010416666666666667\n",
      "0 0 0.0010416666666666667\n",
      "0.2377047833333333 228 0.0010416666666666667\n",
      "0 0 0.0010416666666666667\n",
      "0 0 0.0010416666666666667\n",
      "0 0 0.0010416666666666667\n",
      "0 0 0.0010416666666666667\n",
      "3.6967192166666663 3549 0.0010416666666666667\n"
     ]
    },
    {
     "data": {
      "text/plain": [
       "array([[ 0.,  0.,  0., ...,  0.,  0.,  0.],\n",
       "       [ 0.,  0.,  0., ...,  0.,  0.,  0.],\n",
       "       [ 0.,  0.,  0., ...,  0.,  0.,  0.],\n",
       "       ..., \n",
       "       [ 0.,  0.,  0., ...,  0.,  0.,  0.],\n",
       "       [ 0.,  0.,  0., ...,  0.,  0.,  0.],\n",
       "       [ 0.,  0.,  0., ...,  0.,  0.,  0.]])"
      ]
     },
     "execution_count": 19,
     "metadata": {},
     "output_type": "execute_result"
    }
   ],
   "source": [
    "to_piano_roll(mid)"
   ]
  },
  {
   "cell_type": "code",
   "execution_count": null,
   "metadata": {
    "collapsed": true
   },
   "outputs": [],
   "source": []
  }
 ],
 "metadata": {
  "kernelspec": {
   "display_name": "Python 3",
   "language": "python",
   "name": "python3"
  },
  "language_info": {
   "codemirror_mode": {
    "name": "ipython",
    "version": 3
   },
   "file_extension": ".py",
   "mimetype": "text/x-python",
   "name": "python",
   "nbconvert_exporter": "python",
   "pygments_lexer": "ipython3",
   "version": "3.5.2"
  }
 },
 "nbformat": 4,
 "nbformat_minor": 1
}
